<?xml version="1.0" encoding="UTF-8" standalone="no" ?>
<!DOCTYPE svg PUBLIC "-//W3C//DTD SVG 1.1//EN" "http://www.w3.org/Graphics/SVG/1.1/DTD/svg11.dtd">
<svg xmlns="http://www.w3.org/2000/svg" xmlns:xlink="http://www.w3.org/1999/xlink" version="1.1" width="165.07983623336747" height="82.54145342886389" viewBox="179.1591606960082 190.30836622040817 165.07983623336747 82.54145342886389" xml:space="preserve">
<desc>Created with Fabric.js 4.6.0</desc>
<defs>
</defs>
<g transform="matrix(1 0 0 1 261.7 231.58)" id="9RwVg0CREEJMFeT87TSFf"  >
<path style="stroke: rgb(255,255,255); stroke-width: 7; stroke-dasharray: none; stroke-linecap: round; stroke-dashoffset: 0; stroke-linejoin: round; stroke-miterlimit: 10; fill: rgb(255,255,255); fill-rule: nonzero; opacity: 1;" vector-effect="non-scaling-stroke"  transform=" translate(-261.7, -231.58)" d="M 222.72262026612077 214.22682988468654 Q 222.72262026612077 214.21982988468653 222.72262026612077 213.8922966195893 Q 222.72262026612077 213.56476335449207 222.72262026612077 213.2372300893948 Q 222.72262026612077 212.90969682429758 222.72262026612077 212.58216355920035 Q 222.72262026612077 212.25463029410312 222.39508700102354 211.59956376390863 Q 222.0675537359263 210.94449723371417 222.0675537359263 210.2894307035197 Q 222.0675537359263 209.63436417332522 221.74002047082908 209.306830908228 Q 221.41248720573185 208.97929764313076 221.08495394063462 208.65176437803353 Q 220.7574206755374 208.32423111293627 220.7574206755374 207.99669784783904 Q 220.7574206755374 207.66916458274181 220.7574206755374 207.34163131764458 Q 220.7574206755374 207.01409805254735 220.42988741044013 206.6865647874501 Q 220.10235414534287 206.35903152235286 219.77482088024564 206.35903152235286 Q 219.4472876151484 206.35903152235286 219.4472876151484 206.03149825725563 Q 219.4472876151484 205.7039649921584 219.11975435005118 205.37643172706117 Q 218.79222108495395 205.04889846196392 218.46468781985672 204.72136519686669 Q 218.1371545547595 204.39383193176945 217.80962128966226 204.39383193176945 Q 217.48208802456503 204.39383193176945 217.15455475946777 204.0662986666722 Q 216.8270214943705 203.73876540157497 216.49948822927328 203.73876540157497 Q 216.17195496417605 203.73876540157497 216.17195496417605 203.41123213647774 Q 216.17195496417605 203.0836988713805 215.84442169907882 202.75616560628328 Q 215.5168884339816 202.42863234118605 215.18935516888436 202.42863234118605 Q 214.86182190378713 202.42863234118605 214.53428863868987 202.42863234118605 Q 214.2067553735926 202.42863234118605 214.2067553735926 202.10109907608881 Q 214.2067553735926 201.77356581099156 213.87922210849538 201.77356581099156 Q 213.55168884339815 201.77356581099156 213.22415557830092 201.77356581099156 Q 212.8966223132037 201.77356581099156 212.8966223132037 201.44603254589433 Q 212.8966223132037 201.1184992807971 212.24155578300923 201.1184992807971 Q 211.58648925281477 201.1184992807971 211.2589559877175 201.1184992807971 Q 210.93142272262025 201.1184992807971 210.93142272262025 200.79096601569984 Q 210.93142272262025 200.4634327506026 210.60388945752302 200.4634327506026 Q 210.2763561924258 200.4634327506026 209.94882292732856 200.4634327506026 Q 209.62128966223133 200.4634327506026 209.29375639713408 200.4634327506026 Q 208.96622313203682 200.4634327506026 208.6386898669396 200.4634327506026 Q 208.31115660184236 200.4634327506026 207.98362333674513 200.13589948550538 Q 207.6560900716479 199.80836622040815 207.00102354145343 199.80836622040815 Q 206.34595701125897 199.80836622040815 206.01842374616172 199.80836622040815 Q 205.69089048106446 199.80836622040815 205.36335721596723 199.80836622040815 Q 205.03582395087 199.80836622040815 204.70829068577277 199.80836622040815 Q 204.38075742067554 199.80836622040815 204.0532241555783 199.80836622040815 Q 203.72569089048108 199.80836622040815 203.39815762538382 199.80836622040815 Q 203.07062436028656 199.80836622040815 202.74309109518933 199.80836622040815 Q 202.4155578300921 199.80836622040815 202.08802456499487 199.80836622040815 Q 201.76049129989764 199.80836622040815 201.4329580348004 199.80836622040815 Q 201.10542476970318 199.80836622040815 200.77789150460595 200.13589948550538 Q 200.45035823950872 200.4634327506026 200.12282497441146 200.4634327506026 Q 199.7952917093142 200.4634327506026 199.46775844421697 200.79096601569984 Q 199.14022517911974 201.1184992807971 198.8126919140225 201.1184992807971 Q 198.48515864892528 201.1184992807971 198.15762538382805 201.44603254589433 Q 197.83009211873082 201.77356581099156 197.50255885363356 201.77356581099156 Q 197.1750255885363 201.77356581099156 197.1750255885363 202.10109907608881 Q 197.1750255885363 202.42863234118605 196.84749232343907 202.75616560628328 Q 196.51995905834184 203.0836988713805 196.1924257932446 203.0836988713805 Q 195.86489252814738 203.0836988713805 195.53735926305015 203.41123213647774 Q 195.20982599795292 203.73876540157497 194.8822927328557 204.0662986666722 Q 194.55475946775846 204.39383193176945 194.2272262026612 204.72136519686669 Q 193.89969293756394 205.04889846196392 193.5721596724667 205.37643172706117 Q 193.24462640736948 205.7039649921584 192.91709314227225 206.03149825725563 Q 192.58955987717502 206.35903152235286 192.2620266120778 206.35903152235286 Q 191.93449334698056 206.35903152235286 191.93449334698056 206.6865647874501 Q 191.93449334698056 207.01409805254735 191.60696008188333 207.66916458274181 Q 191.2794268167861 208.32423111293627 191.2794268167861 208.65176437803353 Q 191.2794268167861 208.97929764313076 191.2794268167861 209.306830908228 Q 191.2794268167861 209.63436417332522 190.95189355168884 209.63436417332522 Q 190.62436028659158 209.63436417332522 190.62436028659158 210.2894307035197 Q 190.62436028659158 210.94449723371417 190.62436028659158 211.27203049881143 Q 190.62436028659158 211.59956376390866 190.62436028659158 211.9270970290059 Q 190.62436028659158 212.25463029410312 190.62436028659158 212.58216355920035 Q 190.62436028659158 212.90969682429758 190.62436028659158 213.2372300893948 Q 190.62436028659158 213.56476335449207 190.62436028659158 213.8922966195893 Q 190.62436028659158 214.21982988468653 190.62436028659158 214.5473631497838 Q 190.62436028659158 214.87489641488102 190.95189355168884 215.5299629450755 Q 191.2794268167861 216.18502947526997 191.60696008188333 216.5125627403672 Q 191.93449334698056 216.84009600546443 191.93449334698056 217.1676292705617 Q 191.93449334698056 217.49516253565892 192.2620266120778 217.82269580075615 Q 192.58955987717502 218.15022906585338 192.91709314227225 218.80529559604787 Q 193.24462640736948 219.46036212624233 193.24462640736948 219.78789539133956 Q 193.24462640736948 220.1154286564368 193.5721596724667 220.44296192153405 Q 193.89969293756394 220.77049518663128 193.89969293756394 221.0980284517285 Q 193.89969293756394 221.42556171682574 194.2272262026612 221.75309498192297 Q 194.55475946775846 222.08062824702023 194.55475946775846 222.40816151211746 Q 194.55475946775846 222.7356947772147 194.8822927328557 222.7356947772147 Q 195.20982599795292 222.7356947772147 195.53735926305015 223.06322804231195 Q 195.86489252814738 223.39076130740918 195.86489252814738 223.7182945725064 Q 195.86489252814738 224.04582783760364 195.86489252814738 224.37336110270087 Q 195.86489252814738 224.7008943677981 196.1924257932446 224.7008943677981 Q 196.51995905834184 224.7008943677981 196.84749232343907 225.02842763289533 Q 197.1750255885363 225.3559608979926 197.1750255885363 225.68349416308982 Q 197.1750255885363 226.01102742818705 197.50255885363356 226.3385606932843 Q 197.83009211873082 226.66609395838154 197.83009211873082 226.99362722347877 Q 197.83009211873082 227.321160488576 198.15762538382805 227.64869375367323 Q 198.48515864892528 227.9762270187705 198.48515864892528 228.30376028386772 Q 198.48515864892528 228.63129354896495 198.48515864892528 228.95882681406218 Q 198.48515864892528 229.2863600791594 198.48515864892528 229.61389334425667 Q 198.48515864892528 229.9414266093539 198.48515864892528 230.26895987445113 Q 198.48515864892528 230.59649313954836 198.48515864892528 230.9240264046456 Q 198.48515864892528 231.25155966974285 198.48515864892528 231.57909293484008 Q 198.48515864892528 231.9066261999373 198.48515864892528 232.23415946503457 Q 198.48515864892528 232.5616927301318 198.48515864892528 232.88922599522903 Q 198.48515864892528 233.21675926032626 198.48515864892528 233.5442925254235 Q 198.48515864892528 233.87182579052072 198.15762538382805 234.5268923207152 Q 197.83009211873082 235.18195885090967 197.17502558853633 235.83702538110413 Q 196.51995905834184 236.49209191129862 196.51995905834184 237.1471584414931 Q 196.51995905834184 237.80222497168756 195.86489252814738 238.12975823678482 Q 195.20982599795292 238.45729150188205 195.20982599795292 239.11235803207651 Q 195.20982599795292 239.76742456227097 194.8822927328557 240.0949578273682 Q 194.55475946775846 240.42249109246546 194.2272262026612 240.7500243575627 Q 193.89969293756394 241.07755762265992 193.89969293756394 241.40509088775718 Q 193.89969293756394 241.7326241528544 193.5721596724667 242.06015741795164 Q 193.24462640736948 242.38769068304887 192.91709314227225 242.7152239481461 Q 192.58955987717502 243.04275721324336 192.58955987717502 243.3702904783406 Q 192.58955987717502 243.69782374343782 192.2620266120778 244.02535700853508 Q 191.93449334698056 244.3528902736323 191.60696008188333 245.335490068924 Q 191.2794268167861 246.31808986421572 190.95189355168884 246.64562312931295 Q 190.62436028659158 246.97315639441018 190.29682702149435 247.30068965950744 Q 189.96929375639712 247.62822292460467 189.96929375639712 247.9557561897019 Q 189.96929375639712 248.28328945479913 189.6417604912999 248.61082271989636 Q 189.31422722620266 248.93835598499362 189.31422722620266 249.26588925009085 Q 189.31422722620266 249.59342251518808 188.98669396110543 250.24848904538254 Q 188.6591606960082 250.90355557557703 188.6591606960082 251.55862210577152 Q 188.6591606960082 252.21368863596598 188.6591606960082 252.5412219010632 Q 188.6591606960082 252.86875516616044 188.6591606960082 253.5238216963549 Q 188.6591606960082 254.1788882265494 188.6591606960082 254.83395475674388 Q 188.6591606960082 255.48902128693834 188.6591606960082 255.81655455203557 Q 188.6591606960082 256.1440878171328 188.6591606960082 256.47162108223006 Q 188.6591606960082 256.7991543473273 188.6591606960082 257.1266876124246 Q 188.6591606960082 257.4542208775218 188.6591606960082 257.781754142619 Q 188.6591606960082 258.10928740771624 188.6591606960082 258.4368206728135 Q 188.6591606960082 258.7643539379107 188.98669396110543 259.09188720300796 Q 189.31422722620266 259.4194204681052 189.6417604912999 259.4194204681052 Q 189.96929375639712 259.4194204681052 190.29682702149435 259.7469537332024 Q 190.62436028659158 260.0744869982997 190.95189355168884 260.40202026339693 Q 191.2794268167861 260.72955352849414 191.60696008188333 260.72955352849414 Q 191.93449334698056 260.72955352849414 192.58955987717502 261.05708679359134 Q 193.24462640736948 261.3846200586886 193.5721596724667 261.3846200586886 Q 193.89969293756394 261.3846200586886 194.2272262026612 261.71215332378586 Q 194.55475946775846 262.03968658888306 195.20982599795292 262.3672198539803 Q 195.86489252814738 262.6947531190776 196.1924257932446 262.6947531190776 Q 196.51995905834184 262.6947531190776 196.84749232343907 263.0222863841748 Q 197.1750255885363 263.34981964927204 197.50255885363356 263.34981964927204 Q 197.83009211873082 263.34981964927204 198.15762538382805 263.34981964927204 Q 198.48515864892528 263.34981964927204 198.8126919140225 263.34981964927204 Q 199.14022517911974 263.34981964927204 199.46775844421697 263.34981964927204 Q 199.7952917093142 263.34981964927204 200.4503582395087 263.34981964927204 Q 201.10542476970318 263.34981964927204 201.4329580348004 263.34981964927204 Q 201.76049129989764 263.34981964927204 202.08802456499487 263.34981964927204 Q 202.4155578300921 263.34981964927204 202.74309109518933 263.34981964927204 Q 203.07062436028656 263.34981964927204 203.72569089048105 263.34981964927204 Q 204.38075742067554 263.34981964927204 204.70829068577277 263.34981964927204 Q 205.03582395087 263.34981964927204 205.36335721596723 263.34981964927204 Q 205.69089048106446 263.34981964927204 206.01842374616172 263.34981964927204 Q 206.34595701125897 263.34981964927204 206.6734902763562 263.34981964927204 Q 207.00102354145343 263.34981964927204 207.32855680655067 263.0222863841748 Q 207.6560900716479 262.6947531190776 207.98362333674513 262.3672198539803 Q 208.31115660184236 262.03968658888306 208.6386898669396 262.03968658888306 Q 208.96622313203682 262.03968658888306 208.96622313203682 261.71215332378586 Q 208.96622313203682 261.3846200586886 209.29375639713408 261.3846200586886 Q 209.62128966223133 261.3846200586886 209.94882292732856 261.05708679359134 Q 210.2763561924258 260.72955352849414 210.60388945752302 260.72955352849414 Q 210.93142272262025 260.72955352849414 210.93142272262025 260.40202026339693 Q 210.93142272262025 260.0744869982997 211.2589559877175 260.0744869982997 Q 211.58648925281477 260.0744869982997 211.914022517912 259.41942046810516 Q 212.24155578300923 258.7643539379107 212.56908904810646 258.7643539379107 Q 212.8966223132037 258.7643539379107 212.8966223132037 258.4368206728135 Q 212.8966223132037 258.10928740771624 213.22415557830092 257.781754142619 Q 213.55168884339815 257.4542208775218 213.55168884339815 257.1266876124246 Q 213.55168884339815 256.7991543473273 214.20675537359264 256.47162108223006 Q 214.86182190378713 256.1440878171328 214.86182190378713 255.81655455203557 Q 214.86182190378713 255.48902128693834 215.18935516888436 255.16148802184108 Q 215.5168884339816 254.83395475674385 215.5168884339816 254.50642149164662 Q 215.5168884339816 254.1788882265494 215.84442169907882 253.85135496145216 Q 216.17195496417605 253.52382169635493 216.17195496417605 253.1962884312577 Q 216.17195496417605 252.86875516616044 216.49948822927328 252.5412219010632 Q 216.8270214943705 252.21368863596598 216.8270214943705 251.88615537086872 Q 216.8270214943705 251.5586221057715 217.15455475946777 251.23108884067426 Q 217.48208802456503 250.90355557557703 217.48208802456503 250.5760223104798 Q 217.48208802456503 250.24848904538254 217.80962128966226 249.9209557802853 Q 218.1371545547595 249.59342251518808 218.1371545547595 249.26588925009085 Q 218.1371545547595 248.93835598499362 218.1371545547595 248.61082271989636 Q 218.1371545547595 248.28328945479913 218.46468781985672 247.9557561897019 Q 218.79222108495395 247.62822292460467 219.11975435005118 247.30068965950744 Q 219.4472876151484 246.97315639441018 219.77482088024564 246.64562312931295 Q 220.10235414534287 246.31808986421572 220.42988741044013 245.99055659911846 Q 220.7574206755374 245.66302333402123 221.08495394063462 245.66302333402123 Q 221.41248720573185 245.66302333402123 221.74002047082908 245.335490068924 Q 222.0675537359263 245.00795680382677 222.39508700102354 244.68042353872954 Q 222.72262026612077 244.3528902736323 223.37768679631526 244.02535700853508 Q 224.03275332650975 243.69782374343782 224.36028659160698 243.3702904783406 Q 224.6878198567042 243.04275721324336 225.34288638689867 243.04275721324336 Q 225.99795291709313 243.04275721324336 226.65301944728762 242.7152239481461 Q 227.3080859774821 242.38769068304887 227.96315250767657 242.06015741795164 Q 228.61821903787103 241.7326241528544 229.60081883316275 241.7326241528544 Q 230.58341862845447 241.7326241528544 231.5660184237462 241.40509088775718 Q 232.5486182190379 241.07755762265992 233.20368474923237 241.07755762265992 Q 233.85875127942683 241.07755762265992 234.5138178096213 240.7500243575627 Q 235.16888433981575 240.42249109246546 235.82395087001024 240.42249109246546 Q 236.47901740020473 240.42249109246546 236.80655066530196 240.0949578273682 Q 237.13408393039919 239.76742456227097 237.46161719549642 239.76742456227097 Q 237.78915046059365 239.76742456227097 238.77175025588537 239.76742456227097 Q 239.75435005117708 239.76742456227097 241.06448311156603 239.76742456227097 Q 242.37461617195498 239.76742456227097 243.35721596724667 239.76742456227097 Q 244.33981576253836 239.76742456227097 244.99488229273285 239.76742456227097 Q 245.64994882292734 239.76742456227097 246.63254861821906 239.76742456227097 Q 247.61514841351078 239.76742456227097 248.27021494370524 239.76742456227097 Q 248.9252814738997 239.76742456227097 249.90788126919142 239.76742456227097 Q 250.89048106448314 239.76742456227097 251.87308085977483 239.76742456227097 Q 252.85568065506652 239.76742456227097 253.510747185261 239.76742456227097 Q 254.1658137154555 239.76742456227097 255.47594677584445 239.76742456227097 Q 256.7860798362334 239.76742456227097 257.76867963152506 239.76742456227097 Q 258.7512794268168 239.76742456227097 259.7338792221085 239.76742456227097 Q 260.7164790174002 239.76742456227097 261.3715455475947 239.76742456227097 Q 262.02661207778914 239.76742456227097 263.00921187308086 239.76742456227097 Q 263.9918116683726 239.76742456227097 264.3193449334698 239.76742456227097 Q 264.64687819856704 239.76742456227097 264.9744114636643 239.76742456227097 Q 265.3019447287615 239.76742456227097 265.95701125895596 239.76742456227097 Q 266.6120777891505 239.76742456227097 267.5946775844422 239.76742456227097 Q 268.5772773797339 239.76742456227097 269.2323439099284 239.76742456227097 Q 269.88741044012284 239.76742456227097 270.2149437052201 239.76742456227097 Q 270.5424769703173 239.76742456227097 271.525076765609 239.76742456227097 Q 272.50767656090073 239.76742456227097 273.49027635619245 239.76742456227097 Q 274.4728761514842 239.76742456227097 275.12794268167863 239.76742456227097 Q 275.7830092118731 239.76742456227097 276.1105424769703 239.76742456227097 Q 276.43807574206755 239.76742456227097 276.7656090071648 239.76742456227097 Q 277.093142272262 239.76742456227097 277.4206755373593 239.76742456227097 Q 277.74820880245653 239.76742456227097 278.403275332651 239.76742456227097 Q 279.05834186284545 239.76742456227097 280.04094165813717 239.76742456227097 Q 281.0235414534289 239.76742456227097 282.0061412487206 240.0949578273682 Q 282.9887410440123 240.42249109246546 283.31627430910953 240.42249109246546 Q 283.6438075742068 240.42249109246546 284.62640736949845 240.7500243575627 Q 285.60900716479017 241.07755762265992 286.26407369498463 241.07755762265992 Q 286.91914022517915 241.07755762265992 287.5742067553736 241.07755762265992 Q 288.22927328556807 241.07755762265992 288.5568065506653 241.07755762265992 Q 288.88433981576253 241.07755762265992 289.2118730808598 241.07755762265992 Q 289.53940634595705 241.07755762265992 290.1944728761515 241.07755762265992 Q 290.84953940634597 241.07755762265992 291.17707267144317 241.07755762265992 Q 291.50460593654043 241.07755762265992 292.15967246673495 241.40509088775718 Q 292.8147389969294 241.7326241528544 293.46980552712387 241.7326241528544 Q 294.1248720573183 241.7326241528544 294.45240532241553 241.7326241528544 Q 294.7799385875128 241.7326241528544 295.10747185261005 241.7326241528544 Q 295.4350051177073 241.7326241528544 295.76253838280456 241.7326241528544 Q 296.09007164790177 241.7326241528544 296.41760491299897 241.7326241528544 Q 296.7451381780962 241.7326241528544 297.4002047082907 241.7326241528544 Q 298.05527123848515 241.7326241528544 298.3828045035824 241.7326241528544 Q 298.71033776867966 241.7326241528544 299.3654042988741 242.06015741795164 Q 300.0204708290686 242.38769068304887 300.34800409416584 242.38769068304887 Q 300.67553735926305 242.38769068304887 301.0030706243603 242.38769068304887 Q 301.33060388945756 242.38769068304887 301.33060388945756 242.7152239481461 Q 301.33060388945756 243.04275721324336 301.65813715455477 243.04275721324336 Q 301.985670419652 243.04275721324336 301.985670419652 243.3702904783406 Q 301.985670419652 243.69782374343782 302.3132036847493 244.02535700853508 Q 302.6407369498465 244.3528902736323 303.29580348004095 245.00795680382677 Q 303.9508700102354 245.66302333402123 304.60593654042987 246.31808986421572 Q 305.2610030706244 246.97315639441018 305.2610030706244 247.30068965950744 Q 305.2610030706244 247.62822292460467 305.58853633572164 247.9557561897019 Q 305.91606960081884 248.28328945479913 306.24360286591605 248.61082271989636 Q 306.5711361310133 248.93835598499362 306.89866939611056 249.26588925009085 Q 307.22620266120776 249.59342251518808 307.8812691914022 249.9209557802853 Q 308.53633572159674 250.24848904538254 309.1914022517912 250.903555575577 Q 309.84646878198566 251.5586221057715 310.1740020470829 251.88615537086872 Q 310.5015353121802 252.21368863596598 310.82906857727744 252.21368863596598 Q 311.15660184237464 252.21368863596598 311.15660184237464 252.5412219010632 Q 311.15660184237464 252.86875516616044 311.8116683725691 253.1962884312577 Q 312.46673490276356 253.52382169635493 312.79426816786076 254.1788882265494 Q 313.121801432958 254.83395475674385 314.10440122824974 255.16148802184108 Q 315.08700102354146 255.48902128693834 315.4145342886387 255.81655455203557 Q 315.7420675537359 256.1440878171328 315.7420675537359 256.47162108223006 Q 315.7420675537359 256.7991543473273 316.0696008188332 256.7991543473273 Q 316.39713408393044 256.7991543473273 317.0522006141249 256.7991543473273 Q 317.70726714431936 256.7991543473273 317.70726714431936 257.1266876124246 Q 317.70726714431936 257.4542208775218 318.03480040941656 257.4542208775218 Q 318.3623336745138 257.4542208775218 318.6898669396111 257.4542208775218 Q 319.0174002047083 257.4542208775218 319.67246673490274 257.4542208775218 Q 320.32753326509726 257.4542208775218 320.9825997952917 257.4542208775218 Q 321.6376663254862 257.4542208775218 321.96519959058344 257.781754142619 Q 322.29273285568064 258.10928740771624 322.6202661207779 258.10928740771624 Q 322.94779938587516 258.10928740771624 323.27533265097236 258.10928740771624 Q 323.6028659160696 258.10928740771624 323.9303991811669 258.10928740771624 Q 324.2579324462641 258.10928740771624 324.91299897645854 258.10928740771624 Q 325.56806550665306 258.10928740771624 326.2231320368475 258.10928740771624 Q 326.878198567042 258.10928740771624 327.20573183213924 258.10928740771624 Q 327.53326509723644 258.10928740771624 327.86079836233364 258.10928740771624 Q 328.1883316274309 258.10928740771624 328.51586489252816 258.10928740771624 Q 328.8433981576254 258.10928740771624 328.8433981576254 257.781754142619 Q 328.8433981576254 257.4542208775218 329.1709314227227 257.4542208775218 Q 329.4984646878199 257.4542208775218 329.4984646878199 257.1266876124246 Q 329.4984646878199 256.7991543473273 329.8259979529171 256.47162108223006 Q 330.15353121801434 256.1440878171328 330.15353121801434 255.81655455203557 Q 330.15353121801434 255.48902128693834 330.4810644831116 255.16148802184108 Q 330.8085977482088 254.83395475674385 331.13613101330606 254.83395475674385 Q 331.4636642784033 254.83395475674385 331.4636642784033 254.50642149164662 Q 331.4636642784033 254.1788882265494 331.7911975435005 253.85135496145216 Q 332.1187308085978 253.52382169635493 332.44626407369503 253.1962884312577 Q 332.77379733879224 252.86875516616044 333.10133060388944 252.21368863596598 Q 333.4288638689867 251.5586221057715 333.75639713408395 251.23108884067426 Q 334.08393039918116 250.90355557557703 334.08393039918116 250.5760223104798 Q 334.08393039918116 250.24848904538254 334.4114636642784 249.9209557802853 Q 334.7389969293757 249.59342251518808 334.7389969293757 248.93835598499362 Q 334.7389969293757 248.28328945479913 334.7389969293757 247.62822292460464 Q 334.7389969293757 246.97315639441018 334.7389969293757 246.64562312931295 Q 334.7389969293757 246.31808986421572 334.7389969293757 245.66302333402126 Q 334.7389969293757 245.00795680382677 334.7389969293757 244.68042353872954 Q 334.7389969293757 244.3528902736323 334.4114636642784 244.02535700853508 Q 334.08393039918116 243.69782374343782 333.75639713408395 243.3702904783406 Q 333.4288638689867 243.04275721324336 333.4288638689867 242.7152239481461 Q 333.4288638689867 242.38769068304887 333.10133060388944 242.06015741795164 Q 332.77379733879224 241.7326241528544 332.77379733879224 241.40509088775718 Q 332.77379733879224 241.07755762265992 332.44626407369503 240.7500243575627 Q 332.1187308085978 240.42249109246546 331.7911975435005 240.0949578273682 Q 331.4636642784033 239.76742456227097 331.13613101330606 239.43989129717374 Q 330.8085977482088 239.11235803207651 330.4810644831116 239.11235803207651 Q 330.15353121801434 239.11235803207651 330.15353121801434 238.78482476697928 Q 330.15353121801434 238.45729150188205 329.8259979529171 238.12975823678482 Q 329.4984646878199 237.80222497168756 328.8433981576254 237.1471584414931 Q 328.1883316274309 236.49209191129862 327.86079836233364 236.49209191129862 Q 327.53326509723644 236.49209191129862 327.20573183213924 236.16455864620139 Q 326.878198567042 235.83702538110416 326.5506653019447 235.50949211600692 Q 326.2231320368475 235.18195885090967 326.2231320368475 234.85442558581244 Q 326.2231320368475 234.5268923207152 325.8955987717503 234.5268923207152 Q 325.56806550665306 234.5268923207152 325.2405322415558 234.5268923207152 Q 324.91299897645854 234.5268923207152 324.91299897645854 234.19935905561795 Q 324.91299897645854 233.87182579052072 324.5854657113613 233.87182579052072 Q 324.2579324462641 233.87182579052072 324.2579324462641 233.5442925254235 Q 324.2579324462641 233.21675926032626 323.9303991811669 233.21675926032626 Q 323.6028659160696 233.21675926032626 323.6028659160696 232.56169273013177 Q 323.6028659160696 231.9066261999373 323.27533265097236 231.57909293484008 Q 322.94779938587516 231.25155966974285 322.6202661207779 230.9240264046456 Q 322.29273285568064 230.59649313954836 322.29273285568064 229.94142660935387 Q 322.29273285568064 229.2863600791594 321.96519959058344 229.2863600791594 Q 321.6376663254862 229.2863600791594 321.6376663254862 228.95882681406218 Q 321.6376663254862 228.63129354896495 321.6376663254862 228.30376028386772 Q 321.6376663254862 227.9762270187705 321.6376663254862 227.64869375367323 Q 321.6376663254862 227.321160488576 322.2927328556807 226.99362722347877 Q 322.94779938587516 226.66609395838154 323.27533265097236 226.66609395838154 Q 323.6028659160696 226.66609395838154 323.9303991811669 226.3385606932843 Q 324.2579324462641 226.01102742818705 324.5854657113613 225.68349416308982 Q 324.91299897645854 225.3559608979926 325.2405322415558 225.3559608979926 Q 325.56806550665306 225.3559608979926 325.8955987717503 225.02842763289533 Q 326.2231320368475 224.7008943677981 326.5506653019447 224.37336110270087 Q 326.878198567042 224.04582783760364 327.53326509723644 223.7182945725064 Q 328.1883316274309 223.39076130740918 328.51586489252816 223.06322804231195 Q 328.8433981576254 222.7356947772147 329.4984646878199 222.08062824702023 Q 330.15353121801434 221.42556171682574 330.4810644831116 221.42556171682574 Q 330.8085977482088 221.42556171682574 330.8085977482088 221.0980284517285 Q 330.8085977482088 220.77049518663128 331.13613101330606 220.77049518663128 Q 331.4636642784033 220.77049518663128 331.7911975435005 220.44296192153405 Q 332.1187308085978 220.1154286564368 332.1187308085978 219.78789539133956 Q 332.1187308085978 219.46036212624233 332.44626407369503 219.13282886114507 Q 332.77379733879224 218.80529559604784 332.77379733879224 218.4777623309506 Q 332.77379733879224 218.15022906585338 332.77379733879224 217.82269580075615 Q 332.77379733879224 217.49516253565892 332.77379733879224 217.1676292705617 Q 332.77379733879224 216.84009600546443 333.10133060388944 216.18502947526997 Q 333.4288638689867 215.52996294507548 333.4288638689867 215.20242967997825 Q 333.4288638689867 214.87489641488102 333.75639713408395 214.5473631497838 Q 334.08393039918116 214.21982988468653 334.08393039918116 213.8922966195893 Q 334.08393039918116 213.56476335449207 334.08393039918116 213.2372300893948 Q 334.08393039918116 212.90969682429758 334.08393039918116 212.58216355920035 Q 334.08393039918116 212.25463029410312 334.08393039918116 211.9270970290059 Q 334.08393039918116 211.59956376390866 334.08393039918116 210.94449723371417 Q 334.08393039918116 210.2894307035197 334.08393039918116 209.96189743842245 Q 334.08393039918116 209.63436417332522 334.08393039918116 209.306830908228 Q 334.08393039918116 208.97929764313076 333.75639713408395 208.97929764313076 Q 333.4288638689867 208.97929764313076 333.10133060388944 208.65176437803353 Q 332.77379733879224 208.32423111293627 332.77379733879224 207.99669784783904 Q 332.77379733879224 207.66916458274181 332.44626407369503 207.66916458274181 Q 332.1187308085978 207.66916458274181 332.1187308085978 207.34163131764458 Q 332.1187308085978 207.01409805254735 331.7911975435005 206.6865647874501 Q 331.4636642784033 206.35903152235286 331.13613101330606 206.35903152235286 Q 330.8085977482088 206.35903152235286 330.4810644831116 206.03149825725563 Q 330.15353121801434 205.7039649921584 329.8259979529171 205.37643172706117 Q 329.4984646878199 205.04889846196392 329.1709314227227 205.04889846196392 Q 328.8433981576254 205.04889846196392 328.51586489252816 204.72136519686669 Q 328.1883316274309 204.39383193176945 327.86079836233364 204.0662986666722 Q 327.53326509723644 203.73876540157497 326.878198567042 203.41123213647774 Q 326.2231320368475 203.0836988713805 325.56806550665306 202.75616560628328 Q 324.91299897645854 202.42863234118605 324.5854657113613 202.42863234118605 Q 324.2579324462641 202.42863234118605 323.9303991811669 202.10109907608881 Q 323.6028659160696 201.77356581099156 323.27533265097236 201.77356581099156 Q 322.94779938587516 201.77356581099156 322.2927328556807 201.77356581099156 Q 321.6376663254862 201.77356581099156 321.3101330603889 201.77356581099156 Q 320.9825997952917 201.77356581099156 320 201.77356581099156 Q 319.0174002047083 201.77356581099156 318.6898669396111 201.77356581099156 Q 318.3623336745138 201.77356581099156 318.03480040941656 202.10109907608881 Q 317.70726714431936 202.42863234118605 317.0522006141249 202.75616560628328 Q 316.39713408393044 203.0836988713805 316.0696008188332 203.41123213647774 Q 315.7420675537359 203.73876540157497 315.08700102354146 204.0662986666722 Q 314.431934493347 204.39383193176945 313.77686796315254 205.04889846196392 Q 313.121801432958 205.7039649921584 312.13920163766636 206.03149825725563 Q 311.15660184237464 206.35903152235286 310.82906857727744 207.01409805254735 Q 310.5015353121802 207.66916458274181 309.84646878198566 207.99669784783904 Q 309.1914022517912 208.32423111293627 308.863868986694 208.65176437803353 Q 308.53633572159674 208.97929764313076 308.2088024564995 209.306830908228 Q 307.8812691914023 209.63436417332522 307.553735926305 209.96189743842245 Q 307.22620266120776 210.2894307035197 306.89866939611056 210.61696396861694 Q 306.5711361310133 210.94449723371417 306.5711361310133 211.27203049881143 Q 306.5711361310133 211.59956376390866 306.24360286591605 211.59956376390866 Q 305.91606960081884 211.59956376390866 305.91606960081884 211.9270970290059 Q 305.91606960081884 212.25463029410312 305.58853633572164 212.25463029410312 Q 305.2610030706244 212.25463029410312 304.9334698055271 212.58216355920035 Q 304.6059365404299 212.90969682429758 304.6059365404299 213.2372300893948 Q 304.6059365404299 213.56476335449207 304.27840327533266 213.56476335449207 Q 303.9508700102354 213.56476335449207 303.6233367451382 213.8922966195893 Q 303.29580348004095 214.21982988468653 302.9682702149437 214.5473631497838 Q 302.6407369498465 214.87489641488102 302.3132036847493 215.20242967997825 Q 301.985670419652 215.52996294507548 301.65813715455477 215.52996294507548 Q 301.33060388945756 215.52996294507548 301.0030706243603 215.8574962101727 Q 300.67553735926305 216.18502947526997 300.34800409416584 216.18502947526997 Q 300.0204708290686 216.18502947526997 299.6929375639713 216.5125627403672 Q 299.3654042988741 216.84009600546443 299.0378710337769 216.84009600546443 Q 298.71033776867966 216.84009600546443 298.3828045035824 216.84009600546443 Q 298.05527123848515 216.84009600546443 297.7277379733879 217.1676292705617 Q 297.4002047082907 217.49516253565892 297.0726714431935 217.49516253565892 Q 296.7451381780962 217.49516253565892 295.7625383828045 217.82269580075615 Q 294.7799385875128 218.15022906585338 294.1248720573183 218.15022906585338 Q 293.46980552712387 218.15022906585338 292.81473899692935 218.15022906585338 Q 292.1596724667349 218.15022906585338 291.8321392016377 218.15022906585338 Q 291.50460593654043 218.15022906585338 290.84953940634597 218.15022906585338 Q 290.1944728761515 218.15022906585338 289.539406345957 218.15022906585338 Q 288.88433981576253 218.15022906585338 288.22927328556807 218.4777623309506 Q 287.5742067553736 218.80529559604784 286.26407369498463 219.13282886114507 Q 284.9539406345957 219.46036212624233 284.29887410440125 219.46036212624233 Q 283.6438075742068 219.46036212624233 282.66120777891507 219.46036212624233 Q 281.67860798362335 219.46036212624233 281.3510747185261 219.46036212624233 Q 281.0235414534289 219.46036212624233 280.69600818833163 219.78789539133956 Q 280.3684749232344 220.1154286564368 279.7134083930399 220.1154286564368 Q 279.05834186284545 220.1154286564368 278.73080859774825 220.1154286564368 Q 278.403275332651 220.1154286564368 277.7482088024565 220.1154286564368 Q 277.093142272262 220.1154286564368 276.43807574206755 220.1154286564368 Q 275.7830092118731 220.1154286564368 275.4554759467759 220.1154286564368 Q 275.12794268167863 220.1154286564368 274.4728761514841 220.1154286564368 Q 273.81780962128965 220.1154286564368 273.49027635619245 220.1154286564368 Q 273.1627430910952 220.1154286564368 272.83520982599794 220.1154286564368 Q 272.50767656090073 220.1154286564368 271.8526100307063 220.1154286564368 Q 271.19754350051176 220.1154286564368 270.8700102354145 220.1154286564368 Q 270.5424769703173 220.1154286564368 270.2149437052201 220.1154286564368 Q 269.88741044012284 220.1154286564368 268.9048106448311 220.1154286564368 Q 267.9222108495394 220.1154286564368 267.26714431934494 220.1154286564368 Q 266.6120777891505 220.1154286564368 265.62947799385876 220.1154286564368 Q 264.64687819856704 220.1154286564368 263.9918116683726 220.1154286564368 Q 263.3367451381781 220.1154286564368 262.6816786079836 220.1154286564368 Q 262.02661207778914 220.1154286564368 261.0440122824974 220.1154286564368 Q 260.06141248720576 220.1154286564368 259.40634595701124 220.1154286564368 Q 258.7512794268168 220.1154286564368 257.76867963152506 220.1154286564368 Q 256.7860798362334 220.1154286564368 256.45854657113614 220.1154286564368 Q 256.1310133060389 220.1154286564368 255.80348004094165 220.1154286564368 Q 255.47594677584442 220.1154286564368 255.1484135107472 220.1154286564368 Q 254.82088024564996 220.1154286564368 254.49334698055273 220.1154286564368 Q 254.1658137154555 220.1154286564368 253.83828045035827 220.1154286564368 Q 253.51074718526104 220.1154286564368 253.18321392016378 220.1154286564368 Q 252.85568065506652 220.1154286564368 252.5281473899693 220.1154286564368 Q 252.20061412487206 220.1154286564368 251.5455475946776 220.1154286564368 Q 250.89048106448314 220.1154286564368 249.90788126919142 220.1154286564368 Q 248.9252814738997 220.1154286564368 248.27021494370524 220.1154286564368 Q 247.61514841351078 220.1154286564368 247.28761514841352 220.1154286564368 Q 246.96008188331626 220.1154286564368 246.63254861821903 220.1154286564368 Q 246.3050153531218 220.1154286564368 245.97748208802457 220.1154286564368 Q 245.64994882292734 220.1154286564368 244.99488229273285 220.1154286564368 Q 244.33981576253836 220.1154286564368 244.01228249744113 220.1154286564368 Q 243.6847492323439 220.1154286564368 243.35721596724667 220.1154286564368 Q 243.02968270214944 220.1154286564368 242.7021494370522 220.1154286564368 Q 242.37461617195498 220.1154286564368 241.7195496417605 220.1154286564368 Q 241.064483111566 220.1154286564368 240.73694984646878 220.1154286564368 Q 240.40941658137154 220.1154286564368 240.08188331627431 220.1154286564368 Q 239.75435005117708 220.1154286564368 239.42681678607985 220.1154286564368 Q 239.09928352098262 220.1154286564368 238.77175025588537 220.1154286564368 Q 238.4442169907881 220.1154286564368 238.11668372569088 220.1154286564368 Q 237.78915046059365 220.1154286564368 237.13408393039919 220.1154286564368 Q 236.47901740020473 220.1154286564368 236.1514841351075 219.78789539133956 Q 235.82395087001026 219.46036212624233 235.496417604913 219.46036212624233 Q 235.16888433981575 219.46036212624233 234.84135107471852 219.46036212624233 Q 234.5138178096213 219.46036212624233 234.18628454452406 219.13282886114507 Q 233.85875127942683 218.80529559604784 233.5312180143296 218.80529559604784 Q 233.20368474923237 218.80529559604784 232.87615148413514 218.80529559604784 Q 232.5486182190379 218.80529559604784 232.22108495394065 218.80529559604784 Q 231.8935516888434 218.80529559604784 231.56601842374616 218.80529559604784 Q 231.23848515864893 218.80529559604784 230.9109518935517 218.80529559604784 Q 230.58341862845447 218.80529559604784 230.25588536335724 218.80529559604784 Q 229.92835209826 218.80529559604784 229.60081883316275 218.4777623309506 Q 229.2732855680655 218.15022906585338 228.94575230296826 218.15022906585338 Q 228.61821903787103 218.15022906585338 228.2906857727738 218.15022906585338 Q 227.96315250767657 218.15022906585338 227.63561924257934 218.15022906585338 Q 227.3080859774821 218.15022906585338 226.98055271238488 218.15022906585338 Q 226.65301944728765 218.15022906585338 225.99795291709316 218.15022906585338 Q 225.34288638689867 218.15022906585338 225.01535312180144 218.15022906585338 Q 224.6878198567042 218.15022906585338 224.6878198567042 217.82269580075615 Q 224.6878198567042 217.49516253565892 224.36028659160698 217.49516253565892 Q 224.03275332650975 217.49516253565892 223.7052200614125 217.49516253565892 Q 223.37768679631523 217.49516253565892 223.050153531218 217.49516253565892 Q 222.72262026612077 217.49516253565892 222.39508700102354 217.49516253565892 Q 222.0675537359263 217.49516253565892 222.0675537359263 217.1676292705617 Q 222.0675537359263 216.84009600546443 222.0675537359263 216.5125627403672 Q 222.0675537359263 216.18502947526997 222.0675537359263 215.8574962101727 Q 222.0675537359263 215.52996294507548 221.74002047082908 215.20242967997825 L 221.40548720573184 214.86789641488102" stroke-linecap="round" />
</g>
</svg>