<?xml version="1.0" encoding="UTF-8" standalone="no" ?>
<!DOCTYPE svg PUBLIC "-//W3C//DTD SVG 1.1//EN" "http://www.w3.org/Graphics/SVG/1.1/DTD/svg11.dtd">
<svg xmlns="http://www.w3.org/2000/svg" xmlns:xlink="http://www.w3.org/1999/xlink" version="1.1" width="288.9318082191779" height="90.30167123287663" viewBox="174.2209431801727 353.26317770059075 288.9318082191779 90.30167123287663" xml:space="preserve">
<desc>Created with Fabric.js 4.6.0</desc>
<defs>
</defs>
<g transform="matrix(1 0 0 1 185.81 398.41)" id="2enbMQP5O4P1ppMSSShtU"  >
<path style="stroke: rgb(0,19,255); stroke-width: 7; stroke-dasharray: none; stroke-linecap: round; stroke-dashoffset: 0; stroke-linejoin: round; stroke-miterlimit: 10; fill: none; fill-rule: nonzero; opacity: 1;" vector-effect="non-scaling-stroke"  transform=" translate(-185.81, -398.41)" d="M 188.89232674181653 366.5576982485359 Q 188.89232674181653 366.56469824853593 188.89232674181653 366.90716400196055 Q 188.89232674181653 367.2496297553852 188.89232674181653 367.9345612622345 Q 188.89232674181653 368.6194927690839 188.5498609883919 369.3044242759332 Q 188.2073952349673 369.98935578278247 188.2073952349673 371.01675304305644 Q 188.2073952349673 372.0441503033304 188.2073952349673 372.3866160567551 Q 188.2073952349673 372.72908181017976 188.2073952349673 373.41401331702906 Q 188.2073952349673 374.09894482387836 187.86492948154262 374.44141057730303 Q 187.52246372811794 374.7838763307277 187.52246372811794 375.468807837577 Q 187.52246372811794 376.1537393444263 187.52246372811794 376.496205097851 Q 187.52246372811794 376.83867085127565 187.52246372811794 377.1811366047003 Q 187.52246372811794 377.523602358125 187.52246372811794 377.8660681115496 Q 187.52246372811794 378.20853386497424 187.52246372811794 378.8934653718236 Q 187.52246372811794 379.57839687867295 187.17999797469326 380.26332838552224 Q 186.8375322212686 380.94825989237154 186.8375322212686 381.2907256457962 Q 186.8375322212686 381.6331913992209 186.8375322212686 382.3181229060702 Q 186.8375322212686 383.0030544129195 186.8375322212686 383.34552016634416 Q 186.8375322212686 383.68798591976883 186.8375322212686 384.03045167319345 Q 186.8375322212686 384.3729174266181 186.8375322212686 385.0578489334674 Q 186.8375322212686 385.7427804403168 186.8375322212686 386.0852461937414 Q 186.8375322212686 386.427711947166 186.49506646784397 386.7701777005907 Q 186.15260071441935 387.11264345401537 186.15260071441935 387.79757496086467 Q 186.15260071441935 388.48250646771396 186.15260071441935 389.1674379745633 Q 186.15260071441935 389.85236948141267 186.15260071441935 390.19483523483734 Q 186.15260071441935 390.537300988262 186.15260071441935 390.87976674168664 Q 186.15260071441935 391.22223249511126 186.15260071441935 391.9071640019606 Q 186.15260071441935 392.59209550880996 186.15260071441935 393.27702701565926 Q 186.15260071441935 393.96195852250855 186.15260071441935 394.30442427593323 Q 186.15260071441935 394.6468900293579 186.15260071441935 395.3318215362072 Q 186.15260071441935 396.0167530430565 186.15260071441935 396.3592187964812 Q 186.15260071441935 396.70168454990585 186.15260071441935 397.38661605675514 Q 186.15260071441935 398.07154756360444 186.15260071441935 398.75647907045374 Q 186.15260071441935 399.44141057730303 186.15260071441935 399.7838763307277 Q 186.15260071441935 400.1263420841524 185.81013496099467 400.46880783757706 Q 185.46766920757 400.81127359100174 185.46766920757 401.49620509785103 Q 185.46766920757 402.1811366047003 185.46766920757 402.8660681115496 Q 185.46766920757 403.5509996183989 185.12520345414532 404.23593112524827 Q 184.78273770072065 404.9208626320976 184.78273770072065 405.6057941389469 Q 184.78273770072065 406.2907256457962 184.78273770072065 406.6331913992209 Q 184.78273770072065 406.97565715264557 184.78273770072065 407.66058865949486 Q 184.78273770072065 408.34552016634416 184.78273770072065 408.68798591976883 Q 184.78273770072065 409.0304516731935 184.78273770072065 409.37291742661813 Q 184.78273770072065 409.71538318004275 184.44027194729603 410.4003146868921 Q 184.0978061938714 411.08524619374145 184.0978061938714 411.4277119471661 Q 184.0978061938714 411.7701777005907 184.0978061938714 412.11264345401537 Q 184.0978061938714 412.45510920744005 184.0978061938714 412.7975749608647 Q 184.0978061938714 413.1400407142894 184.0978061938714 413.8249722211387 Q 184.0978061938714 414.509903727988 184.0978061938714 414.85236948141267 Q 184.0978061938714 415.19483523483734 184.0978061938714 415.87976674168664 Q 184.0978061938714 416.56469824853593 184.0978061938714 417.24962975538523 Q 184.0978061938714 417.9345612622345 184.0978061938714 418.2770270156592 Q 184.0978061938714 418.6194927690839 184.0978061938714 418.96195852250855 Q 184.0978061938714 419.30442427593323 184.0978061938714 419.64689002935785 Q 184.0978061938714 419.98935578278247 184.0978061938714 420.33182153620714 Q 184.0978061938714 420.6742872896318 183.75534044044673 421.0167530430565 Q 183.41287468702205 421.3592187964812 183.41287468702205 422.04415030333047 Q 183.41287468702205 422.72908181017976 183.41287468702205 423.07154756360444 Q 183.41287468702205 423.4140133170291 183.41287468702205 423.75647907045374 Q 183.41287468702205 424.09894482387836 183.41287468702205 424.44141057730303 Q 183.41287468702205 424.7838763307277 183.41287468702205 425.46880783757706 Q 183.41287468702205 426.1537393444264 183.41287468702205 427.1811366047004 Q 183.41287468702205 428.20853386497436 183.07040893359738 429.2359311252483 L 182.7209431801727 430.2703283855223" stroke-linecap="round" />
</g>
<g transform="matrix(1 0 0 1 200.88 380.61)" id="n1MCJYyyC-QmqFgoiKqDa"  >
<path style="stroke: rgb(0,19,255); stroke-width: 7; stroke-dasharray: none; stroke-linecap: round; stroke-dashoffset: 0; stroke-linejoin: round; stroke-miterlimit: 10; fill: none; fill-rule: nonzero; opacity: 1;" vector-effect="non-scaling-stroke"  transform=" translate(-200.88, -380.61)" d="M 188.20039523496706 368.6264927690838 Q 188.20739523496707 368.6194927690838 188.54986098839169 368.2770270156592 Q 188.8923267418163 367.9345612622345 189.23479249524098 367.59209550880985 Q 189.57725824866566 367.2496297553852 189.91972400209033 366.9071640019605 Q 190.262189755515 366.5646982485359 190.60465550893963 366.5646982485359 Q 190.94712126236425 366.5646982485359 191.6320527692136 366.22223249511126 Q 192.31698427606295 365.8797667416866 192.65945002948757 365.8797667416866 Q 193.0019157829122 365.8797667416866 193.34438153633687 365.8797667416866 Q 193.68684728976154 365.8797667416866 193.68684728976154 365.5373009882619 Q 193.68684728976154 365.1948352348372 194.02931304318622 365.1948352348372 Q 194.3717787966109 365.1948352348372 195.0567103034602 365.1948352348372 Q 195.7416418103095 365.1948352348372 196.08410756373416 365.1948352348372 Q 196.42657331715884 365.1948352348372 197.11150482400814 364.85236948141255 Q 197.79643633085743 364.50990372798793 198.1389020842821 364.50990372798793 Q 198.48136783770678 364.50990372798793 198.8238335911314 364.50990372798793 Q 199.16629934455602 364.50990372798793 199.85123085140538 364.50990372798793 Q 200.53616235825473 364.50990372798793 200.87862811167935 364.50990372798793 Q 201.22109386510397 364.50990372798793 201.90602537195332 364.50990372798793 Q 202.59095687880267 364.50990372798793 202.93342263222735 364.85236948141255 Q 203.27588838565202 365.1948352348372 203.61835413907664 365.1948352348372 Q 203.96081989250126 365.1948352348372 204.64575139935062 365.1948352348372 Q 205.33068290619997 365.1948352348372 206.35808016647394 365.8797667416866 Q 207.3854774267479 366.5646982485359 208.41287468702188 367.2496297553852 Q 209.44027194729586 367.9345612622345 209.78273770072047 368.6194927690838 Q 210.1252034541451 369.3044242759331 210.46766920756977 369.6468900293578 Q 210.81013496099445 369.98935578278247 211.15260071441912 370.33182153620714 Q 211.4950664678438 370.67428728963176 211.83753222126842 371.35921879648106 Q 212.17999797469304 372.0441503033304 212.17999797469304 372.72908181017976 Q 212.17999797469304 373.41401331702906 212.5224637281177 374.09894482387836 Q 212.8649294815424 374.78387633072765 212.8649294815424 375.46880783757695 Q 212.8649294815424 376.1537393444263 212.8649294815424 376.496205097851 Q 212.8649294815424 376.8386708512756 212.8649294815424 377.18113660470027 Q 212.8649294815424 377.52360235812495 212.8649294815424 378.20853386497424 Q 212.8649294815424 378.89346537182354 213.20739523496707 379.9208626320975 Q 213.54986098839174 380.9482598923715 213.54986098839174 381.97565715264545 Q 213.54986098839174 383.0030544129194 213.54986098839174 383.6879859197687 Q 213.54986098839174 384.3729174266181 213.54986098839174 385.0578489334674 Q 213.54986098839174 385.7427804403167 213.54986098839174 386.7701777005907 Q 213.54986098839174 387.79757496086467 213.54986098839174 388.48250646771396 Q 213.54986098839174 389.16743797456326 213.54986098839174 390.1948352348372 Q 213.54986098839174 391.2222324951112 213.54986098839174 391.5646982485359 Q 213.54986098839174 391.90716400196055 213.20739523496707 392.24962975538523 Q 212.8649294815424 392.5920955088099 212.8649294815424 392.9345612622345 Q 212.8649294815424 393.27702701565914 212.1799979746931 393.6194927690838 Q 211.4950664678438 393.9619585225085 211.15260071441912 393.9619585225085 Q 210.81013496099445 393.9619585225085 210.46766920756977 394.3044242759332 Q 210.1252034541451 394.64689002935785 209.4402719472958 394.98935578278247 Q 208.7553404404465 395.3318215362071 208.0704089335972 395.67428728963176 Q 207.3854774267479 396.01675304305644 206.70054591989856 396.01675304305644 Q 206.0156144130492 396.01675304305644 205.6731486596246 396.01675304305644 Q 205.33068290619997 396.01675304305644 204.9882171527753 396.01675304305644 Q 204.64575139935062 396.01675304305644 204.30328564592594 396.3592187964811 Q 203.96081989250126 396.7016845499058 203.61835413907664 396.7016845499058 Q 203.27588838565202 396.7016845499058 202.93342263222735 396.7016845499058 Q 202.59095687880267 396.7016845499058 202.248491125378 396.7016845499058 Q 201.90602537195332 396.7016845499058 201.22109386510402 396.7016845499058 Q 200.53616235825473 396.7016845499058 200.19369660483005 396.7016845499058 Q 199.85123085140538 396.7016845499058 199.5087650979807 396.7016845499058 Q 199.16629934455602 396.7016845499058 198.8238335911314 396.7016845499058 Q 198.48136783770678 396.7016845499058 197.79643633085743 396.7016845499058 Q 197.11150482400808 396.7016845499058 196.76903907058346 396.7016845499058 Q 196.42657331715884 396.7016845499058 196.08410756373416 396.7016845499058 Q 195.7416418103095 396.7016845499058 195.3991760568848 396.7016845499058 Q 195.05671030346014 396.7016845499058 194.71424455003552 396.7016845499058 Q 194.3717787966109 396.7016845499058 194.02931304318622 396.7016845499058 Q 193.68684728976154 396.7016845499058 193.34438153633687 396.7016845499058 Q 193.0019157829122 396.7016845499058 192.65945002948757 396.7016845499058 Q 192.31698427606295 396.7016845499058 191.97451852263828 396.7016845499058 Q 191.6320527692136 396.7016845499058 191.28958701578892 396.7016845499058 Q 190.94712126236425 396.7016845499058 190.60465550893963 396.7016845499058 Q 190.262189755515 396.7016845499058 189.91972400209033 396.7016845499058 Q 189.57725824866566 396.7016845499058 188.89232674181636 396.7016845499058 L 188.20039523496706 396.7016845499058" stroke-linecap="round" />
</g>
<g transform="matrix(1 0 0 1 239.58 400.12)" id="zesai2lUmidEcwCJEUutL"  >
<path style="stroke: rgb(0,19,255); stroke-width: 7; stroke-dasharray: none; stroke-linecap: round; stroke-dashoffset: 0; stroke-linejoin: round; stroke-miterlimit: 10; fill: none; fill-rule: nonzero; opacity: 1;" vector-effect="non-scaling-stroke"  transform=" translate(-239.58, -400.12)" d="M 232.04301167332324 367.24262975538517 Q 232.04301167332324 367.2496297553852 232.04301167332324 368.6194927690838 Q 232.04301167332324 369.98935578278247 232.04301167332324 371.35921879648106 Q 232.04301167332324 372.7290818101797 232.04301167332324 373.414013317029 Q 232.04301167332324 374.09894482387836 232.04301167332324 375.1263420841523 Q 232.04301167332324 376.1537393444263 231.70054591989856 376.83867085127565 Q 231.35808016647388 377.52360235812495 231.35808016647388 378.20853386497424 Q 231.35808016647388 378.89346537182354 231.35808016647388 379.9208626320975 Q 231.35808016647388 380.9482598923715 231.35808016647388 381.6331913992208 Q 231.35808016647388 382.31812290607013 231.35808016647388 382.6605886594948 Q 231.35808016647388 383.0030544129194 231.35808016647388 383.6879859197687 Q 231.35808016647388 384.3729174266181 231.35808016647388 385.0578489334674 Q 231.35808016647388 385.7427804403167 231.35808016647388 386.427711947166 Q 231.35808016647388 387.1126434540153 231.35808016647388 387.7975749608646 Q 231.35808016647388 388.48250646771396 231.0156144130492 389.1674379745633 Q 230.67314865962453 389.8523694814126 230.67314865962453 390.5373009882619 Q 230.67314865962453 391.2222324951112 230.67314865962453 391.90716400196055 Q 230.67314865962453 392.5920955088099 230.67314865962453 392.9345612622345 Q 230.67314865962453 393.27702701565914 230.67314865962453 394.3044242759331 Q 230.67314865962453 395.3318215362071 230.67314865962453 396.01675304305644 Q 230.67314865962453 396.7016845499058 230.67314865962453 397.72908181017976 Q 230.67314865962453 398.75647907045374 230.67314865962453 399.09894482387836 Q 230.67314865962453 399.441410577303 230.67314865962453 400.1263420841523 Q 230.67314865962453 400.8112735910017 230.67314865962453 401.1537393444263 Q 230.67314865962453 401.4962050978509 230.67314865962453 402.18113660470027 Q 230.67314865962453 402.8660681115496 230.3306829061999 403.5509996183989 Q 229.9882171527753 404.2359311252482 229.9882171527753 404.9208626320975 Q 229.9882171527753 405.6057941389468 229.9882171527753 405.9482598923715 Q 229.9882171527753 406.29072564579616 229.9882171527753 406.63319139922083 Q 229.9882171527753 406.9756571526455 229.9882171527753 407.6605886594948 Q 229.9882171527753 408.3455201663441 229.9882171527753 409.0304516731934 Q 229.9882171527753 409.7153831800427 229.9882171527753 410.40031468689205 Q 229.9882171527753 411.0852461937414 229.9882171527753 411.7701777005907 Q 229.9882171527753 412.45510920744 229.9882171527753 413.1400407142893 Q 229.9882171527753 413.8249722211386 229.64575139935062 414.50990372798793 Q 229.30328564592594 415.1948352348373 229.30328564592594 415.8797667416866 Q 229.30328564592594 416.5646982485359 229.30328564592594 417.59209550880985 Q 229.30328564592594 418.6194927690838 229.30328564592594 418.9619585225085 Q 229.30328564592594 419.3044242759332 228.96081989250126 419.98935578278247 Q 228.6183541390766 420.67428728963176 228.6183541390766 421.35921879648106 Q 228.6183541390766 422.04415030333035 228.27588838565197 422.7290818101797 Q 227.93342263222735 423.41401331702906 227.93342263222735 425.1263420841523 Q 227.93342263222735 426.8386708512756 227.93342263222735 427.86606811154957 Q 227.93342263222735 428.89346537182354 227.59095687880267 429.5783968786729 Q 227.248491125378 430.26332838552224 227.248491125378 430.60579413894686 Q 227.248491125378 430.9482598923715 227.248491125378 431.29072564579616 Q 227.248491125378 431.63319139922083 227.248491125378 431.9756571526455 Q 227.248491125378 432.3181229060702 226.90602537195332 432.3181229060702 Q 226.56355961852864 432.3181229060702 226.56355961852864 432.6605886594948 Q 226.56355961852864 433.0030544129194 226.90602537195332 433.0030544129194 Q 227.248491125378 433.0030544129194 228.27588838565197 432.6605886594948 Q 229.30328564592594 432.3181229060702 230.3306829061999 432.3181229060702 Q 231.35808016647388 432.3181229060702 232.38547742674785 431.9756571526455 Q 233.41287468702183 431.63319139922083 234.09780619387112 431.63319139922083 Q 234.78273770072042 431.63319139922083 235.46766920756977 431.29072564579616 Q 236.15260071441912 430.9482598923715 236.83753222126842 430.9482598923715 Q 237.5224637281177 430.9482598923715 238.207395234967 430.9482598923715 Q 238.8923267418163 430.9482598923715 239.57725824866566 430.9482598923715 Q 240.262189755515 430.9482598923715 240.60465550893963 430.9482598923715 Q 240.94712126236425 430.9482598923715 241.28958701578892 430.9482598923715 Q 241.6320527692136 430.9482598923715 241.97451852263828 430.9482598923715 Q 242.31698427606295 430.9482598923715 243.00191578291225 430.9482598923715 Q 243.68684728976154 430.9482598923715 244.37177879661084 430.9482598923715 Q 245.05671030346014 430.9482598923715 245.7416418103095 430.9482598923715 Q 246.42657331715884 430.9482598923715 246.76903907058346 430.9482598923715 Q 247.11150482400808 430.9482598923715 247.45397057743276 430.9482598923715 Q 247.79643633085743 430.9482598923715 248.1389020842821 430.9482598923715 Q 248.48136783770678 430.9482598923715 248.82383359113146 430.9482598923715 Q 249.16629934455614 430.9482598923715 249.50876509798076 430.9482598923715 Q 249.85123085140538 430.9482598923715 250.19369660483005 430.9482598923715 Q 250.53616235825473 430.9482598923715 250.8786281116794 430.9482598923715 Q 251.22109386510408 430.9482598923715 251.90602537195338 430.9482598923715 L 252.59795687880268 430.9482598923715" stroke-linecap="round" />
</g>
<g transform="matrix(1 0 0 1 270.74 398.41)" id="OTb5abCRBzOkFae04mxTq"  >
<path style="stroke: rgb(0,19,255); stroke-width: 7; stroke-dasharray: none; stroke-linecap: round; stroke-dashoffset: 0; stroke-linejoin: round; stroke-miterlimit: 10; fill: none; fill-rule: nonzero; opacity: 1;" vector-effect="non-scaling-stroke"  transform=" translate(-270.74, -398.41)" d="M 277.248491125378 364.5029037279879 Q 277.248491125378 364.50990372798793 277.248491125378 365.1948352348372 Q 277.248491125378 365.8797667416866 277.248491125378 366.22223249511126 Q 277.248491125378 366.5646982485359 277.248491125378 367.59209550880985 Q 277.248491125378 368.6194927690838 277.248491125378 369.3044242759331 Q 277.248491125378 369.98935578278247 277.248491125378 371.01675304305644 Q 277.248491125378 372.0441503033304 277.248491125378 373.414013317029 Q 277.248491125378 374.78387633072765 276.5635596185287 375.8112735910016 Q 275.8786281116794 376.8386708512756 275.8786281116794 377.86606811154957 Q 275.8786281116794 378.89346537182354 275.5361623582547 379.57839687867283 Q 275.19369660483005 380.2633283855222 274.8512308514054 381.29072564579616 Q 274.5087650979807 382.31812290607013 274.5087650979807 383.3455201663441 Q 274.5087650979807 384.3729174266181 274.1662993445561 385.40031468689205 Q 273.82383359113146 386.427711947166 273.4813678377068 387.7975749608646 Q 273.1389020842821 389.16743797456326 273.1389020842821 390.1948352348372 Q 273.1389020842821 391.2222324951112 272.79643633085743 391.90716400196055 Q 272.45397057743276 392.5920955088099 272.45397057743276 393.2770270156592 Q 272.45397057743276 393.9619585225085 272.11150482400814 394.6468900293578 Q 271.7690390705835 395.3318215362071 271.7690390705835 396.35921879648106 Q 271.7690390705835 397.38661605675503 271.42657331715884 398.0715475636044 Q 271.08410756373416 398.75647907045374 270.7416418103095 400.1263420841523 Q 270.3991760568848 401.4962050978509 270.3991760568848 402.5236023581249 Q 270.3991760568848 403.55099961839886 270.0567103034602 404.57839687867283 Q 269.7142445500356 405.6057941389468 269.3717787966109 406.6331913992208 Q 269.0293130431862 407.66058865949475 269.0293130431862 408.0030544129194 Q 269.0293130431862 408.3455201663441 269.0293130431862 409.0304516731934 Q 269.0293130431862 409.7153831800427 268.68684728976154 410.40031468689205 Q 268.34438153633687 411.0852461937414 268.00191578291225 411.427711947166 Q 267.65945002948763 411.77017770059064 267.65945002948763 412.1126434540153 Q 267.65945002948763 412.45510920744 267.65945002948763 412.79757496086467 Q 267.65945002948763 413.14004071428934 267.31698427606295 413.82497222113864 Q 266.9745185226383 414.50990372798793 266.6320527692136 415.5373009882619 Q 266.2895870157889 416.5646982485359 266.2895870157889 417.2496297553852 Q 266.2895870157889 417.93456126223447 265.9471212623643 418.96195852250844 Q 265.6046555089397 419.9893557827824 265.262189755515 420.3318215362071 Q 264.91972400209033 420.67428728963176 264.91972400209033 421.01675304305644 Q 264.91972400209033 421.3592187964811 264.91972400209033 421.70168454990574 Q 264.91972400209033 422.04415030333035 264.91972400209033 422.38661605675503 Q 264.91972400209033 422.7290818101797 264.91972400209033 423.414013317029 Q 264.91972400209033 424.0989448238783 264.57725824866566 424.441410577303 Q 264.234792495241 424.78387633072765 264.234792495241 425.1263420841523 Q 264.234792495241 425.468807837577 264.234792495241 425.8112735910017 Q 264.234792495241 426.15373934442636 264.234792495241 426.496205097851 Q 264.234792495241 426.8386708512756 264.234792495241 427.18113660470027 Q 264.234792495241 427.52360235812495 264.234792495241 427.8660681115496 Q 264.234792495241 428.2085338649743 264.234792495241 428.5509996183989 Q 264.234792495241 428.89346537182354 264.234792495241 429.2359311252482 Q 264.234792495241 429.5783968786729 264.234792495241 429.92086263209757 Q 264.234792495241 430.26332838552224 264.234792495241 430.60579413894686 Q 264.234792495241 430.9482598923715 264.234792495241 431.63319139922083 L 264.234792495241 432.3251229060702" stroke-linecap="round" />
</g>
<g transform="matrix(1 0 0 1 285.47 399.44)" id="5PX2hWGnDKAl0F7NzgrXK"  >
<path style="stroke: rgb(0,19,255); stroke-width: 7; stroke-dasharray: none; stroke-linecap: round; stroke-dashoffset: 0; stroke-linejoin: round; stroke-miterlimit: 10; fill: none; fill-rule: nonzero; opacity: 1;" vector-effect="non-scaling-stroke"  transform=" translate(-285.47, -399.44)" d="M 280.67314865962453 363.81797222113863 Q 280.67314865962453 363.82497222113864 280.67314865962453 364.50990372798793 Q 280.67314865962453 365.1948352348372 280.67314865962453 366.2222324951112 Q 280.67314865962453 367.2496297553852 280.67314865962453 368.27702701565914 Q 280.67314865962453 369.3044242759331 280.67314865962453 370.67428728963176 Q 280.67314865962453 372.0441503033304 281.0156144130492 373.414013317029 Q 281.3580801664739 374.78387633072765 281.70054591989856 376.1537393444263 Q 282.04301167332324 377.52360235812495 282.04301167332324 379.5783968786729 Q 282.04301167332324 381.63319139922083 282.04301167332324 383.6879859197688 Q 282.04301167332324 385.7427804403167 282.38547742674785 387.45510920744 Q 282.7279431801725 389.16743797456326 282.7279431801725 391.2222324951112 Q 282.7279431801725 393.27702701565914 283.07040893359715 394.98935578278247 Q 283.4128746870218 396.7016845499058 284.0978061938711 398.0715475636044 Q 284.7827377007204 399.441410577303 285.1252034541451 401.4962050978509 Q 285.46766920756977 403.55099961839886 285.46766920756977 404.9208626320975 Q 285.46766920756977 406.29072564579616 285.81013496099445 407.6605886594948 Q 286.1526007144191 409.03045167319345 286.1526007144191 410.0578489334674 Q 286.1526007144191 411.0852461937414 286.49506646784374 412.11264345401537 Q 286.83753222126836 413.14004071428934 286.83753222126836 414.1674379745633 Q 286.83753222126836 415.1948352348373 286.83753222126836 415.8797667416866 Q 286.83753222126836 416.5646982485359 286.83753222126836 417.59209550880985 Q 286.83753222126836 418.6194927690838 286.83753222126836 418.9619585225085 Q 286.83753222126836 419.3044242759332 287.17999797469304 419.98935578278247 Q 287.5224637281177 420.67428728963176 287.5224637281177 421.35921879648106 Q 287.5224637281177 422.04415030333035 287.5224637281177 422.7290818101797 Q 287.5224637281177 423.41401331702906 287.5224637281177 424.09894482387836 Q 287.5224637281177 424.78387633072765 287.8649294815424 425.468807837577 Q 288.20739523496707 426.15373934442636 288.20739523496707 426.496205097851 Q 288.20739523496707 426.8386708512756 288.20739523496707 427.18113660470027 Q 288.20739523496707 427.52360235812495 288.20739523496707 428.20853386497424 Q 288.20739523496707 428.89346537182354 288.20739523496707 429.2359311252482 Q 288.20739523496707 429.5783968786729 288.20739523496707 429.92086263209757 Q 288.20739523496707 430.26332838552224 288.20739523496707 430.60579413894686 Q 288.20739523496707 430.9482598923715 288.20739523496707 431.29072564579616 Q 288.20739523496707 431.63319139922083 288.5498609883917 431.63319139922083 Q 288.8923267418163 431.63319139922083 288.8923267418163 431.9756571526455 Q 288.8923267418163 432.3181229060702 288.8923267418163 432.6605886594948 Q 288.8923267418163 433.0030544129194 288.8923267418163 433.3455201663441 Q 288.8923267418163 433.6879859197688 289.234792495241 434.03045167319345 Q 289.57725824866566 434.37291742661813 289.91972400209033 434.71538318004275 L 290.269189755515 435.0648489334674" stroke-linecap="round" />
</g>
<g transform="matrix(1 0 0 1 275.54 409.72)" id="PicUnu-lcezMgjHFt2i0t"  >
<path style="stroke: rgb(0,19,255); stroke-width: 7; stroke-dasharray: none; stroke-linecap: round; stroke-dashoffset: 0; stroke-linejoin: round; stroke-miterlimit: 10; fill: none; fill-rule: nonzero; opacity: 1;" vector-effect="non-scaling-stroke"  transform=" translate(-275.54, -409.72)" d="M 262.8579294815424 410.40031468689205 Q 262.8649294815424 410.40031468689205 263.20739523496707 410.40031468689205 Q 263.54986098839174 410.40031468689205 264.23479249524104 410.40031468689205 Q 264.91972400209033 410.40031468689205 265.262189755515 410.40031468689205 Q 265.6046555089397 410.40031468689205 266.63205276921366 410.40031468689205 Q 267.65945002948763 410.40031468689205 269.0293130431862 410.05784893346737 Q 270.3991760568848 409.7153831800427 272.11150482400814 409.3729174266181 Q 273.82383359113146 409.03045167319345 278.61835413907664 409.03045167319345 Q 283.4128746870218 409.03045167319345 284.0978061938711 409.03045167319345 Q 284.7827377007204 409.03045167319345 285.46766920756977 409.03045167319345 Q 286.1526007144191 409.03045167319345 286.49506646784374 409.03045167319345 Q 286.83753222126836 409.03045167319345 287.5224637281177 409.03045167319345 L 288.21439523496707 409.03045167319345" stroke-linecap="round" />
</g>
<g transform="matrix(1 0 0 1 315.27 382.96)" id="TkKrvsk0ltaC3cEmgMMrX"  >
<path style="stroke: rgb(0,19,255); stroke-width: 7; stroke-dasharray: none; stroke-linecap: round; stroke-dashoffset: 0; stroke-linejoin: round; stroke-miterlimit: 10; fill: none; fill-rule: nonzero; opacity: 1;" vector-effect="non-scaling-stroke"  transform=" translate(-315.27, -382.96)" d="M 299.16629934455614 365.8727667416866 Q 299.16629934455614 365.8797667416866 299.16629934455614 366.22223249511126 Q 299.16629934455614 366.5646982485359 299.16629934455614 367.59209550880985 Q 299.16629934455614 368.6194927690838 299.50876509798076 369.6468900293578 Q 299.8512308514054 370.67428728963176 299.8512308514054 372.0441503033304 Q 299.8512308514054 373.41401331702906 300.5361623582547 374.7838763307277 Q 301.2210938651041 376.1537393444263 301.2210938651041 377.5236023581249 Q 301.2210938651041 378.89346537182354 301.5635596185287 379.9208626320975 Q 301.9060253719533 380.9482598923715 302.248491125378 382.31812290607013 Q 302.5909568788027 383.6879859197688 302.5909568788027 384.71538318004275 Q 302.5909568788027 385.7427804403167 303.27588838565197 386.7701777005907 Q 303.96081989250126 387.79757496086467 303.96081989250126 388.82497222113864 Q 303.96081989250126 389.8523694814126 304.30328564592594 390.1948352348373 Q 304.6457513993506 390.53730098826196 304.6457513993506 391.22223249511126 Q 304.6457513993506 391.90716400196055 304.6457513993506 392.59209550880985 Q 304.6457513993506 393.27702701565914 304.9882171527753 394.3044242759331 Q 305.33068290619997 395.3318215362071 305.33068290619997 396.01675304305644 Q 305.33068290619997 396.7016845499058 305.6731486596246 397.3866160567551 Q 306.0156144130492 398.0715475636044 306.0156144130492 398.41401331702906 Q 306.0156144130492 398.75647907045374 306.3580801664739 398.75647907045374 Q 306.70054591989856 398.75647907045374 306.70054591989856 399.09894482387836 Q 306.70054591989856 399.441410577303 306.70054591989856 399.78387633072765 Q 306.70054591989856 400.1263420841523 307.04301167332324 399.78387633072765 Q 307.3854774267479 399.441410577303 307.3854774267479 399.09894482387836 Q 307.3854774267479 398.75647907045374 307.72794318017253 398.41401331702906 Q 308.07040893359715 398.0715475636044 308.4128746870218 397.7290818101797 Q 308.7553404404465 397.38661605675503 309.0978061938712 397.0441503033304 Q 309.44027194729586 396.7016845499058 309.7827377007205 396.3592187964811 Q 310.1252034541451 396.01675304305644 310.46766920756977 395.67428728963176 Q 310.81013496099445 395.3318215362071 311.49506646784374 394.6468900293578 Q 312.17999797469304 393.9619585225085 312.5224637281177 393.2770270156592 Q 312.8649294815424 392.5920955088099 313.5498609883917 391.90716400196055 Q 314.234792495241 391.2222324951112 314.57725824866566 390.8797667416866 Q 314.91972400209033 390.53730098826196 315.262189755515 389.8523694814126 Q 315.6046555089397 389.16743797456326 315.9471212623643 388.48250646771396 Q 316.2895870157889 387.79757496086467 316.9745185226383 387.45510920744 Q 317.65945002948763 387.1126434540153 318.00191578291225 386.427711947166 Q 318.34438153633687 385.7427804403167 318.68684728976154 385.0578489334674 Q 319.0293130431862 384.3729174266181 319.3717787966109 384.0304516731934 Q 319.7142445500356 383.6879859197688 320.0567103034602 383.0030544129195 Q 320.3991760568848 382.31812290607013 320.7416418103095 381.97565715264545 Q 321.08410756373416 381.63319139922083 321.08410756373416 381.29072564579616 Q 321.08410756373416 380.9482598923715 321.76903907058346 379.9208626320975 Q 322.45397057743276 378.89346537182354 322.79643633085743 378.5509996183989 Q 323.1389020842821 378.20853386497424 323.4813678377068 377.5236023581249 Q 323.82383359113146 376.8386708512756 324.1662993445561 376.496205097851 Q 324.5087650979807 376.1537393444263 324.5087650979807 375.8112735910016 Q 324.5087650979807 375.468807837577 324.8512308514054 374.7838763307277 Q 325.19369660483005 374.09894482387836 325.87862811167935 373.7564790704537 Q 326.56355961852864 373.41401331702906 326.56355961852864 372.72908181017976 Q 326.56355961852864 372.0441503033304 327.248491125378 371.35921879648106 Q 327.93342263222735 370.67428728963176 328.27588838565197 370.33182153620714 Q 328.6183541390766 369.98935578278247 328.96081989250126 369.6468900293578 Q 329.30328564592594 369.3044242759331 329.30328564592594 368.96195852250844 Q 329.30328564592594 368.6194927690838 329.6457513993506 368.2770270156592 Q 329.9882171527753 367.9345612622345 330.3306829061999 367.2496297553852 Q 330.67314865962453 366.5646982485359 331.0156144130492 366.22223249511126 L 331.3650801664739 365.8727667416866" stroke-linecap="round" />
</g>
<g transform="matrix(1 0 0 1 306.36 416.22)" id="GT4-8CKbwNbiqMmAS0uNK"  >
<path style="stroke: rgb(0,19,255); stroke-width: 7; stroke-dasharray: none; stroke-linecap: round; stroke-dashoffset: 0; stroke-linejoin: round; stroke-miterlimit: 10; fill: none; fill-rule: nonzero; opacity: 1;" vector-effect="non-scaling-stroke"  transform=" translate(-306.36, -416.22)" d="M 306.70054591989856 401.4892050978509 Q 306.70054591989856 401.4962050978509 306.70054591989856 401.8386708512756 Q 306.70054591989856 402.18113660470027 306.70054591989856 402.52360235812495 Q 306.70054591989856 402.8660681115496 306.70054591989856 403.20853386497424 Q 306.70054591989856 403.55099961839886 306.70054591989856 403.89346537182354 Q 306.70054591989856 404.2359311252482 307.04301167332324 404.5783968786729 Q 307.3854774267479 404.92086263209757 307.3854774267479 405.94825989237154 Q 307.3854774267479 406.9756571526455 307.3854774267479 408.3455201663441 Q 307.3854774267479 409.7153831800427 307.3854774267479 410.40031468689205 Q 307.3854774267479 411.0852461937414 307.3854774267479 412.45510920744 Q 307.3854774267479 413.8249722211386 307.3854774267479 414.85236948141255 Q 307.3854774267479 415.8797667416865 307.3854774267479 416.9071640019605 Q 307.3854774267479 417.93456126223447 307.04301167332324 419.3044242759331 Q 306.70054591989856 420.67428728963176 306.70054591989856 422.0441503033304 Q 306.70054591989856 423.41401331702906 306.70054591989856 423.7564790704537 Q 306.70054591989856 424.0989448238783 306.3580801664739 425.1263420841523 Q 306.0156144130492 426.15373934442636 306.0156144130492 426.496205097851 Q 306.0156144130492 426.8386708512756 306.0156144130492 427.18113660470027 Q 306.0156144130492 427.52360235812495 306.0156144130492 427.8660681115496 Q 306.0156144130492 428.2085338649743 306.0156144130492 428.5509996183989 Q 306.0156144130492 428.89346537182354 305.6731486596246 429.2359311252482 Q 305.33068290619997 429.5783968786729 305.33068290619997 430.2633283855222 L 305.33068290619997 430.9552598923715" stroke-linecap="round" />
</g>
<g transform="matrix(1 0 0 1 365.6 398.75)" id="M9ZpNSntPoQH8CD7OPQHQ"  >
<path style="stroke: rgb(0,19,255); stroke-width: 7; stroke-dasharray: none; stroke-linecap: round; stroke-dashoffset: 0; stroke-linejoin: round; stroke-miterlimit: 10; fill: none; fill-rule: nonzero; opacity: 1;" vector-effect="non-scaling-stroke"  transform=" translate(-365.6, -398.75)" d="M 368.34438153633687 365.8727667416866 Q 368.34438153633687 365.8797667416866 368.34438153633687 366.22223249511126 Q 368.34438153633687 366.5646982485359 368.34438153633687 367.2496297553852 Q 368.34438153633687 367.9345612622345 368.34438153633687 368.2770270156592 Q 368.34438153633687 368.6194927690838 368.34438153633687 369.3044242759331 Q 368.34438153633687 369.98935578278247 368.34438153633687 370.6742872896318 Q 368.34438153633687 371.3592187964811 368.34438153633687 372.3866160567551 Q 368.34438153633687 373.41401331702906 368.34438153633687 374.44141057730303 Q 368.34438153633687 375.468807837577 368.34438153633687 376.83867085127565 Q 368.34438153633687 378.20853386497424 368.34438153633687 379.9208626320975 Q 368.34438153633687 381.63319139922083 368.00191578291225 382.31812290607013 Q 367.65945002948763 383.0030544129194 367.31698427606295 384.3729174266181 Q 366.9745185226383 385.7427804403167 366.6320527692136 387.11264345401537 Q 366.2895870157889 388.48250646771396 366.2895870157889 389.509903727988 Q 366.2895870157889 390.53730098826196 366.2895870157889 391.90716400196055 Q 366.2895870157889 393.27702701565914 365.9471212623643 394.3044242759331 Q 365.6046555089397 395.3318215362071 365.6046555089397 396.01675304305644 Q 365.6046555089397 396.7016845499058 365.6046555089397 398.0715475636044 Q 365.6046555089397 399.441410577303 365.6046555089397 401.1537393444263 Q 365.6046555089397 402.8660681115496 365.262189755515 403.8934653718236 Q 364.91972400209033 404.92086263209757 364.91972400209033 405.60579413894686 Q 364.91972400209033 406.29072564579616 364.91972400209033 406.63319139922083 Q 364.91972400209033 406.9756571526455 364.91972400209033 407.31812290607013 Q 364.91972400209033 407.66058865949475 364.91972400209033 408.0030544129194 Q 364.91972400209033 408.3455201663441 364.91972400209033 409.3729174266181 Q 364.91972400209033 410.40031468689205 364.57725824866566 411.427711947166 Q 364.234792495241 412.45510920744 364.234792495241 413.1400407142893 Q 364.234792495241 413.8249722211386 364.234792495241 414.16743797456326 Q 364.234792495241 414.50990372798793 364.234792495241 414.8523694814126 Q 364.234792495241 415.1948352348373 364.234792495241 415.5373009882619 Q 364.234792495241 415.8797667416865 364.234792495241 416.5646982485359 Q 364.234792495241 417.24962975538523 363.89232674181636 417.59209550880985 Q 363.54986098839174 417.93456126223447 363.54986098839174 418.27702701565914 Q 363.54986098839174 418.6194927690838 363.54986098839174 418.9619585225085 Q 363.54986098839174 419.3044242759332 363.54986098839174 419.6468900293578 Q 363.54986098839174 419.9893557827824 363.54986098839174 420.67428728963176 Q 363.54986098839174 421.3592187964811 363.54986098839174 423.41401331702906 Q 363.54986098839174 425.468807837577 363.54986098839174 426.1537393444263 Q 363.54986098839174 426.8386708512756 363.54986098839174 427.18113660470027 Q 363.54986098839174 427.52360235812495 363.54986098839174 428.20853386497424 Q 363.54986098839174 428.89346537182354 363.54986098839174 429.2359311252482 Q 363.54986098839174 429.5783968786729 363.54986098839174 429.92086263209757 Q 363.54986098839174 430.26332838552224 363.20739523496707 430.60579413894686 Q 362.8649294815424 430.9482598923715 362.8649294815424 431.29072564579616 L 362.8649294815424 431.63319139922083" stroke-linecap="round" />
</g>
<g transform="matrix(1 0 0 1 384.1 400.53)" id="3uMJiKikyRMlIraZmj2_b"  >
<path style="stroke: rgb(0,19,255); stroke-width: 7; stroke-dasharray: none; stroke-linecap: round; stroke-dashoffset: 0; stroke-linejoin: round; stroke-miterlimit: 10; fill: none; fill-rule: nonzero; opacity: 1;" vector-effect="non-scaling-stroke"  transform=" translate(-384.1, -400.53)" d="M 369.0223130431862 367.24262975538517 Q 369.0293130431862 367.2496297553852 369.3717787966109 367.9345612622345 Q 369.7142445500356 368.6194927690838 370.0567103034602 368.96195852250844 Q 370.3991760568848 369.3044242759331 371.08410756373416 370.67428728963176 Q 371.7690390705835 372.0441503033304 373.1389020842821 373.7564790704537 Q 374.5087650979807 375.468807837577 375.19369660483005 376.496205097851 Q 375.8786281116794 377.52360235812495 376.5635596185287 378.5509996183989 Q 377.248491125378 379.5783968786729 377.5909568788027 380.2633283855222 Q 377.93342263222735 380.9482598923715 378.275888385652 381.6331913992208 Q 378.6183541390767 382.31812290607013 379.303285645926 382.6605886594948 Q 379.9882171527753 383.0030544129194 380.33068290619997 383.3455201663441 Q 380.67314865962464 383.6879859197688 381.01561441304926 384.3729174266181 Q 381.3580801664739 385.05784893346737 381.3580801664739 385.40031468689205 Q 381.3580801664739 385.7427804403167 381.70054591989856 385.7427804403167 Q 382.04301167332324 385.7427804403167 382.04301167332324 386.08524619374134 Q 382.04301167332324 386.427711947166 382.3854774267479 386.427711947166 Q 382.7279431801726 386.427711947166 383.0704089335972 386.08524619374134 Q 383.4128746870218 385.7427804403167 383.4128746870218 385.0578489334674 Q 383.4128746870218 384.3729174266181 383.7553404404465 384.0304516731934 Q 384.0978061938712 383.6879859197688 384.0978061938712 383.3455201663441 Q 384.0978061938712 383.0030544129194 384.44027194729586 382.6605886594948 Q 384.78273770072053 382.31812290607013 385.12520345414515 381.6331913992208 Q 385.46766920756977 380.9482598923715 385.81013496099445 380.60579413894686 Q 386.1526007144191 380.2633283855222 386.8375322212684 379.57839687867283 Q 387.5224637281177 378.89346537182354 387.8649294815424 378.5509996183989 Q 388.20739523496707 378.20853386497424 388.54986098839174 377.86606811154957 Q 388.8923267418164 377.52360235812495 389.23479249524104 376.83867085127565 Q 389.57725824866566 376.1537393444263 390.262189755515 375.8112735910016 Q 390.94712126236436 375.468807837577 391.289587015789 374.7838763307277 Q 391.6320527692136 374.09894482387836 392.6594500294876 373.414013317029 Q 393.68684728976154 372.7290818101797 394.0293130431862 372.0441503033304 Q 394.3717787966109 371.3592187964811 395.0567103034602 370.6742872896318 Q 395.7416418103095 369.98935578278247 396.08410756373416 369.6468900293578 Q 396.42657331715884 369.3044242759331 396.7690390705835 368.96195852250844 Q 397.1115048240082 368.6194927690838 397.1115048240082 367.9345612622345 Q 397.1115048240082 367.2496297553852 397.4539705774328 367.2496297553852 Q 397.79643633085743 367.2496297553852 397.79643633085743 366.9071640019605 Q 397.79643633085743 366.5646982485359 397.79643633085743 367.2496297553852 Q 397.79643633085743 367.9345612622345 397.79643633085743 368.6194927690838 Q 397.79643633085743 369.3044242759331 398.1389020842821 370.67428728963176 Q 398.4813678377068 372.0441503033304 398.4813678377068 373.414013317029 Q 398.4813678377068 374.78387633072765 398.82383359113146 375.8112735910016 Q 399.16629934455614 376.8386708512756 399.16629934455614 378.5509996183989 Q 399.16629934455614 380.2633283855222 399.16629934455614 381.6331913992208 Q 399.16629934455614 383.0030544129194 399.16629934455614 384.71538318004275 Q 399.16629934455614 386.427711947166 399.16629934455614 388.48250646771396 Q 399.16629934455614 390.53730098826196 398.82383359113146 392.5920955088099 Q 398.4813678377068 394.64689002935785 398.4813678377068 396.3592187964811 Q 398.4813678377068 398.0715475636044 398.4813678377068 399.44141057730303 Q 398.4813678377068 400.8112735910017 398.4813678377068 401.83867085127565 Q 398.4813678377068 402.8660681115496 398.4813678377068 403.8934653718236 Q 398.4813678377068 404.92086263209757 398.4813678377068 405.94825989237154 Q 398.4813678377068 406.9756571526455 398.4813678377068 408.0030544129195 Q 398.4813678377068 409.03045167319345 398.1389020842821 410.7427804403167 Q 397.79643633085743 412.45510920744 397.79643633085743 413.82497222113864 Q 397.79643633085743 415.1948352348373 397.79643633085743 415.8797667416866 Q 397.79643633085743 416.5646982485359 397.79643633085743 416.90716400196055 Q 397.79643633085743 417.24962975538523 397.79643633085743 417.9345612622345 Q 397.79643633085743 418.6194927690838 397.79643633085743 419.3044242759331 Q 397.79643633085743 419.9893557827824 397.79643633085743 420.67428728963176 Q 397.79643633085743 421.3592187964811 397.79643633085743 422.0441503033304 Q 397.79643633085743 422.7290818101797 397.79643633085743 423.0715475636044 Q 397.79643633085743 423.41401331702906 397.79643633085743 423.7564790704537 Q 397.79643633085743 424.0989448238783 397.79643633085743 424.441410577303 Q 397.79643633085743 424.78387633072765 397.79643633085743 425.1263420841523 Q 397.79643633085743 425.468807837577 397.79643633085743 425.8112735910017 Q 397.79643633085743 426.15373934442636 397.79643633085743 426.496205097851 Q 397.79643633085743 426.8386708512756 397.79643633085743 427.52360235812495 Q 397.79643633085743 428.2085338649743 397.79643633085743 428.5509996183989 Q 397.79643633085743 428.89346537182354 397.79643633085743 429.2359311252482 Q 397.79643633085743 429.5783968786729 397.79643633085743 429.92086263209757 Q 397.79643633085743 430.26332838552224 397.79643633085743 430.60579413894686 Q 397.79643633085743 430.9482598923715 398.1389020842821 431.29072564579616 Q 398.4813678377068 431.63319139922083 398.4813678377068 431.9756571526455 Q 398.4813678377068 432.3181229060702 398.82383359113146 433.34552016634416 L 399.17329934455614 434.37991742661814" stroke-linecap="round" />
</g>
<g transform="matrix(1 0 0 1 423.82 399.4)" id="ozJfl_gi_oWW84Iefb1D8"  >
<path style="stroke: rgb(0,19,255); stroke-width: 7; stroke-dasharray: none; stroke-linecap: round; stroke-dashoffset: 0; stroke-linejoin: round; stroke-miterlimit: 10; fill: none; fill-rule: nonzero; opacity: 1;" vector-effect="non-scaling-stroke"  transform=" translate(-423.82, -399.4)" d="M 412.8579294815424 369.2974242759331 Q 412.8649294815424 369.3044242759331 412.8649294815424 369.6468900293578 Q 412.8649294815424 369.98935578278247 413.20739523496707 371.01675304305644 Q 413.54986098839174 372.0441503033304 413.54986098839174 373.414013317029 Q 413.54986098839174 374.78387633072765 413.54986098839174 376.1537393444263 Q 413.54986098839174 377.52360235812495 413.54986098839174 378.8934653718236 Q 413.54986098839174 380.2633283855222 413.54986098839174 381.6331913992208 Q 413.54986098839174 383.0030544129194 413.54986098839174 384.0304516731934 Q 413.54986098839174 385.05784893346737 413.89232674181636 386.427711947166 Q 414.234792495241 387.79757496086467 414.234792495241 389.50990372798793 Q 414.234792495241 391.2222324951112 414.234792495241 392.9345612622345 Q 414.234792495241 394.64689002935785 414.234792495241 395.33182153620714 Q 414.234792495241 396.01675304305644 414.57725824866566 396.70168454990574 Q 414.91972400209033 397.38661605675503 414.91972400209033 397.7290818101797 Q 414.91972400209033 398.0715475636044 414.91972400209033 398.7564790704537 Q 414.91972400209033 399.441410577303 414.91972400209033 399.78387633072765 Q 414.91972400209033 400.1263420841523 414.91972400209033 400.8112735910016 Q 414.91972400209033 401.4962050978509 414.91972400209033 402.18113660470027 Q 414.91972400209033 402.8660681115496 414.91972400209033 403.5509996183989 Q 414.91972400209033 404.2359311252482 414.91972400209033 404.9208626320975 Q 414.91972400209033 405.6057941389468 414.91972400209033 406.29072564579616 Q 414.91972400209033 406.9756571526455 414.91972400209033 408.3455201663441 Q 414.91972400209033 409.7153831800427 414.91972400209033 410.74278044031666 Q 414.91972400209033 411.77017770059064 414.91972400209033 412.45510920744 Q 414.91972400209033 413.14004071428934 414.91972400209033 413.82497222113864 Q 414.91972400209033 414.50990372798793 414.91972400209033 415.1948352348372 Q 414.91972400209033 415.8797667416865 414.91972400209033 416.5646982485359 Q 414.91972400209033 417.24962975538523 414.91972400209033 418.6194927690838 Q 414.91972400209033 419.9893557827824 414.91972400209033 420.67428728963176 Q 414.91972400209033 421.3592187964811 414.91972400209033 422.0441503033304 Q 414.91972400209033 422.7290818101797 414.91972400209033 423.414013317029 Q 414.91972400209033 424.0989448238783 414.91972400209033 424.441410577303 Q 414.91972400209033 424.78387633072765 414.91972400209033 425.1263420841523 Q 414.91972400209033 425.468807837577 414.91972400209033 425.8112735910017 Q 414.91972400209033 426.15373934442636 414.91972400209033 426.83867085127565 Q 414.91972400209033 427.52360235812495 414.91972400209033 427.8660681115496 Q 414.91972400209033 428.2085338649743 414.91972400209033 428.5509996183989 Q 414.91972400209033 428.89346537182354 414.91972400209033 429.2359311252482 Q 414.91972400209033 429.5783968786729 414.91972400209033 429.2359311252482 Q 414.91972400209033 428.89346537182354 415.60465550893963 428.89346537182354 Q 416.2895870157889 428.89346537182354 416.6320527692136 428.89346537182354 Q 416.9745185226383 428.89346537182354 417.31698427606295 428.89346537182354 Q 417.65945002948763 428.89346537182354 418.6868472897616 428.89346537182354 Q 419.7142445500356 428.89346537182354 420.0567103034602 428.5509996183989 Q 420.3991760568848 428.2085338649743 421.08410756373416 428.2085338649743 Q 421.7690390705835 428.2085338649743 422.11150482400814 428.2085338649743 Q 422.45397057743276 428.2085338649743 422.79643633085743 428.2085338649743 Q 423.1389020842821 428.2085338649743 423.4813678377068 428.2085338649743 Q 423.82383359113146 428.2085338649743 424.50876509798076 428.2085338649743 Q 425.19369660483005 428.2085338649743 425.5361623582547 428.2085338649743 Q 425.8786281116794 428.2085338649743 426.2210938651041 428.2085338649743 Q 426.56355961852876 428.2085338649743 426.9060253719534 428.2085338649743 Q 427.248491125378 428.2085338649743 427.5909568788027 428.2085338649743 Q 427.93342263222735 428.2085338649743 428.275888385652 428.2085338649743 Q 428.6183541390767 428.2085338649743 428.9608198925013 428.2085338649743 Q 429.30328564592594 428.2085338649743 429.6457513993506 428.2085338649743 Q 429.9882171527753 428.2085338649743 430.33068290619997 428.2085338649743 Q 430.67314865962464 428.2085338649743 431.01561441304926 428.2085338649743 Q 431.3580801664739 428.2085338649743 431.70054591989856 428.2085338649743 Q 432.04301167332324 428.2085338649743 432.3854774267479 428.2085338649743 Q 432.7279431801726 428.2085338649743 433.0704089335972 428.2085338649743 Q 433.4128746870218 428.2085338649743 434.0978061938712 428.2085338649743 L 434.78973770072054 428.2085338649743" stroke-linecap="round" />
</g>
<g transform="matrix(1 0 0 1 423.48 367.93)" id="9k4XV6tfgHSbV-yWP7WIT"  >
<path style="stroke: rgb(0,19,255); stroke-width: 7; stroke-dasharray: none; stroke-linecap: round; stroke-dashoffset: 0; stroke-linejoin: round; stroke-miterlimit: 10; fill: none; fill-rule: nonzero; opacity: 1;" vector-effect="non-scaling-stroke"  transform=" translate(-423.48, -367.93)" d="M 414.227792495241 367.9345612622345 Q 414.234792495241 367.9345612622345 414.57725824866566 367.9345612622345 Q 414.91972400209033 367.9345612622345 415.60465550893963 367.9345612622345 Q 416.2895870157889 367.9345612622345 416.9745185226383 367.9345612622345 Q 417.65945002948763 367.9345612622345 418.3443815363369 367.9345612622345 Q 419.0293130431862 367.9345612622345 419.3717787966109 367.9345612622345 Q 419.7142445500356 367.9345612622345 420.0567103034602 367.9345612622345 Q 420.3991760568848 367.9345612622345 420.7416418103095 367.9345612622345 Q 421.08410756373416 367.9345612622345 421.76903907058346 367.9345612622345 Q 422.45397057743276 367.9345612622345 423.1389020842821 367.9345612622345 Q 423.82383359113146 367.9345612622345 424.16629934455614 367.9345612622345 Q 424.5087650979808 367.9345612622345 424.85123085140543 367.9345612622345 Q 425.19369660483005 367.9345612622345 425.5361623582547 367.9345612622345 Q 425.8786281116794 367.9345612622345 426.2210938651041 367.9345612622345 Q 426.56355961852876 367.9345612622345 426.9060253719534 367.9345612622345 Q 427.248491125378 367.9345612622345 427.5909568788027 367.9345612622345 Q 427.93342263222735 367.9345612622345 428.275888385652 367.9345612622345 Q 428.6183541390767 367.9345612622345 428.9608198925013 367.9345612622345 Q 429.30328564592594 367.9345612622345 429.6457513993506 367.9345612622345 Q 429.9882171527753 367.9345612622345 430.6731486596246 367.9345612622345 Q 431.3580801664739 367.9345612622345 432.04301167332324 367.9345612622345 L 432.7349431801726 367.9345612622345" stroke-linecap="round" />
</g>
<g transform="matrix(1 0 0 1 419.71 396.7)" id="ovGPEZ412utMrKOCrq9ve"  >
<path style="stroke: rgb(0,19,255); stroke-width: 7; stroke-dasharray: none; stroke-linecap: round; stroke-dashoffset: 0; stroke-linejoin: round; stroke-miterlimit: 10; fill: none; fill-rule: nonzero; opacity: 1;" vector-effect="non-scaling-stroke"  transform=" translate(-419.71, -396.7)" d="M 416.2825870157889 396.7016845499058 Q 416.2895870157889 396.7016845499058 416.6320527692136 396.7016845499058 Q 416.9745185226383 396.7016845499058 417.31698427606295 396.7016845499058 Q 417.65945002948763 396.7016845499058 418.3443815363369 396.7016845499058 Q 419.0293130431862 396.7016845499058 419.7142445500355 396.7016845499058 Q 420.3991760568848 396.7016845499058 420.7416418103095 396.7016845499058 Q 421.08410756373416 396.7016845499058 422.11150482400814 396.7016845499058 L 423.1459020842821 396.7016845499058" stroke-linecap="round" />
</g>
<g transform="matrix(1 0 0 1 453.61 386.77)" id="kArM7znB00VvjFdYWShbx"  >
<path style="stroke: rgb(0,19,255); stroke-width: 7; stroke-dasharray: none; stroke-linecap: round; stroke-dashoffset: 0; stroke-linejoin: round; stroke-miterlimit: 10; fill: none; fill-rule: nonzero; opacity: 1;" vector-effect="non-scaling-stroke"  transform=" translate(-453.61, -386.77)" d="M 452.58395687880267 361.7631777005907 Q 452.5909568788027 361.7701777005907 452.5909568788027 362.45510920744 Q 452.5909568788027 363.1400407142893 452.93342263222735 364.16743797456326 Q 453.275888385652 365.1948352348372 453.275888385652 366.5646982485359 Q 453.275888385652 367.9345612622345 453.275888385652 369.3044242759331 Q 453.275888385652 370.67428728963176 453.275888385652 372.0441503033304 Q 453.275888385652 373.41401331702906 453.275888385652 374.44141057730303 Q 453.275888385652 375.468807837577 453.275888385652 376.496205097851 Q 453.275888385652 377.52360235812495 453.275888385652 379.2359311252482 Q 453.275888385652 380.9482598923715 453.275888385652 382.6605886594948 Q 453.275888385652 384.3729174266181 453.275888385652 386.427711947166 Q 453.275888385652 388.48250646771396 453.275888385652 390.1948352348372 Q 453.275888385652 391.90716400196055 453.61835413907664 394.3044242759332 Q 453.96081989250126 396.7016845499058 453.96081989250126 398.0715475636044 Q 453.96081989250126 399.441410577303 454.30328564592594 400.1263420841523 Q 454.6457513993506 400.8112735910017 454.6457513993506 401.83867085127565 Q 454.6457513993506 402.8660681115496 454.6457513993506 403.8934653718236 Q 454.6457513993506 404.92086263209757 454.6457513993506 405.94825989237154 Q 454.6457513993506 406.9756571526455 454.6457513993506 407.6605886594948 Q 454.6457513993506 408.3455201663441 454.6457513993506 409.0304516731934 Q 454.6457513993506 409.7153831800427 454.6457513993506 410.74278044031666 L 454.6457513993506 411.77717770059064" stroke-linecap="round" />
</g>
<g transform="matrix(1 0 0 1 454.65 432.32)" id="zQfhh8Sr3Zz8uYYIU7SFS"  >
<path style="stroke: rgb(0,19,255); stroke-width: 7; stroke-dasharray: none; stroke-linecap: round; stroke-dashoffset: 0; stroke-linejoin: round; stroke-miterlimit: 10; fill: none; fill-rule: nonzero; opacity: 1;" vector-effect="non-scaling-stroke"  transform=" translate(-454.65, -432.32)" d="M 454.6387513993506 432.3181229060702 L 454.6527513993506 432.3181229060702" stroke-linecap="round" />
</g>
</svg>