<?xml version="1.0" encoding="UTF-8" standalone="no" ?>
<!DOCTYPE svg PUBLIC "-//W3C//DTD SVG 1.1//EN" "http://www.w3.org/Graphics/SVG/1.1/DTD/svg11.dtd">
<svg xmlns="http://www.w3.org/2000/svg" xmlns:xlink="http://www.w3.org/1999/xlink" version="1.1" width="125.67796610169489" height="110.59322033898297" viewBox="261.3373589152176 504.28038544882634 125.67796610169489 110.59322033898297" xml:space="preserve">
<desc>Created with Fabric.js 4.6.0</desc>
<defs>
</defs>
<g transform="matrix(1 0 0 1 324.18 559.58)" id="py32uxUy-6ZNeYCnwNuoL"  >
<path style="stroke: rgb(0,19,255); stroke-width: 7; stroke-dasharray: none; stroke-linecap: round; stroke-dashoffset: 0; stroke-linejoin: round; stroke-miterlimit: 10; fill: rgb(255,255,255); fill-rule: nonzero; opacity: 1;" vector-effect="non-scaling-stroke"  transform=" translate(-324.18, -559.58)" d="M 319.5223250169125 518.4823007030635 Q 319.51532501691247 518.4753007030636 318.6678673897938 518.0515718895042 Q 317.8204097626751 517.627843075945 316.5492233219972 517.2041142623857 Q 315.2780368813193 516.7803854488263 314.8543080677599 516.7803854488263 Q 314.43057925420055 516.7803854488263 313.58312162708194 516.7803854488263 Q 312.7356639999633 516.7803854488263 311.88820637284465 516.7803854488263 Q 311.040748745726 516.7803854488263 310.19329111860736 516.7803854488263 Q 309.34583349148875 516.7803854488263 308.4983758643701 516.7803854488263 Q 307.6509182372514 516.7803854488263 306.8034606101328 516.7803854488263 Q 305.9560029830142 516.7803854488263 305.53227416945487 516.7803854488263 Q 305.10854535589556 516.7803854488263 304.6848165423362 516.7803854488263 Q 304.26108772877683 516.7803854488263 303.4136301016582 516.7803854488263 Q 302.5661724745396 516.7803854488263 301.7187148474209 516.7803854488263 Q 300.87125722030225 516.7803854488263 300.87125722030225 517.2041142623857 Q 300.87125722030225 517.627843075945 300.02379959318364 517.627843075945 Q 299.176341966065 517.627843075945 299.176341966065 518.0515718895042 Q 299.176341966065 518.4753007030636 298.7526131525057 518.4753007030636 Q 298.3288843389464 518.4753007030636 297.90515552538704 518.4753007030636 Q 297.4814267118277 518.4753007030636 296.63396908470907 518.8990295166229 Q 295.78651145759045 519.3227583301822 295.36278264403114 519.7464871437415 Q 294.93905383047183 520.1702159573009 294.51532501691247 520.5939447708602 Q 294.0915962033531 521.0176735844195 293.6678673897938 521.4414023979789 Q 293.2441385762345 521.8651312115381 292.8204097626752 522.2888600250974 Q 292.3966809491159 522.7125888386568 291.97295213555657 522.7125888386568 Q 291.54922332199726 522.7125888386568 291.1254945084379 523.1363176522161 Q 290.70176569487853 523.5600464657755 290.2780368813192 523.5600464657755 Q 289.8543080677599 523.5600464657755 289.8543080677599 523.9837752793348 Q 289.8543080677599 524.4075040928941 289.4305792542006 524.8312329064534 Q 289.0068504406413 525.2549617200127 288.583121627082 525.6786905335721 Q 288.1593928135227 526.1024193471313 287.7356639999633 526.5261481606907 Q 287.31193518640396 526.9498769742501 286.88820637284465 527.3736057878093 Q 286.46447755928534 527.7973346013687 286.46447755928534 528.221063414928 Q 286.46447755928534 528.6447922284873 286.46447755928534 529.0685210420465 Q 286.46447755928534 529.4922498556059 285.61701993216667 529.4922498556059 Q 284.769562305048 529.4922498556059 284.769562305048 529.9159786691653 Q 284.769562305048 530.3397074827246 284.3458334914887 530.763436296284 Q 283.9221046779294 531.1871651098432 283.9221046779294 532.0346227369619 Q 283.9221046779294 532.8820803640805 283.4983758643701 533.3058091776398 Q 283.07464705081077 533.7295379911992 283.07464705081077 534.5769956183178 Q 283.07464705081077 535.4244532454364 282.65091823725146 535.8481820589957 Q 282.22718942369215 536.271910872555 282.22718942369215 536.6956396861144 Q 282.22718942369215 537.1193684996738 281.8034606101328 538.3905549403516 Q 281.3797317965734 539.6617413810296 280.9560029830141 540.085470194589 Q 280.5322741694548 540.5091990081484 280.5322741694548 541.356656635267 Q 280.5322741694548 542.2041142623856 280.5322741694548 542.6278430759448 Q 280.5322741694548 543.0515718895042 280.1085453558955 543.4753007030636 Q 279.6848165423362 543.8990295166229 279.6848165423362 544.3227583301823 Q 279.6848165423362 544.7464871437415 279.6848165423362 545.5939447708602 Q 279.6848165423362 546.4414023979789 279.6848165423362 547.2888600250975 Q 279.6848165423362 548.1363176522161 279.6848165423362 548.9837752793348 Q 279.6848165423362 549.8312329064535 279.6848165423362 550.2549617200127 Q 279.6848165423362 550.6786905335721 279.6848165423362 551.9498769742501 Q 279.6848165423362 553.221063414928 279.6848165423362 553.6447922284874 Q 279.6848165423362 554.0685210420467 279.2610877287769 554.9159786691653 Q 278.8373589152176 555.763436296284 278.8373589152176 556.6108939234026 Q 278.8373589152176 557.4583515505212 278.8373589152176 558.30580917764 Q 278.8373589152176 559.1532668047586 278.8373589152176 560.0007244318772 Q 278.8373589152176 560.8481820589958 278.8373589152176 561.271910872555 Q 278.8373589152176 561.6956396861144 278.8373589152176 562.5430973132331 Q 278.8373589152176 563.3905549403518 278.8373589152176 564.2380125674704 Q 278.8373589152176 565.085470194589 278.8373589152176 565.5091990081484 Q 278.8373589152176 565.9329278217077 278.8373589152176 566.7803854488263 Q 278.8373589152176 567.627843075945 278.8373589152176 568.0515718895042 Q 278.8373589152176 568.4753007030636 278.8373589152176 568.8990295166229 Q 278.8373589152176 569.3227583301823 278.8373589152176 570.1702159573009 Q 278.8373589152176 571.0176735844195 278.8373589152176 571.4414023979789 Q 278.8373589152176 571.8651312115381 278.8373589152176 572.7125888386568 Q 278.8373589152176 573.5600464657755 278.8373589152176 574.4075040928941 Q 278.8373589152176 575.2549617200127 279.2610877287769 575.6786905335721 Q 279.6848165423362 576.1024193471314 279.6848165423362 577.3736057878093 Q 279.6848165423362 578.6447922284873 280.1085453558955 579.0685210420467 Q 280.5322741694548 579.492249855606 280.5322741694548 580.3397074827246 Q 280.5322741694548 581.1871651098432 281.3797317965735 581.6108939234025 Q 282.22718942369215 582.0346227369619 282.22718942369215 582.4583515505212 Q 282.22718942369215 582.8820803640806 282.65091823725146 583.7295379911992 Q 283.07464705081077 584.5769956183178 283.4983758643701 585.0007244318772 Q 283.9221046779294 585.4244532454364 284.3458334914887 585.8481820589958 Q 284.769562305048 586.2719108725552 285.61701993216667 587.1193684996738 Q 286.46447755928534 587.9668261267924 286.88820637284465 588.814283753911 Q 287.31193518640396 589.6617413810297 288.15939281352263 590.5091990081484 Q 289.0068504406413 591.356656635267 289.8543080677599 591.7803854488263 Q 290.70176569487853 592.2041142623856 291.5492233219972 592.627843075945 Q 292.3966809491159 593.0515718895043 293.2441385762345 593.4753007030636 Q 294.0915962033531 593.8990295166229 294.51532501691247 594.7464871437415 Q 294.93905383047183 595.5939447708602 296.21024027114976 596.0176735844195 Q 297.4814267118277 596.4414023979789 297.90515552538704 596.8651312115383 Q 298.3288843389464 597.2888600250975 298.7526131525057 597.7125888386568 Q 299.176341966065 598.1363176522161 299.60007077962433 598.5600464657755 Q 300.02379959318364 598.9837752793348 300.8712572203023 599.4075040928942 Q 301.718714847421 599.8312329064535 302.5661724745396 600.2549617200127 Q 303.4136301016582 600.6786905335721 304.2610877287769 600.6786905335721 Q 305.10854535589556 600.6786905335721 305.9560029830142 600.6786905335721 Q 306.8034606101328 600.6786905335721 307.2271894236921 600.6786905335721 Q 307.6509182372514 600.6786905335721 308.9221046779294 601.1024193471314 Q 310.19329111860736 601.5261481606907 311.04074874572603 601.5261481606907 Q 311.8882063728447 601.5261481606907 313.15939281352263 601.9498769742501 Q 314.43057925420055 602.3736057878094 314.8543080677599 602.3736057878094 Q 315.2780368813193 602.3736057878094 316.1254945084379 602.3736057878094 Q 316.9729521355565 602.3736057878094 317.8204097626752 602.3736057878094 Q 318.66786738979386 602.3736057878094 319.51532501691247 602.3736057878094 Q 320.3627826440311 602.3736057878094 321.21024027114976 602.3736057878094 Q 322.05769789826843 602.3736057878094 323.32888433894635 602.3736057878094 Q 324.6000707796243 602.3736057878094 325.44752840674295 602.3736057878094 Q 326.2949860338616 602.3736057878094 327.14244366098023 601.9498769742501 Q 327.98990128809885 601.5261481606907 328.4136301016582 601.5261481606907 Q 328.8373589152176 601.5261481606907 330.10854535589556 601.5261481606907 Q 331.37973179657354 601.5261481606907 332.22718942369215 601.1024193471314 Q 333.07464705081077 600.6786905335721 333.92210467792944 600.6786905335721 Q 334.7695623050481 600.6786905335721 335.6170199321667 600.6786905335721 Q 336.46447755928534 600.6786905335721 336.88820637284465 600.2549617200127 Q 337.31193518640396 599.8312329064535 338.15939281352263 599.8312329064535 Q 339.0068504406413 599.8312329064535 340.2780368813193 599.4075040928942 Q 341.54922332199726 598.9837752793348 341.97295213555657 598.5600464657755 Q 342.3966809491159 598.1363176522161 343.2441385762345 598.1363176522161 Q 344.0915962033531 598.1363176522161 344.51532501691247 597.7125888386568 Q 344.93905383047183 597.2888600250975 345.36278264403114 597.2888600250975 Q 345.78651145759045 597.2888600250975 347.05769789826843 596.8651312115383 Q 348.3288843389464 596.4414023979789 349.176341966065 596.0176735844195 Q 350.02379959318364 595.5939447708602 350.44752840674295 595.1702159573008 Q 350.87125722030225 594.7464871437415 351.7187148474209 594.7464871437415 Q 352.5661724745396 594.7464871437415 352.9899012880989 594.3227583301823 Q 353.4136301016582 593.8990295166229 353.8373589152175 593.8990295166229 Q 354.26108772877683 593.8990295166229 354.6848165423362 593.4753007030636 Q 355.10854535589556 593.0515718895043 355.53227416945487 592.627843075945 Q 355.9560029830142 592.2041142623856 356.3797317965735 592.2041142623856 Q 356.8034606101328 592.2041142623856 356.8034606101328 591.7803854488263 Q 356.8034606101328 591.356656635267 357.2271894236921 590.9329278217076 Q 357.6509182372514 590.5091990081484 358.07464705081077 590.0854701945891 Q 358.49837586437013 589.6617413810297 359.34583349148875 589.2380125674704 Q 360.19329111860736 588.814283753911 360.61701993216667 587.9668261267924 Q 361.040748745726 587.1193684996738 361.88820637284465 586.271910872555 Q 362.7356639999633 585.4244532454364 363.15939281352263 585.0007244318772 Q 363.58312162708194 584.5769956183178 364.00685044064124 584.1532668047585 Q 364.43057925420055 583.7295379911992 365.2780368813192 583.30580917764 Q 366.1254945084379 582.8820803640806 366.1254945084379 582.4583515505212 Q 366.1254945084379 582.0346227369619 366.5492233219972 582.0346227369619 Q 366.9729521355565 582.0346227369619 367.3966809491158 581.1871651098432 Q 367.8204097626751 580.3397074827246 367.8204097626751 579.9159786691653 Q 367.8204097626751 579.492249855606 367.8204097626751 579.0685210420467 Q 367.8204097626751 578.6447922284873 368.6678673897938 577.7973346013687 Q 369.51532501691247 576.9498769742501 369.51532501691247 576.5261481606908 Q 369.51532501691247 576.1024193471314 369.51532501691247 575.2549617200127 Q 369.51532501691247 574.4075040928941 369.51532501691247 573.9837752793348 Q 369.51532501691247 573.5600464657755 369.51532501691247 573.1363176522161 Q 369.51532501691247 572.7125888386569 369.51532501691247 572.2888600250975 Q 369.51532501691247 571.8651312115381 369.51532501691247 571.0176735844195 Q 369.51532501691247 570.1702159573009 369.51532501691247 569.7464871437417 Q 369.51532501691247 569.3227583301823 369.51532501691247 568.4753007030636 Q 369.51532501691247 567.627843075945 369.51532501691247 566.7803854488263 Q 369.51532501691247 565.9329278217077 369.51532501691247 565.5091990081484 Q 369.51532501691247 565.085470194589 369.51532501691247 564.6617413810297 Q 369.51532501691247 564.2380125674704 369.51532501691247 563.3905549403518 Q 369.51532501691247 562.5430973132331 369.51532501691247 562.1193684996738 Q 369.51532501691247 561.6956396861144 369.51532501691247 560.8481820589958 Q 369.51532501691247 560.0007244318772 369.51532501691247 559.5769956183178 Q 369.51532501691247 559.1532668047586 369.51532501691247 558.7295379911992 Q 369.51532501691247 558.3058091776398 369.51532501691247 557.4583515505212 Q 369.51532501691247 556.6108939234026 369.09159620335316 556.1871651098434 Q 368.66786738979386 555.763436296284 368.66786738979386 555.3397074827246 Q 368.66786738979386 554.9159786691653 368.66786738979386 554.4922498556059 Q 368.66786738979386 554.0685210420467 368.66786738979386 553.6447922284874 Q 368.66786738979386 553.221063414928 368.66786738979386 552.7973346013687 Q 368.66786738979386 552.3736057878093 368.66786738979386 551.94987697425 Q 368.66786738979386 551.5261481606907 368.2441385762345 550.6786905335721 Q 367.8204097626751 549.8312329064535 367.8204097626751 548.9837752793348 Q 367.8204097626751 548.1363176522161 367.3966809491158 548.1363176522161 Q 366.9729521355565 548.1363176522161 366.9729521355565 547.7125888386568 Q 366.9729521355565 547.2888600250975 366.9729521355565 546.4414023979789 Q 366.9729521355565 545.5939447708602 366.5492233219972 545.1702159573008 Q 366.1254945084379 544.7464871437415 365.7017656948786 544.7464871437415 Q 365.2780368813193 544.7464871437415 365.2780368813193 544.3227583301823 Q 365.2780368813193 543.8990295166229 364.8543080677599 543.0515718895042 Q 364.43057925420055 542.2041142623856 364.00685044064124 542.2041142623856 Q 363.58312162708194 542.2041142623856 363.58312162708194 541.7803854488263 Q 363.58312162708194 541.356656635267 363.58312162708194 540.9329278217076 Q 363.58312162708194 540.5091990081484 363.15939281352263 540.085470194589 Q 362.7356639999633 539.6617413810296 362.311935186404 538.814283753911 Q 361.8882063728447 537.9668261267924 361.04074874572603 537.5430973132331 Q 360.19329111860736 537.1193684996738 360.19329111860736 536.271910872555 Q 360.19329111860736 535.4244532454364 359.76956230504805 535.0007244318772 Q 359.34583349148875 534.5769956183178 358.92210467792944 534.5769956183178 Q 358.49837586437013 534.5769956183178 358.49837586437013 534.1532668047585 Q 358.49837586437013 533.7295379911992 358.07464705081077 533.7295379911992 Q 357.6509182372514 533.7295379911992 357.2271894236921 533.3058091776398 Q 356.8034606101328 532.8820803640805 356.3797317965735 532.8820803640805 Q 355.9560029830142 532.8820803640805 355.53227416945487 532.4583515505212 Q 355.10854535589556 532.0346227369619 354.6848165423362 531.6108939234025 Q 354.26108772877683 531.1871651098432 353.8373589152175 531.1871651098432 Q 353.4136301016582 531.1871651098432 352.9899012880989 530.763436296284 Q 352.5661724745396 530.3397074827246 352.1424436609803 530.3397074827246 Q 351.718714847421 530.3397074827246 351.2949860338616 529.9159786691653 Q 350.87125722030225 529.4922498556059 350.44752840674295 529.4922498556059 Q 350.02379959318364 529.4922498556059 349.60007077962433 528.6447922284873 Q 349.176341966065 527.7973346013687 348.32888433894635 527.3736057878093 Q 347.4814267118277 526.9498769742501 347.0576978982684 526.5261481606907 Q 346.63396908470907 526.1024193471313 346.21024027114976 526.1024193471313 Q 345.78651145759045 526.1024193471313 345.78651145759045 525.6786905335721 Q 345.78651145759045 525.2549617200127 345.36278264403114 525.2549617200127 Q 344.93905383047183 525.2549617200127 344.51532501691247 524.8312329064534 Q 344.0915962033531 524.4075040928941 343.6678673897938 524.4075040928941 Q 343.2441385762345 524.4075040928941 342.8204097626752 523.9837752793348 Q 342.3966809491159 523.5600464657755 341.5492233219972 523.5600464657755 Q 340.70176569487853 523.5600464657755 340.2780368813192 523.5600464657755 Q 339.8543080677599 523.5600464657755 339.4305792542006 523.1363176522161 Q 339.0068504406413 522.7125888386568 338.583121627082 522.7125888386568 Q 338.1593928135227 522.7125888386568 337.7356639999633 522.7125888386568 Q 337.31193518640396 522.7125888386568 336.46447755928534 522.2888600250974 Q 335.6170199321667 521.8651312115381 335.1932911186074 521.4414023979789 Q 334.7695623050481 521.0176735844195 334.34583349148875 521.0176735844195 Q 333.9221046779294 521.0176735844195 333.4983758643701 521.0176735844195 Q 333.07464705081077 521.0176735844195 333.07464705081077 520.5939447708602 Q 333.07464705081077 520.1702159573009 332.65091823725146 520.1702159573009 Q 332.22718942369215 520.1702159573009 331.80346061013284 520.1702159573009 Q 331.37973179657354 520.1702159573009 330.9560029830142 520.1702159573009 Q 330.5322741694548 520.1702159573009 330.1085453558955 520.1702159573009 Q 329.6848165423362 520.1702159573009 329.2610877287769 520.1702159573009 Q 328.8373589152176 520.1702159573009 327.9899012880989 520.1702159573009 Q 327.14244366098023 520.1702159573009 326.7187148474209 520.1702159573009 Q 326.2949860338616 520.1702159573009 325.8712572203023 520.1702159573009 Q 325.447528406743 520.1702159573009 325.02379959318364 520.1702159573009 Q 324.6000707796243 520.1702159573009 324.17634196606497 520.1702159573009 Q 323.75261315250566 520.1702159573009 323.32888433894635 520.1702159573009 Q 322.90515552538704 520.1702159573009 322.48142671182774 520.1702159573009 Q 322.05769789826843 520.1702159573009 321.63396908470907 520.1702159573009 Q 321.2102402711497 520.1702159573009 320.3627826440311 520.1702159573009 Q 319.51532501691247 520.1702159573009 319.09159620335316 520.1702159573009 Q 318.66786738979386 520.1702159573009 317.8204097626752 520.1702159573009 L 316.9659521355565 520.1702159573009" stroke-linecap="round" />
</g>
<g transform="matrix(1.24 0 0 1.17 326.87 563.95)" id="4BomGKwkk2Kx8Euq202Yk"  >
<path style="stroke: rgb(0,19,255); stroke-width: 0; stroke-dasharray: none; stroke-linecap: round; stroke-dashoffset: 0; stroke-linejoin: round; stroke-miterlimit: 10; fill: rgb(255,0,0); fill-rule: nonzero; opacity: 1;" vector-effect="non-scaling-stroke"  transform=" translate(-323.65, -561.66)" d="M 337.21038983050846 561.6540169491526 Q 337.20338983050846 561.6610169491526 336.77966101694915 561.6610169491526 Q 336.35593220338984 561.6610169491526 335.93220338983053 562.0847457627119 Q 335.5084745762712 562.5084745762713 335.0847457627119 562.5084745762713 Q 334.6610169491526 562.5084745762713 334.23728813559325 563.3559322033899 Q 333.8135593220339 564.2033898305085 333.3898305084746 564.2033898305085 Q 332.96610169491527 564.2033898305085 332.54237288135596 564.6271186440679 Q 332.11864406779665 565.0508474576271 331.69491525423734 565.0508474576271 Q 331.27118644067804 565.0508474576271 331.27118644067804 565.4745762711865 Q 331.27118644067804 565.8983050847459 330.8474576271187 565.8983050847459 Q 330.4237288135593 565.8983050847459 330 566.3220338983051 Q 329.5762711864407 566.7457627118645 329.1525423728814 566.7457627118645 Q 328.7288135593221 566.7457627118645 328.7288135593221 567.1694915254238 Q 328.7288135593221 567.5932203389831 328.3050847457627 567.5932203389831 Q 327.88135593220335 567.5932203389831 327.45762711864404 568.0169491525423 Q 327.03389830508473 568.4406779661017 326.1864406779661 568.4406779661017 Q 325.3389830508475 568.4406779661017 325.3389830508475 568.8644067796611 Q 325.3389830508475 569.2881355932204 324.91525423728814 569.2881355932204 Q 324.4915254237288 569.2881355932204 324.06779661016947 569.2881355932204 Q 323.64406779661016 569.2881355932204 323.22033898305085 570.135593220339 Q 322.79661016949154 570.9830508474577 321.9491525423729 570.9830508474577 Q 321.1016949152542 570.9830508474577 320.6779661016949 571.406779661017 Q 320.2542372881356 571.8305084745763 319.8305084745763 572.2542372881356 Q 319.40677966101697 572.677966101695 318.98305084745766 572.677966101695 Q 318.55932203389835 572.677966101695 318.135593220339 572.677966101695 Q 317.7118644067796 572.677966101695 317.7118644067796 573.1016949152543 Q 317.7118644067796 573.5254237288136 317.2881355932203 573.5254237288136 Q 316.864406779661 573.5254237288136 316.864406779661 573.949152542373 Q 316.864406779661 574.3728813559322 316.4406779661017 574.3728813559322 Q 316.0169491525424 574.3728813559322 315.5932203389831 574.3728813559322 Q 315.1694915254238 574.3728813559322 314.7457627118644 574.7966101694915 Q 314.32203389830505 575.2203389830509 313.89830508474574 575.2203389830509 Q 313.47457627118644 575.2203389830509 313.0508474576271 575.2203389830509 Q 312.6271186440678 575.2203389830509 311.77966101694915 575.2203389830509 Q 310.9322033898305 575.2203389830509 310.9322033898305 574.7966101694915 Q 310.9322033898305 574.3728813559322 310.9322033898305 573.949152542373 Q 310.9322033898305 573.5254237288136 310.9322033898305 573.1016949152543 Q 310.9322033898305 572.677966101695 310.9322033898305 572.2542372881356 Q 310.9322033898305 571.8305084745763 310.9322033898305 571.406779661017 Q 310.9322033898305 570.9830508474577 310.9322033898305 570.5593220338983 Q 310.9322033898305 570.135593220339 310.9322033898305 569.7118644067798 Q 310.9322033898305 569.2881355932204 310.9322033898305 568.8644067796611 Q 310.9322033898305 568.4406779661017 310.9322033898305 568.0169491525423 Q 310.9322033898305 567.5932203389831 310.9322033898305 567.1694915254238 Q 310.9322033898305 566.7457627118645 310.9322033898305 566.3220338983051 Q 310.9322033898305 565.8983050847459 310.9322033898305 565.4745762711865 Q 310.9322033898305 565.0508474576271 310.9322033898305 564.6271186440679 Q 310.9322033898305 564.2033898305085 310.9322033898305 563.7796610169491 Q 310.9322033898305 563.3559322033899 310.9322033898305 562.9322033898306 Q 310.9322033898305 562.5084745762713 310.9322033898305 562.0847457627119 Q 310.9322033898305 561.6610169491526 310.9322033898305 561.2372881355932 Q 310.9322033898305 560.8135593220339 310.9322033898305 560.3898305084747 Q 310.9322033898305 559.9661016949153 310.9322033898305 559.542372881356 Q 310.9322033898305 559.1186440677967 310.9322033898305 558.6949152542373 Q 310.9322033898305 558.271186440678 310.9322033898305 557.4237288135594 Q 310.9322033898305 556.5762711864407 310.9322033898305 556.1525423728815 Q 310.9322033898305 555.7288135593221 310.9322033898305 555.3050847457628 Q 310.9322033898305 554.8813559322034 310.9322033898305 554.457627118644 Q 310.9322033898305 554.0338983050848 310.50847457627117 553.6101694915255 Q 310.08474576271186 553.1864406779662 310.08474576271186 552.7627118644068 Q 310.08474576271186 552.3389830508474 310.08474576271186 551.9152542372881 Q 310.08474576271186 551.4915254237288 310.08474576271186 550.6440677966102 Q 310.08474576271186 549.7966101694916 310.08474576271186 549.3728813559322 Q 310.08474576271186 548.9491525423729 310.08474576271186 548.5254237288136 Q 310.08474576271186 548.1016949152543 310.50847457627117 548.1016949152543 Q 310.9322033898305 548.1016949152543 311.35593220338984 548.1016949152543 Q 311.7796610169492 548.1016949152543 312.2033898305085 548.1016949152543 Q 312.6271186440678 548.1016949152543 313.0508474576271 548.1016949152543 Q 313.47457627118644 548.1016949152543 313.89830508474574 548.1016949152543 Q 314.32203389830505 548.1016949152543 314.7457627118644 548.1016949152543 Q 315.1694915254238 548.1016949152543 315.5932203389831 548.1016949152543 Q 316.0169491525424 548.1016949152543 316.4406779661017 548.1016949152543 Q 316.864406779661 548.1016949152543 317.2881355932203 548.5254237288136 Q 317.7118644067796 548.9491525423729 318.135593220339 548.9491525423729 Q 318.55932203389835 548.9491525423729 318.98305084745766 548.9491525423729 Q 319.40677966101697 548.9491525423729 319.8305084745763 549.3728813559322 Q 320.2542372881356 549.7966101694916 320.6779661016949 549.7966101694916 Q 321.1016949152542 549.7966101694916 321.9491525423729 550.2203389830509 Q 322.79661016949154 550.6440677966102 323.22033898305085 551.0677966101696 Q 323.64406779661016 551.4915254237288 324.06779661016947 551.4915254237288 Q 324.4915254237288 551.4915254237288 324.91525423728814 551.4915254237288 Q 325.3389830508475 551.4915254237288 325.7627118644068 551.9152542372881 Q 326.1864406779661 552.3389830508474 326.6101694915254 552.3389830508474 Q 327.03389830508473 552.3389830508474 327.45762711864404 552.7627118644068 Q 327.88135593220335 553.1864406779662 328.3050847457627 553.6101694915255 Q 328.7288135593221 554.0338983050848 329.1525423728814 554.0338983050848 Q 329.5762711864407 554.0338983050848 330 554.457627118644 Q 330.4237288135593 554.8813559322034 330.8474576271187 554.8813559322034 Q 331.27118644067804 554.8813559322034 331.27118644067804 555.3050847457628 Q 331.27118644067804 555.7288135593221 331.69491525423734 555.7288135593221 Q 332.11864406779665 555.7288135593221 332.54237288135596 555.7288135593221 Q 332.96610169491527 555.7288135593221 333.3898305084746 555.7288135593221 Q 333.8135593220339 555.7288135593221 333.8135593220339 556.1525423728815 Q 333.8135593220339 556.5762711864407 334.23728813559325 556.5762711864407 Q 334.6610169491526 556.5762711864407 334.6610169491526 557 Q 334.6610169491526 557.4237288135594 335.0847457627119 557.4237288135594 Q 335.5084745762712 557.4237288135594 335.93220338983053 557.4237288135594 Q 336.35593220338984 557.4237288135594 336.77966101694915 557.8474576271187 Q 337.20338983050846 558.271186440678 337.20338983050846 558.6949152542373 Q 337.20338983050846 559.1186440677967 337.20338983050846 559.542372881356 Q 337.20338983050846 559.9661016949153 337.20338983050846 560.3898305084747 Q 337.20338983050846 560.8135593220339 336.77966101694915 560.8135593220339 Q 336.35593220338984 560.8135593220339 335.93220338983053 560.8135593220339 Q 335.5084745762712 560.8135593220339 335.0847457627119 560.8135593220339 Q 334.6610169491526 560.8135593220339 334.23728813559325 560.8135593220339 Q 333.8135593220339 560.8135593220339 332.96610169491527 560.8135593220339 L 332.11164406779665 560.8135593220339" stroke-linecap="round" />
</g>
</svg>