<?xml version="1.0" encoding="UTF-8" standalone="no" ?>
<!DOCTYPE svg PUBLIC "-//W3C//DTD SVG 1.1//EN" "http://www.w3.org/Graphics/SVG/1.1/DTD/svg11.dtd">
<svg xmlns="http://www.w3.org/2000/svg" xmlns:xlink="http://www.w3.org/1999/xlink" version="1.1" width="269.064483111566" height="138.05117707267152" viewBox="159.1371545547595 256.77072671443193 269.064483111566 138.05117707267152" xml:space="preserve">
<desc>Created with Fabric.js 4.6.0</desc>
<defs>
</defs>
<g transform="matrix(1 0 0 1 379.81 325.14)" id="O-fBeK0UEuIUuRz730JUK"  >
<path style="stroke: rgb(255,255,255); stroke-width: 0; stroke-dasharray: none; stroke-linecap: round; stroke-dashoffset: 0; stroke-linejoin: round; stroke-miterlimit: 10; fill: rgb(255,255,255); fill-rule: nonzero; opacity: 1;" vector-effect="non-scaling-stroke"  transform=" translate(-379.81, -325.14)" d="M 399.1351074718526 293.68805527123857 Q 399.1351074718526 293.69805527123856 398.80757420675536 293.69805527123856 Q 398.48004094165816 293.69805527123856 398.48004094165816 294.02558853633576 Q 398.48004094165816 294.35312180143296 398.15250767656096 294.6806550665302 Q 397.8249744114637 295.0081883316275 397.49744114636644 295.66325486182194 Q 397.16990788126924 296.3183213920164 396.842374616172 296.64585465711366 Q 396.5148413510747 296.9733879222109 396.1873080859775 297.6284544524054 Q 395.85977482088026 298.28352098259984 394.8771750255886 298.9385875127943 Q 393.8945752302969 299.59365404298876 392.91197543500516 300.90378710337774 Q 391.92937563971344 302.2139201637667 391.274309109519 302.8689866939612 Q 390.61924257932446 303.52405322415564 389.96417604913 304.1791197543501 Q 389.30910951893554 304.83418628454456 388.6540429887411 305.489252814739 Q 387.9989764585466 306.1443193449335 387.67144319344936 306.799385875128 Q 387.3439099283521 307.4544524053225 386.36131013306044 308.109518935517 Q 385.3787103377687 308.76458546571143 385.0511770726715 309.4196519959059 Q 384.72364380757426 310.07471852610036 383.74104401228254 311.0573183213921 Q 382.7584442169908 312.0399181166838 382.1033776867963 312.69498464687825 Q 381.44831115660185 313.3500511770727 380.7932446264074 314.0051177072672 Q 380.1381780962129 314.66018423746164 379.48311156601847 315.31525076765615 Q 378.828045035824 315.97031729785067 378.17297850562954 316.62538382804513 Q 377.517911975435 317.2804503582396 377.19037871033777 317.6079836233368 Q 376.86284544524057 317.935516888434 376.2077789150461 318.26305015353125 Q 375.5527123848516 318.5905834186285 374.8976458546571 319.57318321392023 Q 374.24257932446267 320.55578300921195 373.5875127942682 320.88331627430915 Q 372.93244626407375 321.21084953940635 372.6049129989765 321.86591606960087 Q 372.27737973387923 322.5209825997954 371.94984646878197 323.17604912998985 Q 371.62231320368477 323.8311156601843 370.9672466734903 324.1586489252815 Q 370.31218014329585 324.4861821903787 369.9846468781986 324.813715455476 Q 369.65711361310133 325.14124872057323 369.65711361310133 325.4687819856705 Q 369.65711361310133 325.79631525076775 369.32958034800413 326.12384851586495 Q 369.00204708290687 326.45138178096215 369.00204708290687 326.7789150460594 Q 369.00204708290687 327.10644831115667 368.3469805527124 327.43398157625387 Q 367.69191402251795 327.7615148413511 367.3643807574207 328.4165813715456 Q 367.0368474923235 329.0716479017401 366.70931422722623 329.72671443193457 Q 366.38178096212897 330.381780962129 366.05424769703177 330.7093142272263 Q 365.7267144319345 331.03684749232355 365.07164790174005 331.691914022518 Q 364.4165813715456 332.34698055271247 364.08904810644833 333.0020470829069 Q 363.7615148413511 333.6571136131014 363.4339815762538 333.98464687819865 Q 363.1064483111566 334.3121801432959 362.45138178096215 335.29477993858757 Q 361.7963152507677 336.27737973387923 361.7963152507677 336.6049129989765 Q 361.7963152507677 336.93244626407375 361.4687819856705 337.259979529171 Q 361.14124872057323 337.58751279426826 360.813715455476 338.2425793244627 Q 360.4861821903787 338.8976458546572 359.83111566018425 339.55271238485165 Q 359.1760491299898 340.2077789150461 358.84851586489253 340.86284544524057 Q 358.52098259979533 341.517911975435 358.19344933469813 341.8454452405323 Q 357.86591606960087 342.17297850562954 357.21084953940635 342.5005117707268 Q 356.5557830092119 342.82804503582406 356.2282497441147 343.4831115660185 Q 355.90071647901743 344.138178096213 355.5731832139202 344.4657113613102 Q 355.245649948823 344.7932446264074 354.5905834186285 345.4483111566019 Q 353.935516888434 346.1033776867964 353.28045035823953 347.0859774820881 Q 352.6253838280451 348.06857727737975 351.97031729785056 348.72364380757426 Q 351.3152507676561 349.3787103377688 351.3152507676561 349.706243602866 Q 351.3152507676561 350.0337768679632 350.9877175025589 350.36131013306044 Q 350.66018423746164 350.6888433981577 350.3326509723644 351.0163766632549 Q 350.0051177072672 351.3439099283521 349.67758444217 351.9989764585466 Q 349.3500511770727 352.65404298874114 349.02251791197546 352.98157625383834 Q 348.6949846468782 353.30910951893554 348.6949846468782 353.6366427840328 Q 348.6949846468782 353.96417604913006 348.36745138178094 353.96417604913006 Q 348.03991811668374 353.96417604913006 348.03991811668374 354.29170931422726 Q 348.03991811668374 354.61924257932446 347.71238485158653 354.9467758444217 Q 347.3848515864893 355.274309109519 347.3848515864893 355.60184237461624 Q 347.3848515864893 355.9293756397135 347.3848515864893 356.2569089048107 Q 347.3848515864893 356.5844421699079 347.057318321392 356.91197543500516 Q 346.7297850562948 357.2395087001024 346.4022517911976 357.5670419651997 Q 346.07471852610036 357.89457523029694 346.07471852610036 358.5496417604914 Q 346.07471852610036 359.20470829068586 345.7471852610031 359.53224155578306 Q 345.41965199590584 359.85977482088026 345.41965199590584 360.1873080859775 Q 345.41965199590584 360.5148413510748 345.41965199590584 360.84237461617204 Q 345.41965199590584 361.1699078812693 345.41965199590584 361.4974411463665 Q 345.41965199590584 361.8249744114637 345.41965199590584 362.48004094165816 Q 345.41965199590584 363.1351074718526 345.41965199590584 363.4626407369499 Q 345.41965199590584 363.79017400204714 345.41965199590584 364.1177072671444 Q 345.41965199590584 364.44524053224166 345.41965199590584 364.77277379733886 Q 345.41965199590584 365.10030706243606 345.7471852610031 365.10030706243606 Q 346.07471852610036 365.10030706243606 346.4022517911976 365.10030706243606 Q 346.7297850562948 365.10030706243606 347.057318321392 365.4278403275333 Q 347.3848515864893 365.7553735926306 347.71238485158653 365.7553735926306 Q 348.03991811668374 365.7553735926306 348.36745138178094 365.7553735926306 Q 348.6949846468782 365.7553735926306 349.02251791197546 365.7553735926306 Q 349.3500511770727 365.7553735926306 349.67758444217 365.7553735926306 Q 350.0051177072672 365.7553735926306 350.3326509723644 365.7553735926306 Q 350.66018423746164 365.7553735926306 350.9877175025589 365.7553735926306 Q 351.3152507676561 365.7553735926306 351.64278403275335 365.7553735926306 Q 351.9703172978506 365.7553735926306 352.6253838280451 365.4278403275333 Q 353.28045035823953 365.10030706243606 353.60798362333674 364.77277379733886 Q 353.935516888434 364.44524053224166 354.26305015353125 364.44524053224166 Q 354.59058341862846 364.44524053224166 354.9181166837257 364.44524053224166 Q 355.245649948823 364.44524053224166 355.5731832139202 364.1177072671444 Q 355.90071647901743 363.79017400204714 356.88331627430915 363.1351074718527 Q 357.86591606960087 362.4800409416582 358.84851586489253 362.15250767656096 Q 359.83111566018425 361.8249744114637 360.15864892528145 361.4974411463665 Q 360.4861821903787 361.1699078812693 360.813715455476 360.84237461617204 Q 361.14124872057323 360.5148413510748 361.14124872057323 360.1873080859775 Q 361.14124872057323 359.85977482088026 361.4687819856705 359.85977482088026 Q 361.7963152507677 359.85977482088026 362.1238485158649 359.85977482088026 Q 362.45138178096215 359.85977482088026 362.7789150460594 359.53224155578306 Q 363.1064483111566 359.20470829068586 363.4339815762538 358.8771750255886 Q 363.7615148413511 358.54964176049134 363.7615148413511 358.22210849539414 Q 363.7615148413511 357.89457523029694 364.08904810644833 357.5670419651997 Q 364.4165813715456 357.2395087001024 364.74411463664285 356.91197543500516 Q 365.07164790174005 356.5844421699079 365.39918116683725 356.2569089048107 Q 365.7267144319345 355.9293756397135 366.05424769703177 355.60184237461624 Q 366.38178096212897 355.274309109519 366.38178096212897 354.9467758444217 Q 366.38178096212897 354.61924257932446 366.70931422722623 354.29170931422726 Q 367.0368474923235 353.96417604913006 367.0368474923235 353.6366427840328 Q 367.0368474923235 353.30910951893554 367.69191402251795 352.98157625383834 Q 368.3469805527124 352.65404298874114 368.6745138178096 352.3265097236439 Q 369.00204708290687 351.9989764585466 369.00204708290687 351.34390992835216 Q 369.00204708290687 350.6888433981577 369.32958034800413 350.36131013306044 Q 369.65711361310133 350.0337768679632 369.65711361310133 349.706243602866 Q 369.65711361310133 349.3787103377688 369.9846468781986 349.3787103377688 Q 370.31218014329585 349.3787103377688 370.63971340839305 349.0511770726715 Q 370.9672466734903 348.72364380757426 370.9672466734903 348.396110542477 Q 370.9672466734903 348.06857727737975 371.29477993858757 347.74104401228254 Q 371.62231320368477 347.41351074718534 371.94984646878197 347.0859774820881 Q 372.27737973387923 346.7584442169908 372.27737973387923 346.4309109518936 Q 372.27737973387923 346.1033776867964 372.6049129989765 346.1033776867964 Q 372.93244626407375 346.1033776867964 373.259979529171 345.77584442169916 Q 373.5875127942682 345.4483111566019 373.5875127942682 345.12077789150464 Q 373.5875127942682 344.7932446264074 373.9150460593654 344.4657113613102 Q 374.24257932446267 344.138178096213 374.5701125895599 343.8106448311157 Q 374.8976458546571 343.48311156601847 375.5527123848516 342.828045035824 Q 376.2077789150461 342.17297850562954 376.53531218014336 341.8454452405323 Q 376.86284544524057 341.517911975435 377.19037871033777 340.86284544524057 Q 377.517911975435 340.2077789150461 378.17297850562954 339.88024564994885 Q 378.828045035824 339.5527123848516 379.48311156601847 338.8976458546571 Q 380.1381780962129 338.24257932446267 380.7932446264074 337.91504605936547 Q 381.44831115660185 337.58751279426826 381.7758444216991 337.259979529171 Q 382.10337768679636 336.93244626407375 382.43091095189357 336.2773797338793 Q 382.7584442169908 335.6223132036848 383.4135107471853 335.29477993858757 Q 384.06857727737975 334.9672466734903 384.396110542477 334.6397134083931 Q 384.72364380757426 334.3121801432959 385.0511770726715 333.6571136131014 Q 385.3787103377687 333.00204708290687 386.0337768679632 332.67451381780967 Q 386.68884339815764 332.34698055271247 387.01637666325485 332.0194472876152 Q 387.3439099283521 331.69191402251795 387.9989764585466 331.36438075742075 Q 388.6540429887411 331.03684749232355 388.6540429887411 330.7093142272263 Q 388.6540429887411 330.381780962129 389.30910951893554 330.05424769703177 Q 389.96417604913 329.7267144319345 389.96417604913 329.3991811668373 Q 389.96417604913 329.0716479017401 390.2917093142272 328.74411463664285 Q 390.61924257932446 328.4165813715456 390.9467758444217 328.08904810644833 Q 391.274309109519 327.7615148413511 391.92937563971344 327.43398157625387 Q 392.5844421699079 327.10644831115667 392.91197543500516 326.7789150460594 Q 393.23950870010236 326.45138178096215 393.5670419651996 326.12384851586495 Q 393.8945752302969 325.79631525076775 393.8945752302969 325.14124872057323 Q 393.8945752302969 324.4861821903787 394.54964176049134 324.4861821903787 Q 395.2047082906858 324.4861821903787 395.2047082906858 324.1586489252815 Q 395.2047082906858 323.8311156601843 395.532241555783 323.50358239508705 Q 395.85977482088026 323.1760491299898 396.1873080859775 322.52098259979533 Q 396.5148413510747 321.86591606960087 397.1699078812692 321.5383828045036 Q 397.8249744114637 321.21084953940635 397.8249744114637 320.88331627430915 Q 397.8249744114637 320.55578300921195 398.15250767656096 319.9007164790175 Q 398.48004094165816 319.24564994882303 398.80757420675536 318.91811668372577 Q 399.1351074718526 318.5905834186285 399.1351074718526 318.26305015353125 Q 399.1351074718526 317.935516888434 399.4626407369499 317.935516888434 Q 399.79017400204714 317.935516888434 400.1177072671444 317.28045035823953 Q 400.4452405322416 316.6253838280451 400.7727737973388 316.2978505629479 Q 401.10030706243606 315.97031729785067 401.4278403275333 315.6427840327534 Q 401.7553735926305 315.31525076765615 401.7553735926305 314.6601842374617 Q 401.7553735926305 314.00511770726723 402.0829068577277 314.00511770726723 Q 402.410440122825 314.00511770726723 402.73797338792224 313.67758444217 Q 403.0655066530195 313.3500511770727 403.0655066530195 313.02251791197546 Q 403.0655066530195 312.6949846468782 403.39303991811676 312.367451381781 Q 403.72057318321396 312.0399181166838 404.04810644831116 311.38485158648933 Q 404.3756397134084 310.7297850562949 404.3756397134084 310.4022517911976 Q 404.3756397134084 310.07471852610036 404.7031729785057 309.7471852610031 Q 405.0307062436029 309.41965199590584 405.3582395087001 309.09211873080864 Q 405.68577277379734 308.76458546571143 406.0133060388946 308.109518935517 Q 406.34083930399186 307.4544524053225 406.6683725690891 306.799385875128 Q 406.9959058341863 306.1443193449335 406.9959058341863 305.8167860798363 Q 406.9959058341863 305.4892528147391 407.3234390992835 305.1617195496418 Q 407.6509723643808 304.83418628454456 408.3060388945753 304.50665301944736 Q 408.96110542476976 304.17911975435015 408.96110542476976 303.52405322415564 Q 408.96110542476976 302.8689866939611 409.28863868986696 302.5414534288639 Q 409.6161719549642 302.2139201637667 409.9437052200615 301.88638689866946 Q 410.2712384851587 301.5588536335722 410.2712384851587 301.231320368475 Q 410.2712384851587 300.9037871033778 410.92630501535314 300.57625383828054 Q 411.5813715455476 300.2487205731833 411.5813715455476 299.921187308086 Q 411.5813715455476 299.59365404298876 411.90890481064486 299.26612077789156 Q 412.2364380757421 298.93858751279436 412.5639713408393 298.28352098259984 Q 412.8915046059366 297.6284544524053 412.8915046059366 296.97338792221086 Q 412.8915046059366 296.3183213920164 413.21903787103383 295.9907881269192 Q 413.54657113613104 295.663254861822 413.54657113613104 295.33572159672474 Q 413.54657113613104 295.0081883316275 413.87410440122824 294.6806550665302 Q 414.2016376663255 294.35312180143296 414.2016376663255 293.6980552712385 Q 414.2016376663255 293.04298874104404 414.2016376663255 292.71545547594684 Q 414.2016376663255 292.38792221084964 414.2016376663255 292.0603889457524 Q 414.2016376663255 291.7328556806551 414.2016376663255 291.40532241555786 Q 414.2016376663255 291.0777891504606 414.2016376663255 290.7502558853634 Q 414.2016376663255 290.4227226202662 414.2016376663255 290.09518935516894 Q 414.2016376663255 289.7676560900717 414.2016376663255 289.4401228249745 Q 414.2016376663255 289.1125895598773 414.2016376663255 288.12998976458556 Q 414.2016376663255 287.14738996929384 414.2016376663255 286.8198567041966 Q 414.2016376663255 286.4923234390993 414.2016376663255 286.16479017400206 Q 414.2016376663255 285.8372569089048 413.87410440122824 285.5097236438076 Q 413.54657113613104 285.1821903787104 413.54657113613104 284.85465711361314 Q 413.54657113613104 284.5271238485159 413.21903787103383 284.5271238485159 Q 412.8915046059366 284.5271238485159 412.5639713408393 284.5271238485159 Q 412.2364380757421 284.5271238485159 411.90890481064486 284.5271238485159 Q 411.5813715455476 284.5271238485159 411.2538382804504 284.5271238485159 Q 410.92630501535314 284.5271238485159 410.5987717502559 284.5271238485159 Q 410.2712384851587 284.5271238485159 409.9437052200615 284.5271238485159 Q 409.6161719549642 284.5271238485159 409.28863868986696 284.5271238485159 Q 408.96110542476976 284.5271238485159 408.6335721596725 284.5271238485159 Q 408.30603889457524 284.5271238485159 407.97850562947804 284.5271238485159 Q 407.6509723643808 284.5271238485159 407.3234390992835 284.85465711361314 Q 406.9959058341863 285.1821903787104 406.6683725690891 285.1821903787104 Q 406.34083930399186 285.1821903787104 406.34083930399186 285.5097236438076 Q 406.34083930399186 285.8372569089048 405.68577277379734 285.8372569089048 Q 405.0307062436029 285.8372569089048 405.0307062436029 286.16479017400206 Q 405.0307062436029 286.4923234390993 404.7031729785057 286.4923234390993 Q 404.3756397134084 286.4923234390993 404.04810644831116 286.8198567041966 Q 403.72057318321396 287.14738996929384 403.39303991811676 287.47492323439104 Q 403.0655066530195 287.80245649948824 402.73797338792224 288.1299897645855 Q 402.410440122825 288.45752302968276 402.0829068577277 288.78505629478 Q 401.7553735926305 289.1125895598773 401.4278403275333 289.1125895598773 Q 401.10030706243606 289.1125895598773 401.10030706243606 289.76765609007174 Q 401.10030706243606 290.4227226202662 400.7727737973388 290.4227226202662 Q 400.4452405322416 290.4227226202662 400.1177072671444 290.7502558853634 Q 399.79017400204714 291.0777891504606 399.79017400204714 291.40532241555786 Q 399.79017400204714 291.7328556806551 399.4626407369499 291.7328556806551 Q 399.1351074718526 291.7328556806551 399.1351074718526 292.0603889457524 Q 399.1351074718526 292.38792221084964 398.80757420675536 292.71545547594684 Q 398.48004094165816 293.04298874104404 398.48004094165816 293.3705220061413 Q 398.48004094165816 293.69805527123856 398.15250767656096 293.69805527123856 Q 397.8249744114637 293.69805527123856 397.49744114636644 294.02558853633576 Q 397.16990788126924 294.35312180143296 397.16990788126924 294.6806550665302 Q 397.16990788126924 295.0081883316275 396.842374616172 295.33572159672474 Q 396.5148413510747 295.663254861822 396.1873080859775 295.9907881269192 Q 395.85977482088026 296.3183213920164 395.85977482088026 296.64585465711366 Q 395.85977482088026 296.9733879222109 395.532241555783 297.3009211873081 Q 395.2047082906858 297.6284544524053 394.8771750255886 297.9559877175026 Q 394.54964176049134 298.28352098259984 394.54964176049134 298.6110542476971 Q 394.54964176049134 298.93858751279436 394.2221084953941 298.93858751279436 Q 393.8945752302969 298.93858751279436 393.8945752302969 299.26612077789156 Q 393.8945752302969 299.59365404298876 393.5670419651996 299.921187308086 Q 393.23950870010236 300.2487205731833 392.91197543500516 300.57625383828054 Q 392.5844421699079 300.9037871033778 392.25690890481064 301.231320368475 Q 391.92937563971344 301.5588536335722 391.60184237461624 301.88638689866946 Q 391.274309109519 302.2139201637667 390.9467758444217 302.5414534288639 Q 390.61924257932446 302.8689866939611 390.61924257932446 303.1965199590584 Q 390.61924257932446 303.52405322415564 389.96417604913 303.8515864892529 Q 389.30910951893554 304.17911975435015 388.9815762538383 304.50665301944736 Q 388.6540429887411 304.83418628454456 388.6540429887411 305.1617195496418 Q 388.6540429887411 305.4892528147391 388.3265097236439 305.4892528147391 Q 387.9989764585466 305.4892528147391 387.9989764585466 305.8167860798363 Q 387.9989764585466 306.1443193449335 387.67144319344936 306.47185261003074 Q 387.3439099283521 306.799385875128 386.68884339815764 307.12691914022525 Q 386.0337768679632 307.4544524053225 385.7062436028659 307.7819856704197 Q 385.3787103377687 308.1095189355169 385.3787103377687 308.4370522006142 Q 385.3787103377687 308.76458546571143 385.0511770726715 309.09211873080864 Q 384.72364380757426 309.41965199590584 384.396110542477 309.41965199590584 Q 384.06857727737975 309.41965199590584 383.7410440122825 309.7471852610031 Q 383.4135107471853 310.07471852610036 383.4135107471853 310.4022517911976 Q 383.4135107471853 310.7297850562949 383.0859774820881 310.7297850562949 Q 382.7584442169908 310.7297850562949 382.7584442169908 311.0573183213921 Q 382.7584442169908 311.3848515864893 382.43091095189357 311.71238485158653 Q 382.10337768679636 312.0399181166838 381.7758444216991 312.367451381781 L 381.43831115660186 312.7049846468782" stroke-linecap="round" />
</g>
<g transform="matrix(1 0 0 1 304.81 320.23)" id="cQ6oN8LyVfQTNqHlP182_"  >
<path style="stroke: rgb(255,255,255); stroke-width: 0; stroke-dasharray: none; stroke-linecap: round; stroke-dashoffset: 0; stroke-linejoin: round; stroke-miterlimit: 10; fill: rgb(255,255,255); fill-rule: nonzero; opacity: 1;" vector-effect="non-scaling-stroke"  transform=" translate(-304.81, -320.23)" d="M 287.77379733879224 361.8349744114637 Q 287.77379733879224 361.8249744114637 287.77379733879224 361.16990788126924 Q 287.77379733879224 360.5148413510748 287.77379733879224 360.1873080859775 Q 287.77379733879224 359.85977482088026 287.77379733879224 359.53224155578306 Q 287.77379733879224 359.20470829068586 287.77379733879224 358.5496417604914 Q 287.77379733879224 357.89457523029694 287.77379733879224 357.5670419651997 Q 287.77379733879224 357.2395087001024 287.77379733879224 356.58444216990796 Q 287.77379733879224 355.9293756397135 287.77379733879224 355.274309109519 Q 287.77379733879224 354.61924257932446 287.77379733879224 353.6366427840328 Q 287.77379733879224 352.65404298874114 288.10133060388944 351.9989764585466 Q 288.4288638689867 351.3439099283521 288.75639713408395 349.7062436028659 Q 289.0839303991812 348.06857727737975 289.4114636642785 346.7584442169908 Q 289.7389969293757 345.4483111566019 290.0665301944729 344.4657113613102 Q 290.39406345957013 343.48311156601847 290.7215967246674 342.17297850562954 Q 291.0491299897646 340.8628454452406 291.3766632548618 339.55271238485165 Q 291.70419651995905 338.24257932446267 291.70419651995905 337.25997952917095 Q 291.70419651995905 336.27737973387923 292.0317297850563 335.29477993858757 Q 292.3592630501536 334.3121801432959 292.3592630501536 333.6571136131014 Q 292.3592630501536 333.00204708290687 292.3592630501536 332.67451381780967 Q 292.3592630501536 332.34698055271247 292.3592630501536 331.691914022518 Q 292.3592630501536 331.03684749232355 292.68679631525083 330.0542476970318 Q 293.01432958034803 329.0716479017401 293.01432958034803 328.0890481064484 Q 293.01432958034803 327.10644831115667 293.01432958034803 326.4513817809622 Q 293.01432958034803 325.79631525076775 293.34186284544523 324.81371545547603 Q 293.6693961105425 323.8311156601843 293.6693961105425 323.17604912998985 Q 293.6693961105425 322.5209825997954 293.99692937563975 321.53838280450367 Q 294.32446264073695 320.55578300921195 294.32446264073695 319.9007164790175 Q 294.32446264073695 319.24564994882303 294.6519959058342 318.5905834186285 Q 294.97952917093147 317.935516888434 294.97952917093147 317.28045035823953 Q 294.97952917093147 316.6253838280451 295.3070624360287 315.64278403275335 Q 295.63459570112593 314.66018423746164 295.63459570112593 314.33265097236443 Q 295.63459570112593 314.00511770726723 295.63459570112593 313.67758444217 Q 295.63459570112593 313.3500511770727 295.9621289662232 312.69498464687825 Q 296.2896622313204 312.0399181166838 296.6171954964176 311.71238485158653 Q 296.94472876151485 311.3848515864893 296.94472876151485 310.40225179119756 Q 296.94472876151485 309.41965199590584 297.2722620266121 309.09211873080864 Q 297.5997952917093 308.76458546571143 297.5997952917093 308.4370522006142 Q 297.5997952917093 308.1095189355169 297.9273285568066 307.1269191402252 Q 298.25486182190383 306.1443193449335 298.25486182190383 305.1617195496418 Q 298.25486182190383 304.17911975435015 298.58239508700103 303.8515864892529 Q 298.9099283520983 303.52405322415564 299.23746161719555 302.8689866939612 Q 299.56499488229275 302.2139201637667 299.56499488229275 301.88638689866946 Q 299.56499488229275 301.5588536335722 299.89252814738995 300.5762538382805 Q 300.2200614124872 299.59365404298876 300.2200614124872 299.26612077789156 Q 300.2200614124872 298.93858751279436 300.54759467758447 298.6110542476971 Q 300.87512794268173 298.28352098259984 300.87512794268173 297.6284544524054 Q 300.87512794268173 296.9733879222109 301.202661207779 296.31832139201646 Q 301.5301944728762 295.663254861822 301.5301944728762 295.33572159672474 Q 301.5301944728762 295.0081883316275 301.5301944728762 294.6806550665302 Q 301.5301944728762 294.35312180143296 301.5301944728762 294.02558853633576 Q 301.5301944728762 293.69805527123856 301.8577277379734 293.0429887410441 Q 302.18526100307065 292.38792221084964 302.5127942681679 291.7328556806551 Q 302.8403275332651 291.0777891504606 303.1678607983623 290.42272262026614 Q 303.49539406345957 289.7676560900717 303.49539406345957 289.4401228249745 Q 303.49539406345957 289.1125895598773 303.49539406345957 288.78505629478 Q 303.49539406345957 288.45752302968276 303.49539406345957 288.1299897645855 Q 303.49539406345957 287.80245649948824 303.82292732855683 287.80245649948824 Q 304.1504605936541 287.80245649948824 304.1504605936541 287.1473899692938 Q 304.1504605936541 286.4923234390993 304.47799385875135 285.83725690890486 Q 304.80552712384855 285.1821903787104 305.13306038894575 284.85465711361314 Q 305.460593654043 284.5271238485159 305.460593654043 284.1995905834187 Q 305.460593654043 283.8720573183215 305.78812691914027 283.5445240532242 Q 306.11566018423747 283.21699078812696 306.11566018423747 282.8894575230297 Q 306.11566018423747 282.56192425793245 306.4431934493347 281.906857727738 Q 306.77072671443193 281.2517911975435 307.0982599795292 280.9242579324463 Q 307.42579324462645 280.5967246673491 307.42579324462645 280.26919140225186 Q 307.42579324462645 279.9416581371546 307.7533265097237 279.9416581371546 Q 308.0808597748209 279.9416581371546 308.0808597748209 279.61412487205735 Q 308.0808597748209 279.2865916069601 308.4083930399181 278.3039918116684 Q 308.73592630501537 277.32139201637676 309.0634595701126 277.32139201637676 Q 309.39099283520983 277.32139201637676 309.7185261003071 276.9938587512795 Q 310.04605936540435 276.66632548618225 310.37359263050155 276.338792221085 Q 310.7011258955988 276.0112589559877 310.7011258955988 275.6837256908905 Q 310.7011258955988 275.3561924257933 311.02865916069607 275.3561924257933 Q 311.35619242579327 275.3561924257933 311.68372569089047 274.70112589559886 Q 312.0112589559877 274.0460593654044 312.66632548618225 273.3909928352099 Q 313.3213920163767 272.73592630501537 313.6489252814739 272.40839303991817 Q 313.97645854657117 272.08085977482096 314.3039918116684 271.7533265097237 Q 314.6315250767656 271.42579324462645 314.95905834186283 271.42579324462645 Q 315.2865916069601 271.42579324462645 315.61412487205735 271.0982599795292 Q 315.9416581371546 270.77072671443193 316.26919140225186 270.77072671443193 Q 316.59672466734906 270.77072671443193 316.92425793244627 270.77072671443193 Q 317.2517911975435 270.77072671443193 317.2517911975435 271.0982599795292 Q 317.2517911975435 271.42579324462645 317.2517911975435 271.7533265097237 Q 317.2517911975435 272.08085977482096 317.5793244626408 272.40839303991817 Q 317.906857727738 272.73592630501537 318.2343909928352 272.73592630501537 Q 318.56192425793245 272.73592630501537 318.56192425793245 273.0634595701126 Q 318.56192425793245 273.3909928352099 318.8894575230297 273.71852610030714 Q 319.21699078812696 274.0460593654044 319.21699078812696 274.3735926305016 Q 319.21699078812696 274.7011258955988 319.5445240532242 275.02865916069607 Q 319.8720573183214 275.3561924257933 319.8720573183214 275.6837256908905 Q 319.8720573183214 276.0112589559877 319.8720573183214 276.338792221085 Q 319.8720573183214 276.66632548618225 319.8720573183214 276.9938587512795 Q 319.8720573183214 277.32139201637676 320.1995905834186 277.64892528147396 Q 320.5271238485159 277.97645854657117 320.5271238485159 278.3039918116684 Q 320.5271238485159 278.6315250767657 320.85465711361314 278.9590583418629 Q 321.18219037871035 279.2865916069601 321.18219037871035 279.61412487205735 Q 321.18219037871035 279.9416581371546 321.18219037871035 280.26919140225186 Q 321.18219037871035 280.5967246673491 321.18219037871035 280.9242579324463 Q 321.18219037871035 281.2517911975435 321.50972364380755 281.5793244626408 Q 321.8372569089048 281.90685772773804 321.8372569089048 282.5619242579325 Q 321.8372569089048 283.21699078812696 321.8372569089048 283.5445240532242 Q 321.8372569089048 283.8720573183215 321.8372569089048 284.1995905834187 Q 321.8372569089048 284.5271238485159 321.8372569089048 285.18219037871035 Q 321.8372569089048 285.8372569089048 321.8372569089048 286.4923234390993 Q 321.8372569089048 287.14738996929384 321.8372569089048 287.8024564994883 Q 321.8372569089048 288.45752302968276 321.8372569089048 289.1125895598772 Q 321.8372569089048 289.7676560900717 321.8372569089048 290.09518935516894 Q 321.8372569089048 290.4227226202662 321.8372569089048 290.7502558853634 Q 321.8372569089048 291.0777891504606 321.8372569089048 291.7328556806551 Q 321.8372569089048 292.38792221084964 321.8372569089048 293.0429887410441 Q 321.8372569089048 293.69805527123856 321.8372569089048 294.02558853633576 Q 321.8372569089048 294.35312180143296 321.8372569089048 294.6806550665302 Q 321.8372569089048 295.0081883316275 321.8372569089048 295.66325486182194 Q 321.8372569089048 296.3183213920164 321.50972364380755 296.64585465711366 Q 321.18219037871035 296.9733879222109 321.18219037871035 297.3009211873081 Q 321.18219037871035 297.6284544524053 321.18219037871035 297.9559877175026 Q 321.18219037871035 298.28352098259984 321.18219037871035 298.6110542476971 Q 321.18219037871035 298.93858751279436 321.18219037871035 299.26612077789156 Q 321.18219037871035 299.59365404298876 321.18219037871035 299.921187308086 Q 321.18219037871035 300.2487205731833 320.85465711361314 300.57625383828054 Q 320.5271238485159 300.9037871033778 320.5271238485159 301.55885363357226 Q 320.5271238485159 302.2139201637667 320.1995905834186 302.5414534288639 Q 319.8720573183214 302.8689866939611 319.8720573183214 303.1965199590584 Q 319.8720573183214 303.52405322415564 319.8720573183214 304.1791197543501 Q 319.8720573183214 304.83418628454456 319.8720573183214 305.1617195496418 Q 319.8720573183214 305.4892528147391 319.5445240532242 306.4718526100308 Q 319.21699078812696 307.4544524053225 318.8894575230297 308.109518935517 Q 318.56192425793245 308.76458546571143 318.2343909928352 309.74718526100315 Q 317.906857727738 310.7297850562949 317.5793244626408 311.38485158648933 Q 317.2517911975435 312.0399181166838 317.2517911975435 312.367451381781 Q 317.2517911975435 312.6949846468782 316.92425793244627 313.3500511770727 Q 316.59672466734906 314.00511770726723 316.26919140225186 314.6601842374617 Q 315.9416581371546 315.31525076765615 315.61412487205735 316.2978505629479 Q 315.2865916069601 317.2804503582396 314.95905834186283 318.2630501535313 Q 314.6315250767656 319.24564994882303 314.3039918116684 320.2282497441147 Q 313.97645854657117 321.21084953940635 313.97645854657117 321.5383828045036 Q 313.97645854657117 321.86591606960087 313.6489252814739 322.19344933469813 Q 313.3213920163767 322.5209825997954 312.99385875127945 322.8485158648926 Q 312.6663254861822 323.1760491299898 312.6663254861822 323.83111566018425 Q 312.6663254861822 324.4861821903787 312.6663254861822 324.813715455476 Q 312.6663254861822 325.14124872057323 312.338792221085 325.7963152507677 Q 312.0112589559877 326.45138178096215 312.0112589559877 326.7789150460594 Q 312.0112589559877 327.10644831115667 312.0112589559877 327.43398157625387 Q 312.0112589559877 327.7615148413511 311.68372569089047 328.08904810644833 Q 311.35619242579327 328.4165813715456 311.35619242579327 328.74411463664285 Q 311.35619242579327 329.0716479017401 311.02865916069607 329.3991811668373 Q 310.7011258955988 329.7267144319345 310.37359263050155 330.381780962129 Q 310.04605936540435 331.03684749232355 310.04605936540435 331.36438075742075 Q 310.04605936540435 331.69191402251795 310.04605936540435 332.0194472876152 Q 310.04605936540435 332.34698055271247 309.7185261003071 332.67451381780967 Q 309.39099283520983 333.00204708290687 309.39099283520983 333.9846468781986 Q 309.39099283520983 334.9672466734903 309.0634595701126 336.2773797338793 Q 308.73592630501537 337.58751279426826 308.73592630501537 337.91504605936547 Q 308.73592630501537 338.24257932446267 308.73592630501537 338.5701125895599 Q 308.73592630501537 338.8976458546572 308.73592630501537 339.2251791197544 Q 308.73592630501537 339.5527123848516 308.73592630501537 339.88024564994885 Q 308.73592630501537 340.2077789150461 308.0808597748209 341.5179119754351 Q 307.42579324462645 342.82804503582406 307.42579324462645 343.15557830092126 Q 307.42579324462645 343.48311156601847 307.0982599795292 344.1381780962129 Q 306.77072671443193 344.7932446264074 306.77072671443193 345.12077789150464 Q 306.77072671443193 345.4483111566019 306.4431934493347 346.10337768679636 Q 306.11566018423747 346.7584442169908 306.11566018423747 347.0859774820881 Q 306.11566018423747 347.41351074718534 306.11566018423747 347.74104401228254 Q 306.11566018423747 348.06857727737975 306.11566018423747 348.396110542477 Q 306.11566018423747 348.72364380757426 305.78812691914027 348.72364380757426 Q 305.460593654043 348.72364380757426 305.13306038894575 349.0511770726715 Q 304.80552712384855 349.3787103377688 304.80552712384855 350.03377686796324 Q 304.80552712384855 350.6888433981577 304.47799385875135 351.34390992835216 Q 304.1504605936541 351.9989764585466 303.82292732855683 352.6540429887411 Q 303.49539406345957 353.30910951893554 303.49539406345957 353.6366427840328 Q 303.49539406345957 353.96417604913006 303.49539406345957 354.29170931422726 Q 303.49539406345957 354.61924257932446 303.1678607983623 354.9467758444217 Q 302.8403275332651 355.274309109519 302.8403275332651 355.60184237461624 Q 302.8403275332651 355.9293756397135 302.5127942681679 356.2569089048107 Q 302.18526100307065 356.5844421699079 302.18526100307065 356.91197543500516 Q 302.18526100307065 357.2395087001024 301.8577277379734 357.5670419651997 Q 301.5301944728762 357.89457523029694 301.5301944728762 358.22210849539414 Q 301.5301944728762 358.54964176049134 301.5301944728762 358.8771750255886 Q 301.5301944728762 359.20470829068586 301.202661207779 359.8597748208803 Q 300.87512794268173 360.5148413510748 300.87512794268173 360.84237461617204 Q 300.87512794268173 361.1699078812693 300.2200614124872 361.82497441146376 Q 299.56499488229275 362.4800409416582 299.56499488229275 362.8075742067554 Q 299.56499488229275 363.1351074718526 299.56499488229275 363.4626407369499 Q 299.56499488229275 363.79017400204714 299.23746161719555 364.1177072671444 Q 298.9099283520983 364.44524053224166 298.58239508700103 364.77277379733886 Q 298.25486182190383 365.10030706243606 298.25486182190383 365.4278403275333 Q 298.25486182190383 365.7553735926306 297.9273285568066 365.7553735926306 Q 297.5997952917093 365.7553735926306 297.5997952917093 366.41044012282504 Q 297.5997952917093 367.0655066530195 297.2722620266121 367.0655066530195 Q 296.94472876151485 367.0655066530195 296.6171954964176 367.39303991811676 Q 296.2896622313204 367.720573183214 295.9621289662232 367.720573183214 Q 295.63459570112593 367.720573183214 295.63459570112593 368.0481064483112 Q 295.63459570112593 368.3756397134084 295.3070624360287 368.3756397134084 Q 294.97952917093147 368.3756397134084 294.97952917093147 368.7031729785057 Q 294.97952917093147 369.03070624360294 294.6519959058342 369.03070624360294 Q 294.32446264073695 369.03070624360294 293.99692937563975 369.35823950870014 Q 293.6693961105425 369.68577277379734 293.34186284544523 369.68577277379734 Q 293.01432958034803 369.68577277379734 292.68679631525083 369.68577277379734 Q 292.3592630501536 369.68577277379734 291.70419651995905 369.68577277379734 Q 291.0491299897646 369.68577277379734 290.7215967246674 369.68577277379734 Q 290.39406345957013 369.68577277379734 290.0665301944729 369.68577277379734 Q 289.7389969293757 369.68577277379734 289.4114636642785 369.68577277379734 Q 289.0839303991812 369.68577277379734 289.0839303991812 369.35823950870014 Q 289.0839303991812 369.03070624360294 288.75639713408395 369.03070624360294 Q 288.4288638689867 369.03070624360294 288.4288638689867 368.7031729785057 Q 288.4288638689867 368.3756397134084 288.4288638689867 368.0481064483112 Q 288.4288638689867 367.720573183214 288.10133060388944 367.720573183214 Q 287.77379733879224 367.720573183214 287.77379733879224 367.39303991811676 Q 287.77379733879224 367.0655066530195 287.77379733879224 366.73797338792224 Q 287.77379733879224 366.410440122825 287.77379733879224 366.0829068577278 Q 287.77379733879224 365.7553735926306 287.77379733879224 365.4278403275333 Q 287.77379733879224 365.10030706243606 287.77379733879224 364.77277379733886 Q 287.77379733879224 364.44524053224166 287.77379733879224 364.1177072671444 Q 287.77379733879224 363.79017400204714 287.77379733879224 363.4626407369499 Q 287.77379733879224 363.1351074718526 287.77379733879224 362.8075742067554 Q 287.77379733879224 362.4800409416582 287.77379733879224 362.15250767656096 Q 287.77379733879224 361.8249744114637 287.77379733879224 361.4974411463665 Q 287.77379733879224 361.1699078812693 287.77379733879224 360.84237461617204 Q 287.77379733879224 360.5148413510748 287.77379733879224 359.8597748208803 L 287.77379733879224 359.19470829068587" stroke-linecap="round" />
</g>
<g transform="matrix(1 0 0 1 199.34 354.29)" id="fliuQYMNN0Mye1kjBsGnG"  >
<path style="stroke: rgb(255,255,255); stroke-width: 0; stroke-dasharray: none; stroke-linecap: round; stroke-dashoffset: 0; stroke-linejoin: round; stroke-miterlimit: 10; fill: rgb(255,255,255); fill-rule: nonzero; opacity: 1;" vector-effect="non-scaling-stroke"  transform=" translate(-199.34, -354.29)" d="M 223.56727737973392 367.0555066530195 Q 223.5772773797339 367.0655066530195 223.5772773797339 367.39303991811676 Q 223.5772773797339 367.720573183214 223.90481064483114 368.0481064483112 Q 224.23234390992837 368.3756397134084 224.23234390992837 368.7031729785057 Q 224.23234390992837 369.03070624360294 224.5598771750256 369.35823950870014 Q 224.88741044012284 369.68577277379734 224.88741044012284 370.0133060388946 Q 224.88741044012284 370.34083930399186 225.21494370522007 370.34083930399186 Q 225.5424769703173 370.34083930399186 225.5424769703173 370.6683725690891 Q 225.5424769703173 370.9959058341864 225.5424769703173 371.3234390992836 Q 225.5424769703173 371.6509723643808 225.5424769703173 372.3060388945753 Q 225.5424769703173 372.9611054247698 225.5424769703173 373.288638689867 Q 225.5424769703173 373.6161719549642 225.5424769703173 373.9437052200615 Q 225.5424769703173 374.27123848515873 225.5424769703173 374.9263050153532 Q 225.5424769703173 375.58137154554765 225.21494370522007 376.2364380757421 Q 224.88741044012284 376.8915046059366 224.5598771750256 376.8915046059366 Q 224.23234390992837 376.8915046059366 224.23234390992837 377.21903787103383 Q 224.23234390992837 377.5465711361311 223.90481064483114 377.8741044012283 Q 223.5772773797339 378.2016376663255 223.24974411463666 378.85670419652 Q 222.9222108495394 379.51177072671453 222.59467758444217 379.51177072671453 Q 222.26714431934494 379.51177072671453 221.9396110542477 379.51177072671453 Q 221.61207778915048 379.51177072671453 221.28454452405325 379.83930399181173 Q 220.95701125895602 380.16683725690893 220.62947799385879 380.4943705220062 Q 220.30194472876155 380.82190378710345 219.9744114636643 380.82190378710345 Q 219.64687819856704 380.82190378710345 219.3193449334698 380.82190378710345 Q 218.99181166837258 380.82190378710345 218.66427840327535 380.82190378710345 Q 218.33674513817812 380.82190378710345 218.0092118730809 380.82190378710345 Q 217.68167860798366 380.82190378710345 217.02661207778917 380.82190378710345 Q 216.37154554759468 380.82190378710345 216.04401228249745 380.4943705220062 Q 215.71647901740022 380.16683725690893 215.388945752303 380.16683725690893 Q 215.06141248720576 380.16683725690893 214.73387922210853 379.83930399181173 Q 214.4063459570113 379.51177072671453 214.07881269191404 379.51177072671453 Q 213.75127942681678 379.51177072671453 212.7686796315251 379.1842374616173 Q 211.7860798362334 378.85670419652 211.45854657113617 378.85670419652 Q 211.13101330603894 378.85670419652 210.80348004094168 378.52917093142275 Q 210.47594677584445 378.2016376663255 210.14841351074722 377.8741044012283 Q 209.82088024564996 377.5465711361311 209.49334698055273 377.5465711361311 Q 209.1658137154555 377.5465711361311 208.83828045035824 377.21903787103383 Q 208.510747185261 376.8915046059366 208.18321392016378 376.5639713408394 Q 207.85568065506655 376.23643807574217 207.20061412487206 375.9089048106449 Q 206.5455475946776 375.58137154554765 206.21801432958037 375.2538382804504 Q 205.89048106448314 374.92630501535314 205.56294779938588 374.92630501535314 Q 205.23541453428865 374.92630501535314 205.23541453428865 374.59877175025593 Q 205.23541453428865 374.27123848515873 204.90788126919142 374.27123848515873 Q 204.5803480040942 374.27123848515873 204.25281473899696 373.9437052200615 Q 203.9252814738997 373.6161719549642 203.27021494370524 372.96110542476976 Q 202.61514841351075 372.3060388945753 202.28761514841352 371.97850562947804 Q 201.9600818833163 371.6509723643808 201.63254861821906 371.6509723643808 Q 201.3050153531218 371.6509723643808 200.97748208802457 371.3234390992836 Q 200.64994882292734 370.9959058341864 200.3224155578301 370.9959058341864 Q 199.99488229273288 370.9959058341864 199.33981576253842 370.6683725690891 Q 198.68474923234393 370.34083930399186 198.68474923234393 370.0133060388946 Q 198.68474923234393 369.68577277379734 198.02968270214944 369.68577277379734 Q 197.37461617195498 369.68577277379734 197.04708290685772 369.35823950870014 Q 196.7195496417605 369.03070624360294 196.39201637666326 368.7031729785057 Q 196.06448311156603 368.3756397134084 195.7369498464688 368.0481064483112 Q 195.40941658137157 367.720573183214 194.75435005117708 367.39303991811676 Q 194.09928352098262 367.0655066530195 193.77175025588537 366.73797338792224 Q 193.44421699078814 366.410440122825 192.78915046059365 365.7553735926305 Q 192.13408393039919 365.10030706243606 191.15148413510747 364.4452405322416 Q 190.16888433981578 363.79017400204714 189.5138178096213 363.1351074718527 Q 188.85875127942683 362.4800409416582 188.20368474923237 361.82497441146376 Q 187.54861821903788 361.1699078812693 186.8935516888434 360.84237461617204 Q 186.23848515864893 360.5148413510748 185.2558853633572 359.53224155578306 Q 184.27328556806552 358.54964176049134 183.9457523029683 357.8945752302969 Q 183.61821903787106 357.2395087001024 183.29068577277383 356.91197543500516 Q 182.96315250767657 356.5844421699079 182.96315250767657 356.2569089048107 Q 182.96315250767657 355.9293756397135 182.63561924257934 355.60184237461624 Q 182.3080859774821 355.274309109519 181.98055271238485 354.6192425793245 Q 181.65301944728762 353.96417604913006 180.67041965199593 352.6540429887411 Q 179.6878198567042 351.3439099283521 179.03275332650975 350.68884339815764 Q 178.37768679631526 350.0337768679632 178.05015353121803 349.706243602866 Q 177.7226202661208 349.3787103377688 177.7226202661208 349.0511770726715 Q 177.7226202661208 348.72364380757426 177.7226202661208 348.396110542477 Q 177.7226202661208 348.06857727737975 177.39508700102357 347.74104401228254 Q 177.0675537359263 347.41351074718534 177.0675537359263 347.0859774820881 Q 177.0675537359263 346.7584442169908 176.74002047082908 346.10337768679636 Q 176.41248720573185 345.4483111566019 176.0849539406346 345.12077789150464 Q 175.75742067553736 344.7932446264074 175.75742067553736 344.4657113613102 Q 175.75742067553736 344.138178096213 175.75742067553736 343.4831115660185 Q 175.75742067553736 342.82804503582406 175.1023541453429 341.1903787103378 Q 174.44728761514844 339.5527123848516 174.44728761514844 339.2251791197544 Q 174.44728761514844 338.8976458546572 174.1197543500512 338.5701125895599 Q 173.79222108495395 338.24257932446267 173.79222108495395 337.91504605936547 Q 173.79222108495395 337.58751279426826 173.79222108495395 337.259979529171 Q 173.79222108495395 336.93244626407375 173.79222108495395 336.6049129989765 Q 173.79222108495395 336.27737973387923 173.79222108495395 335.949846468782 Q 173.79222108495395 335.6223132036848 173.46468781985672 335.29477993858757 Q 173.1371545547595 334.9672466734903 173.1371545547595 334.6397134083931 Q 173.1371545547595 334.3121801432959 173.1371545547595 333.98464687819865 Q 173.1371545547595 333.6571136131014 173.1371545547595 332.67451381780967 Q 173.1371545547595 331.69191402251795 173.1371545547595 331.0368474923235 Q 173.1371545547595 330.381780962129 173.1371545547595 330.05424769703177 Q 173.1371545547595 329.7267144319345 173.1371545547595 329.3991811668373 Q 173.1371545547595 329.0716479017401 173.1371545547595 328.74411463664285 Q 173.1371545547595 328.4165813715456 173.1371545547595 328.08904810644833 Q 173.1371545547595 327.7615148413511 173.46468781985672 327.7615148413511 Q 173.79222108495395 327.7615148413511 174.1197543500512 327.7615148413511 Q 174.44728761514844 327.7615148413511 174.77482088024567 327.7615148413511 Q 175.1023541453429 327.7615148413511 175.7574206755374 327.7615148413511 Q 176.41248720573185 327.7615148413511 176.74002047082908 327.7615148413511 Q 177.0675537359263 327.7615148413511 177.39508700102357 327.7615148413511 Q 177.7226202661208 327.7615148413511 178.3776867963153 328.08904810644833 Q 179.03275332650975 328.4165813715456 179.6878198567042 328.4165813715456 Q 180.34288638689867 328.4165813715456 180.34288638689867 328.74411463664285 Q 180.34288638689867 329.0716479017401 180.67041965199593 329.0716479017401 Q 180.99795291709316 329.0716479017401 181.3254861821904 329.3991811668373 Q 181.65301944728762 329.7267144319345 181.98055271238485 330.05424769703177 Q 182.3080859774821 330.381780962129 182.63561924257934 330.381780962129 Q 182.96315250767657 330.381780962129 183.29068577277383 331.0368474923235 Q 183.61821903787106 331.69191402251795 183.9457523029683 332.0194472876152 Q 184.27328556806552 332.34698055271247 184.60081883316275 332.34698055271247 Q 184.92835209826 332.34698055271247 184.92835209826 332.67451381780967 Q 184.92835209826 333.00204708290687 185.25588536335724 333.00204708290687 Q 185.58341862845447 333.00204708290687 185.9109518935517 333.32958034800413 Q 186.23848515864893 333.6571136131014 186.5660184237462 334.31218014329585 Q 186.89355168884342 334.9672466734903 187.22108495394065 334.9672466734903 Q 187.54861821903788 334.9672466734903 187.8761514841351 335.29477993858757 Q 188.20368474923237 335.6223132036848 188.5312180143296 335.6223132036848 Q 188.85875127942683 335.6223132036848 189.5138178096213 335.949846468782 Q 190.16888433981578 336.27737973387923 190.16888433981578 336.93244626407375 Q 190.16888433981578 337.58751279426826 190.496417604913 337.58751279426826 Q 190.82395087001026 337.58751279426826 191.1514841351075 337.91504605936547 Q 191.47901740020473 338.24257932446267 192.13408393039919 338.5701125895599 Q 192.78915046059367 338.8976458546572 193.1166837256909 339.2251791197544 Q 193.44421699078814 339.5527123848516 193.77175025588537 340.2077789150461 Q 194.09928352098262 340.8628454452406 194.75435005117708 341.1903787103378 Q 195.40941658137157 341.517911975435 195.7369498464688 341.8454452405323 Q 196.06448311156603 342.17297850562954 196.39201637666326 342.5005117707268 Q 196.7195496417605 342.82804503582406 197.37461617195498 343.15557830092126 Q 198.02968270214944 343.48311156601847 198.02968270214944 343.8106448311157 Q 198.02968270214944 344.138178096213 198.3572159672467 344.138178096213 Q 198.68474923234393 344.138178096213 199.01228249744116 344.4657113613102 Q 199.3398157625384 344.7932446264074 199.99488229273288 345.4483111566019 Q 200.64994882292734 346.1033776867964 200.97748208802457 346.4309109518936 Q 201.3050153531218 346.7584442169908 201.63254861821906 347.0859774820881 Q 201.9600818833163 347.41351074718534 201.9600818833163 347.74104401228254 Q 201.9600818833163 348.06857727737975 202.28761514841352 348.06857727737975 Q 202.61514841351075 348.06857727737975 202.94268167860798 348.396110542477 Q 203.27021494370524 348.72364380757426 203.59774820880247 349.0511770726715 Q 203.9252814738997 349.3787103377688 204.25281473899696 349.706243602866 Q 204.5803480040942 350.0337768679632 204.90788126919142 350.36131013306044 Q 205.23541453428865 350.6888433981577 205.23541453428865 351.0163766632549 Q 205.23541453428865 351.3439099283521 205.89048106448314 351.3439099283521 Q 206.5455475946776 351.3439099283521 206.5455475946776 351.67144319344936 Q 206.5455475946776 351.9989764585466 206.87308085977483 352.3265097236439 Q 207.20061412487206 352.65404298874114 207.52814738996932 352.65404298874114 Q 207.85568065506655 352.65404298874114 207.85568065506655 352.98157625383834 Q 207.85568065506655 353.30910951893554 208.18321392016378 353.30910951893554 Q 208.510747185261 353.30910951893554 208.83828045035824 353.6366427840328 Q 209.1658137154555 353.96417604913006 209.49334698055273 354.29170931422726 Q 209.82088024564996 354.61924257932446 210.14841351074722 354.61924257932446 Q 210.47594677584445 354.61924257932446 210.80348004094168 354.9467758444217 Q 211.13101330603894 355.274309109519 211.45854657113617 355.274309109519 Q 211.7860798362334 355.274309109519 211.7860798362334 355.60184237461624 Q 211.7860798362334 355.9293756397135 212.11361310133063 356.2569089048107 Q 212.44114636642786 356.5844421699079 212.7686796315251 356.91197543500516 Q 213.09621289662232 357.2395087001024 213.42374616171955 357.5670419651997 Q 213.75127942681678 357.89457523029694 214.07881269191404 358.22210849539414 Q 214.4063459570113 358.54964176049134 214.73387922210853 358.8771750255886 Q 215.06141248720576 359.20470829068586 215.388945752303 359.20470829068586 Q 215.71647901740022 359.20470829068586 215.71647901740022 359.53224155578306 Q 215.71647901740022 359.85977482088026 216.04401228249745 359.85977482088026 Q 216.37154554759468 359.85977482088026 216.69907881269194 360.1873080859775 Q 217.0266120777892 360.5148413510748 217.35414534288643 360.5148413510748 Q 217.68167860798366 360.5148413510748 218.0092118730809 360.84237461617204 Q 218.33674513817812 361.1699078812693 218.66427840327535 361.1699078812693 Q 218.99181166837258 361.1699078812693 218.99181166837258 361.4974411463665 Q 218.99181166837258 361.8249744114637 219.3193449334698 362.15250767656096 Q 219.64687819856704 362.4800409416582 219.9744114636643 362.8075742067554 Q 220.30194472876155 363.1351074718526 220.62947799385879 363.4626407369499 Q 220.95701125895602 363.79017400204714 220.95701125895602 364.1177072671444 Q 220.95701125895602 364.44524053224166 221.28454452405325 364.44524053224166 Q 221.61207778915048 364.44524053224166 221.9396110542477 364.77277379733886 Q 222.26714431934494 365.10030706243606 222.26714431934494 365.4278403275333 Q 222.26714431934494 365.7553735926306 222.59467758444217 366.0829068577278 Q 222.9222108495394 366.410440122825 222.9222108495394 366.73797338792224 Q 222.9222108495394 367.0655066530195 222.9222108495394 367.39303991811676 Q 222.9222108495394 367.720573183214 223.24974411463666 367.720573183214 Q 223.5772773797339 367.720573183214 223.5772773797339 368.0481064483112 Q 223.5772773797339 368.3756397134084 223.90481064483114 368.7031729785057 Q 224.23234390992837 369.03070624360294 224.23234390992837 369.35823950870014 Q 224.23234390992837 369.68577277379734 224.23234390992837 370.0133060388946 Q 224.23234390992837 370.34083930399186 224.23234390992837 370.6683725690891 Q 224.23234390992837 370.9959058341864 224.5598771750256 370.9959058341864 Q 224.88741044012284 370.9959058341864 224.88741044012284 371.3234390992836 Q 224.88741044012284 371.6509723643808 225.21494370522007 372.3060388945753 Q 225.5424769703173 372.9611054247698 225.5424769703173 373.288638689867 Q 225.5424769703173 373.6161719549642 225.5424769703173 374.59877175025593 L 225.5424769703173 375.59137154554764" stroke-linecap="round" />
</g>
</svg>