<?xml version="1.0" encoding="UTF-8" standalone="no" ?>
<!DOCTYPE svg PUBLIC "-//W3C//DTD SVG 1.1//EN" "http://www.w3.org/Graphics/SVG/1.1/DTD/svg11.dtd">
<svg xmlns="http://www.w3.org/2000/svg" xmlns:xlink="http://www.w3.org/1999/xlink" version="1.1" width="227.44728761514847" height="53.819856704196525" viewBox="340.7645854657113 119.7256908904811 227.44728761514847 53.819856704196525" xml:space="preserve">
<desc>Created with Fabric.js 4.6.0</desc>
<defs>
</defs>
<g transform="matrix(1 0 0 1 454.49 146.64)" id="L5S8fIrCQEjNyk6shhOAa"  >
<path style="stroke: rgb(255,255,255); stroke-width: 0; stroke-dasharray: none; stroke-linecap: round; stroke-dashoffset: 0; stroke-linejoin: round; stroke-miterlimit: 10; fill: rgb(255,255,255); fill-rule: nonzero; opacity: 1;" vector-effect="non-scaling-stroke"  transform=" translate(-454.49, -146.64)" d="M 359.1860491299898 145.64301944728766 Q 359.1760491299898 145.65301944728765 358.84851586489253 145.9805527123849 Q 358.52098259979533 146.30808597748214 358.19344933469813 146.63561924257937 Q 357.86591606960087 146.9631525076766 357.21084953940635 147.61821903787109 Q 356.5557830092119 148.27328556806555 355.90071647901743 148.6008188331628 Q 355.245649948823 148.92835209826004 354.9181166837257 149.25588536335727 Q 354.59058341862846 149.5834186284545 354.26305015353125 150.23848515864898 Q 353.935516888434 150.89355168884344 353.28045035823953 151.22108495394068 Q 352.6253838280451 151.5486182190379 352.2978505629478 151.87615148413516 Q 351.9703172978506 152.2036847492324 351.64278403275335 152.85875127942688 Q 351.3152507676561 153.51381780962134 350.9877175025589 153.51381780962134 Q 350.66018423746164 153.51381780962134 350.3326509723644 153.84135107471857 Q 350.0051177072672 154.1688843398158 349.67758444217 154.49641760491306 Q 349.3500511770727 154.8239508700103 349.02251791197546 155.15148413510752 Q 348.6949846468782 155.47901740020475 348.36745138178094 156.13408393039924 Q 348.03991811668374 156.7891504605937 347.71238485158653 157.11668372569093 Q 347.3848515864893 157.44421699078816 347.057318321392 157.77175025588542 Q 346.7297850562948 158.09928352098265 346.7297850562948 158.42681678607988 Q 346.7297850562948 158.7543500511771 346.4022517911976 159.08188331627434 Q 346.07471852610036 159.4094165813716 346.07471852610036 160.39201637666332 Q 346.07471852610036 161.374616171955 345.7471852610031 161.70214943705224 Q 345.41965199590584 162.02968270214947 345.41965199590584 162.68474923234396 Q 345.41965199590584 163.33981576253842 345.41965199590584 163.66734902763568 Q 345.41965199590584 163.9948822927329 345.0921187308086 164.32241555783014 Q 344.7645854657114 164.64994882292737 344.7645854657114 164.9774820880246 Q 344.7645854657114 165.30501535312183 344.7645854657114 166.28761514841355 Q 344.7645854657114 167.27021494370527 344.7645854657114 167.92528147389976 Q 344.7645854657114 168.58034800409422 344.7645854657114 168.90788126919145 Q 344.7645854657114 169.23541453428868 344.7645854657114 169.56294779938594 Q 344.7645854657114 169.89048106448317 345.0921187308086 169.89048106448317 Q 345.41965199590584 169.89048106448317 345.7471852610031 169.89048106448317 Q 346.07471852610036 169.89048106448317 346.4022517911976 170.2180143295804 Q 346.7297850562948 170.54554759467763 347.057318321392 170.54554759467763 Q 347.3848515864893 170.54554759467763 347.71238485158653 170.54554759467763 Q 348.03991811668374 170.54554759467763 348.36745138178094 170.54554759467763 Q 348.6949846468782 170.54554759467763 349.3500511770727 170.54554759467763 Q 350.0051177072672 170.54554759467763 350.3326509723644 170.54554759467763 Q 350.66018423746164 170.54554759467763 350.9877175025589 170.54554759467763 Q 351.3152507676561 170.54554759467763 351.64278403275335 170.54554759467763 Q 351.9703172978506 170.54554759467763 352.6253838280451 170.54554759467763 Q 353.28045035823953 170.54554759467763 353.60798362333674 170.54554759467763 Q 353.935516888434 170.54554759467763 354.9181166837257 170.54554759467763 Q 355.90071647901743 170.54554759467763 356.5557830092119 169.89048106448314 Q 357.21084953940635 169.23541453428868 357.86591606960087 169.23541453428868 Q 358.52098259979533 169.23541453428868 358.84851586489253 168.90788126919145 Q 359.1760491299898 168.58034800409422 359.1760491299898 168.25281473899696 Q 359.1760491299898 167.92528147389973 359.50358239508705 167.92528147389973 Q 359.83111566018425 167.92528147389973 360.15864892528145 167.27021494370524 Q 360.4861821903787 166.61514841351078 361.14124872057323 166.28761514841355 Q 361.7963152507677 165.96008188331632 362.45138178096215 165.30501535312186 Q 363.1064483111566 164.64994882292737 363.4339815762538 163.99488229273288 Q 363.7615148413511 163.33981576253842 364.08904810644833 162.68474923234396 Q 364.4165813715456 162.02968270214947 364.74411463664285 161.70214943705224 Q 365.07164790174005 161.374616171955 365.7267144319345 161.04708290685778 Q 366.38178096212897 160.71954964176052 366.38178096212897 160.3920163766633 Q 366.38178096212897 160.06448311156606 366.70931422722623 159.73694984646883 Q 367.0368474923235 159.4094165813716 367.0368474923235 158.75435005117714 Q 367.0368474923235 158.09928352098265 367.3643807574207 158.09928352098265 Q 367.69191402251795 158.09928352098265 368.0194472876152 157.77175025588542 Q 368.3469805527124 157.44421699078816 368.6745138178096 157.11668372569093 Q 369.00204708290687 156.7891504605937 369.32958034800413 156.46161719549644 Q 369.65711361310133 156.1340839303992 369.65711361310133 155.80655066530198 Q 369.65711361310133 155.47901740020475 369.9846468781986 155.47901740020475 Q 370.31218014329585 155.47901740020475 370.31218014329585 155.15148413510752 Q 370.31218014329585 154.8239508700103 370.63971340839305 154.49641760491306 Q 370.9672466734903 154.1688843398158 371.29477993858757 153.84135107471857 Q 371.62231320368477 153.51381780962134 371.94984646878197 153.18628454452409 Q 372.27737973387923 152.85875127942685 372.6049129989765 152.53121801432962 Q 372.93244626407375 152.2036847492324 372.93244626407375 151.87615148413516 Q 372.93244626407375 151.5486182190379 373.259979529171 151.5486182190379 Q 373.5875127942682 151.5486182190379 373.5875127942682 150.89355168884344 Q 373.5875127942682 150.23848515864896 373.9150460593654 150.23848515864896 Q 374.24257932446267 150.23848515864896 374.5701125895599 149.91095189355173 Q 374.8976458546571 149.5834186284545 375.22517911975433 149.25588536335727 Q 375.5527123848516 148.92835209826004 375.88024564994885 148.6008188331628 Q 376.2077789150461 148.27328556806555 376.2077789150461 147.94575230296832 Q 376.2077789150461 147.61821903787109 376.53531218014336 147.61821903787109 Q 376.86284544524057 147.61821903787109 377.19037871033777 147.29068577277383 Q 377.517911975435 146.9631525076766 377.8454452405323 146.63561924257937 Q 378.1729785056295 146.30808597748214 378.50051177072675 145.9805527123849 Q 378.828045035824 145.65301944728765 379.1555783009212 145.32548618219042 Q 379.48311156601847 144.9979529170932 379.8106448311157 144.9979529170932 Q 380.1381780962129 144.9979529170932 380.7932446264074 144.67041965199593 Q 381.44831115660185 144.3428863868987 382.1033776867963 144.01535312180147 Q 382.7584442169908 143.68781985670424 382.7584442169908 143.360286591607 Q 382.7584442169908 143.03275332650978 383.0859774820881 143.03275332650978 Q 383.4135107471853 143.03275332650978 383.7410440122825 143.03275332650978 Q 384.06857727737975 143.03275332650978 384.06857727737975 142.70522006141255 Q 384.06857727737975 142.3776867963153 385.05117707267146 142.05015353121806 Q 386.0337768679632 141.72262026612083 387.0163766632549 141.39508700102357 Q 387.9989764585466 141.06755373592634 388.3265097236439 141.06755373592634 Q 388.6540429887411 141.06755373592634 389.30910951893554 141.06755373592634 Q 389.96417604913 141.06755373592634 391.6018423746162 141.06755373592634 Q 393.23950870010236 141.06755373592634 394.87717502558854 141.39508700102357 Q 396.5148413510747 141.72262026612083 397.8249744114637 142.05015353121806 Q 399.1351074718526 142.3776867963153 399.79017400204714 142.3776867963153 Q 400.4452405322416 142.3776867963153 400.4452405322416 142.70522006141255 Q 400.4452405322416 143.03275332650978 401.4278403275333 143.360286591607 Q 402.410440122825 143.68781985670424 402.73797338792224 144.01535312180147 Q 403.0655066530195 144.3428863868987 403.39303991811676 144.3428863868987 Q 403.72057318321396 144.3428863868987 404.04810644831116 144.67041965199593 Q 404.3756397134084 144.9979529170932 404.3756397134084 145.32548618219042 Q 404.3756397134084 145.65301944728765 404.7031729785057 145.65301944728765 Q 405.0307062436029 145.65301944728765 405.3582395087001 145.9805527123849 Q 405.68577277379734 146.30808597748214 406.34083930399186 146.30808597748214 Q 406.9959058341863 146.30808597748214 406.9959058341863 146.63561924257937 Q 406.9959058341863 146.9631525076766 407.3234390992835 146.9631525076766 Q 407.6509723643808 146.9631525076766 407.6509723643808 147.61821903787109 Q 407.6509723643808 148.27328556806555 407.97850562947804 148.6008188331628 Q 408.30603889457524 148.92835209826004 408.9611054247697 149.25588536335727 Q 409.6161719549642 149.5834186284545 409.9437052200615 149.5834186284545 Q 410.2712384851587 149.5834186284545 410.5987717502559 149.91095189355173 Q 410.92630501535314 150.23848515864896 410.92630501535314 150.5660184237462 Q 410.92630501535314 150.89355168884344 411.58137154554765 151.22108495394068 Q 412.2364380757421 151.5486182190379 412.8915046059366 152.53121801432962 Q 413.54657113613104 153.51381780962134 414.85670419652 154.49641760491306 Q 416.16683725690893 155.47901740020475 417.47697031729786 156.7891504605937 Q 418.78710337768683 158.09928352098265 419.76970317297855 159.08188331627434 Q 420.75230296827027 160.06448311156606 421.40736949846473 160.71954964176052 Q 422.0624360286592 161.374616171955 422.3899692937564 161.70214943705224 Q 422.71750255885365 162.02968270214947 423.0450358239509 162.3572159672467 Q 423.3725690890481 162.68474923234396 423.7001023541454 163.33981576253842 Q 424.02763561924263 163.9948822927329 425.01023541453435 164.64994882292737 Q 425.992835209826 165.30501535312183 426.64790174002053 166.28761514841355 Q 427.302968270215 167.27021494370527 428.2855680655067 167.92528147389976 Q 429.26816786079837 168.58034800409422 429.9232343909929 169.23541453428868 Q 430.57830092118735 169.89048106448317 431.2333674513818 169.89048106448317 Q 431.88843398157627 169.89048106448317 432.2159672466735 169.89048106448317 Q 432.54350051177073 169.89048106448317 432.871033776868 169.89048106448317 Q 433.19856704196525 169.89048106448317 433.5261003070625 169.89048106448317 Q 433.8536335721597 169.89048106448317 434.1811668372569 169.89048106448317 Q 434.50870010235417 169.89048106448317 434.8362333674514 169.89048106448317 Q 435.16376663254863 169.89048106448317 435.8188331627431 169.89048106448317 Q 436.4738996929376 169.89048106448317 436.80143295803487 169.89048106448317 Q 437.12896622313207 169.89048106448317 438.1115660184238 169.89048106448317 Q 439.0941658137155 169.89048106448317 439.74923234390997 169.89048106448317 Q 440.4042988741044 169.89048106448317 441.38689866939615 169.89048106448317 Q 442.36949846468787 169.89048106448317 442.69703172978507 169.89048106448317 Q 443.0245649948823 169.89048106448317 443.6796315250768 169.89048106448317 Q 444.33469805527125 169.89048106448317 444.6622313203685 169.89048106448317 Q 444.98976458546576 169.89048106448317 445.317297850563 169.89048106448317 Q 445.6448311156602 169.89048106448317 446.62743091095194 169.89048106448317 Q 447.6100307062436 169.89048106448317 448.2650972364381 169.56294779938594 Q 448.9201637666326 169.23541453428868 449.57523029682704 169.23541453428868 Q 450.2302968270215 169.23541453428868 450.88536335721597 168.90788126919145 Q 451.5404298874105 168.58034800409422 452.52302968270214 168.25281473899696 Q 453.50562947799386 167.92528147389973 454.81576253838284 167.27021494370524 Q 456.12589559877176 166.61514841351078 456.7809621289663 165.96008188331632 Q 457.43602865916074 165.30501535312183 458.0910951893552 164.9774820880246 Q 458.74616171954966 164.64994882292737 459.07369498464686 164.32241555783014 Q 459.4012282497441 163.9948822927329 460.05629477993864 163.66734902763568 Q 460.7113613101331 163.33981576253842 461.0388945752303 163.0122824974412 Q 461.36642784032756 162.68474923234396 462.3490276356193 161.70214943705224 Q 463.331627430911 160.71954964176052 463.98669396110546 160.06448311156606 Q 464.6417604912999 159.4094165813716 464.9692937563972 158.75435005117714 Q 465.2968270214944 158.09928352098265 465.95189355168884 157.77175025588542 Q 466.60696008188336 157.44421699078816 466.9344933469806 157.11668372569093 Q 467.2620266120779 156.7891504605937 467.2620266120779 156.46161719549644 Q 467.2620266120779 156.1340839303992 467.91709314227234 155.80655066530198 Q 468.5721596724668 155.47901740020475 469.22722620266126 154.82395087001026 Q 469.8822927328557 154.1688843398158 470.5373592630502 153.51381780962134 Q 471.19242579324464 152.85875127942685 471.5199590583419 152.85875127942685 Q 471.84749232343916 152.85875127942685 472.17502558853636 152.53121801432962 Q 472.50255885363356 152.2036847492324 472.8300921187308 151.87615148413516 Q 473.1576253838281 151.5486182190379 474.467758444217 150.89355168884344 Q 475.7778915046059 150.23848515864896 476.43295803480044 149.91095189355173 Q 477.08802456499495 149.5834186284545 477.41555783009215 149.5834186284545 Q 477.74309109518936 149.5834186284545 477.74309109518936 149.25588536335727 Q 477.74309109518936 148.92835209826004 478.0706243602866 148.92835209826004 Q 478.3981576253839 148.92835209826004 479.3807574206756 148.27328556806555 Q 480.3633572159673 147.61821903787109 481.34595701125903 147.29068577277383 Q 482.32855680655075 146.9631525076766 482.65609007164795 146.9631525076766 Q 482.98362333674515 146.9631525076766 483.3111566018424 146.9631525076766 Q 483.63868986693967 146.9631525076766 483.9662231320369 146.63561924257937 Q 484.2937563971341 146.30808597748214 484.62128966223133 146.30808597748214 Q 484.9488229273286 146.30808597748214 485.27635619242585 146.30808597748214 Q 485.6038894575231 146.30808597748214 485.9314227226203 146.30808597748214 Q 486.2589559877175 146.30808597748214 486.5864892528148 146.30808597748214 Q 486.91402251791203 146.30808597748214 487.89662231320375 146.30808597748214 Q 488.87922210849547 146.30808597748214 489.86182190378713 146.63561924257937 Q 490.8444216990788 146.9631525076766 492.15455475946777 146.9631525076766 Q 493.46468781985675 146.9631525076766 493.792221084954 147.29068577277383 Q 494.11975435005127 147.61821903787109 494.44728761514847 147.61821903787109 Q 494.77482088024567 147.61821903787109 494.77482088024567 147.94575230296832 Q 494.77482088024567 148.27328556806555 495.10235414534293 148.27328556806555 Q 495.4298874104402 148.27328556806555 495.7574206755374 148.6008188331628 Q 496.0849539406346 148.92835209826004 496.41248720573185 149.25588536335727 Q 496.7400204708291 149.5834186284545 497.06755373592637 150.23848515864898 Q 497.3950870010236 150.89355168884344 497.7226202661208 151.22108495394068 Q 498.05015353121803 151.5486182190379 498.3776867963153 151.5486182190379 Q 498.70522006141255 151.5486182190379 498.70522006141255 151.87615148413516 Q 498.70522006141255 152.2036847492324 499.03275332650975 152.53121801432962 Q 499.36028659160695 152.85875127942685 499.36028659160695 153.18628454452409 Q 499.36028659160695 153.51381780962134 499.6878198567042 153.84135107471857 Q 500.01535312180147 154.1688843398158 500.3428863868987 154.49641760491306 Q 500.670419651996 154.8239508700103 500.9979529170932 155.47901740020475 Q 501.3254861821904 156.1340839303992 501.65301944728765 156.46161719549644 Q 501.9805527123849 156.7891504605937 502.3080859774821 157.11668372569093 Q 502.6356192425793 157.44421699078816 502.96315250767657 157.77175025588542 Q 503.2906857727738 158.09928352098265 503.6182190378711 158.42681678607988 Q 503.94575230296834 158.7543500511771 503.94575230296834 159.08188331627434 Q 503.94575230296834 159.4094165813716 504.27328556806555 159.73694984646883 Q 504.60081883316275 160.06448311156606 504.92835209826 160.06448311156606 Q 505.25588536335727 160.06448311156606 505.25588536335727 160.71954964176052 Q 505.25588536335727 161.374616171955 505.58341862845447 161.374616171955 Q 505.91095189355167 161.374616171955 506.2384851586489 161.70214943705224 Q 506.5660184237462 162.02968270214947 506.89355168884344 162.3572159672467 Q 507.2210849539407 162.68474923234396 507.5486182190379 163.0122824974412 Q 507.8761514841351 163.33981576253842 508.5312180143296 163.66734902763568 Q 509.18628454452414 163.9948822927329 509.8413510747186 164.32241555783014 Q 510.49641760491306 164.64994882292737 511.1514841351075 164.9774820880246 Q 511.806550665302 165.30501535312183 512.4616171954965 165.63254861821906 Q 513.1166837256909 165.96008188331632 513.4442169907882 166.28761514841355 Q 513.7717502558854 166.61514841351078 513.7717502558854 166.94268167860804 Q 513.7717502558854 167.27021494370527 514.0992835209827 167.27021494370527 Q 514.4268167860798 167.27021494370527 514.7543500511771 167.5977482088025 Q 515.0818833162743 167.92528147389973 515.4094165813716 167.92528147389973 Q 515.7369498464689 167.92528147389973 515.7369498464689 168.25281473899696 Q 515.7369498464689 168.58034800409422 516.064483111566 168.58034800409422 Q 516.3920163766633 168.58034800409422 517.0470829068577 168.58034800409422 Q 517.7021494370522 168.58034800409422 518.3572159672467 168.58034800409422 Q 519.0122824974412 168.58034800409422 519.6673490276357 168.58034800409422 Q 520.3224155578301 168.58034800409422 521.6325486182191 168.58034800409422 Q 522.942681678608 168.58034800409422 523.5977482088025 168.58034800409422 Q 524.252814738997 168.58034800409422 524.9078812691914 168.58034800409422 Q 525.5629477993859 168.58034800409422 525.8904810644831 168.58034800409422 Q 526.2180143295803 168.58034800409422 526.5455475946776 168.58034800409422 Q 526.8730808597749 168.58034800409422 527.5281473899693 168.58034800409422 Q 528.1832139201638 168.58034800409422 528.8382804503583 168.58034800409422 Q 529.4933469805527 168.58034800409422 530.1484135107472 168.58034800409422 Q 530.8034800409417 168.58034800409422 531.131013306039 168.58034800409422 Q 531.4585465711361 168.58034800409422 531.7860798362334 168.25281473899696 Q 532.1136131013307 167.92528147389973 532.7686796315252 167.92528147389973 Q 533.4237461617196 167.92528147389973 534.078812691914 167.5977482088025 Q 534.7338792221085 167.27021494370527 535.7164790174002 166.94268167860804 Q 536.6990788126919 166.61514841351078 537.3541453428863 166.28761514841355 Q 538.0092118730809 165.96008188331632 538.9918116683725 165.63254861821906 Q 539.9744114636643 165.30501535312183 541.2845445240532 164.32241555783014 Q 542.5946775844423 163.33981576253842 543.5772773797339 163.0122824974412 Q 544.5598771750256 162.68474923234396 545.2149437052201 162.3572159672467 Q 545.8700102354146 162.02968270214947 546.5250767656091 161.37461617195498 Q 547.1801432958035 160.71954964176052 547.5076765609008 160.3920163766633 Q 547.8352098259979 160.06448311156606 548.4902763561925 159.73694984646883 Q 549.145342886387 159.4094165813716 549.8004094165815 158.75435005117714 Q 550.4554759467759 158.09928352098265 551.1105424769703 157.77175025588542 Q 551.7656090071648 157.44421699078816 552.0931422722621 157.11668372569093 Q 552.4206755373593 156.7891504605937 553.0757420675538 156.46161719549644 Q 553.7308085977483 156.1340839303992 554.0583418628455 155.47901740020475 Q 554.3858751279428 154.8239508700103 555.6960081883317 153.84135107471857 Q 557.0061412487206 152.85875127942685 557.9887410440124 151.5486182190379 Q 558.971340839304 150.23848515864896 559.9539406345957 149.5834186284545 Q 560.9365404298875 148.92835209826004 561.2640736949847 148.6008188331628 Q 561.5916069600819 148.27328556806555 561.5916069600819 147.61821903787109 Q 561.5916069600819 146.9631525076766 561.9191402251791 146.63561924257937 Q 562.2466734902764 146.30808597748214 562.5742067553737 145.9805527123849 Q 562.9017400204709 145.65301944728765 562.9017400204709 144.9979529170932 Q 562.9017400204709 144.3428863868987 563.2292732855681 143.68781985670424 Q 563.5568065506653 143.03275332650978 563.5568065506653 142.70522006141255 Q 563.5568065506653 142.3776867963153 563.5568065506653 142.05015353121806 Q 563.5568065506653 141.72262026612083 563.5568065506653 141.06755373592637 Q 563.5568065506653 140.41248720573188 563.8843398157626 139.7574206755374 Q 564.2118730808598 139.10235414534293 564.2118730808598 138.44728761514847 Q 564.2118730808598 137.79222108495398 564.2118730808598 137.46468781985675 Q 564.2118730808598 137.13715455475952 564.2118730808598 136.8096212896623 Q 564.2118730808598 136.48208802456503 564.2118730808598 136.1545547594678 Q 564.2118730808598 135.82702149437057 564.2118730808598 135.4994882292733 Q 564.2118730808598 135.17195496417608 564.2118730808598 134.51688843398162 Q 564.2118730808598 133.86182190378716 564.2118730808598 133.53428863868993 Q 564.2118730808598 133.20675537359267 564.2118730808598 132.87922210849544 Q 564.2118730808598 132.5516888433982 564.2118730808598 131.89662231320375 Q 564.2118730808598 131.24155578300926 564.2118730808598 130.91402251791203 Q 564.2118730808598 130.58648925281477 563.8843398157626 130.25895598771754 Q 563.5568065506653 129.9314227226203 562.9017400204709 129.60388945752305 Q 562.2466734902764 129.27635619242582 562.2466734902764 128.9488229273286 Q 562.2466734902764 128.62128966223136 561.9191402251791 128.29375639713413 Q 561.5916069600819 127.9662231320369 561.2640736949847 127.9662231320369 Q 560.9365404298875 127.9662231320369 560.6090071647902 127.9662231320369 Q 560.281473899693 127.9662231320369 559.9539406345957 127.9662231320369 Q 559.6264073694985 127.9662231320369 559.2988741044012 127.9662231320369 Q 558.971340839304 127.9662231320369 558.6438075742068 127.9662231320369 Q 558.3162743091095 127.9662231320369 557.9887410440124 127.9662231320369 Q 557.6612077789151 127.9662231320369 557.3336745138179 127.9662231320369 Q 557.0061412487206 127.9662231320369 556.6786079836234 127.9662231320369 Q 556.3510747185261 127.9662231320369 555.6960081883317 127.9662231320369 Q 555.0409416581372 127.9662231320369 554.71340839304 127.9662231320369 Q 554.3858751279428 127.9662231320369 554.3858751279428 128.29375639713413 Q 554.3858751279428 128.62128966223136 554.0583418628455 128.9488229273286 Q 553.7308085977483 129.27635619242582 553.403275332651 129.60388945752305 Q 553.0757420675537 129.9314227226203 552.7482088024565 130.25895598771754 Q 552.4206755373593 130.58648925281477 552.0931422722621 130.91402251791203 Q 551.7656090071648 131.24155578300926 551.4380757420677 131.5690890481065 Q 551.1105424769704 131.89662231320372 550.7830092118731 132.22415557830095 Q 550.4554759467759 132.5516888433982 550.1279426816786 132.87922210849544 Q 549.8004094165814 133.20675537359267 549.4728761514841 133.86182190378713 Q 549.145342886387 134.51688843398162 548.8178096212897 134.84442169907885 Q 548.4902763561925 135.17195496417608 548.1627430910952 135.4994882292733 Q 547.8352098259979 135.82702149437057 547.8352098259979 136.1545547594678 Q 547.8352098259979 136.48208802456503 547.5076765609008 136.8096212896623 Q 547.1801432958035 137.13715455475952 546.8526100307063 137.46468781985675 Q 546.525076765609 137.79222108495398 546.1975435005118 138.1197543500512 Q 545.8700102354146 138.44728761514847 544.887410440123 139.10235414534293 Q 543.9048106448312 139.7574206755374 543.2497441146368 140.41248720573185 Q 542.5946775844423 141.06755373592634 541.9396110542477 141.39508700102357 Q 541.2845445240532 141.72262026612083 541.2845445240532 142.05015353121806 Q 541.2845445240532 142.3776867963153 540.6294779938587 142.70522006141255 Q 539.9744114636643 143.03275332650978 539.646878198567 143.360286591607 Q 539.3193449334699 143.68781985670424 538.9918116683726 144.01535312180147 Q 538.6642784032754 144.3428863868987 538.3367451381781 144.67041965199593 Q 538.0092118730809 144.9979529170932 538.0092118730809 145.32548618219042 Q 538.0092118730809 145.65301944728765 537.6816786079837 145.65301944728765 Q 537.3541453428865 145.65301944728765 537.3541453428865 145.9805527123849 Q 537.3541453428865 146.30808597748214 537.0266120777892 146.30808597748214 Q 536.6990788126919 146.30808597748214 536.0440122824975 146.63561924257937 Q 535.388945752303 146.9631525076766 535.0614124872058 146.9631525076766 Q 534.7338792221085 146.9631525076766 534.7338792221085 147.29068577277383 Q 534.7338792221085 147.61821903787109 534.078812691914 147.94575230296832 Q 533.4237461617196 148.27328556806555 532.7686796315252 148.6008188331628 Q 532.1136131013307 148.92835209826004 531.7860798362334 148.92835209826004 Q 531.4585465711361 148.92835209826004 531.131013306039 148.92835209826004 Q 530.8034800409417 148.92835209826004 530.4759467758445 148.92835209826004 Q 530.1484135107472 148.92835209826004 529.82088024565 148.92835209826004 Q 529.4933469805527 148.92835209826004 529.1658137154554 149.25588536335727 Q 528.8382804503583 149.5834186284545 528.1832139201638 149.5834186284545 Q 527.5281473899694 149.5834186284545 527.2006141248721 149.5834186284545 Q 526.8730808597749 149.5834186284545 526.5455475946776 149.5834186284545 Q 526.2180143295803 149.5834186284545 525.8904810644831 149.5834186284545 Q 525.5629477993859 149.5834186284545 525.2354145342887 149.5834186284545 Q 524.9078812691914 149.5834186284545 524.5803480040943 149.5834186284545 Q 524.252814738997 149.5834186284545 523.9252814738998 149.5834186284545 Q 523.5977482088025 149.5834186284545 523.2702149437052 149.5834186284545 Q 522.942681678608 149.5834186284545 522.6151484135107 149.5834186284545 Q 522.2876151484136 149.5834186284545 521.9600818833163 149.5834186284545 Q 521.6325486182191 149.5834186284545 521.3050153531218 149.5834186284545 Q 520.9774820880245 149.5834186284545 520.6499488229274 149.5834186284545 Q 520.3224155578301 149.5834186284545 519.9948822927329 149.5834186284545 Q 519.6673490276356 149.5834186284545 519.3398157625384 149.25588536335727 Q 519.0122824974412 148.92835209826004 518.684749232344 148.6008188331628 Q 518.3572159672467 148.27328556806555 518.0296827021494 147.94575230296832 Q 517.7021494370522 147.61821903787109 517.374616171955 147.29068577277383 Q 517.0470829068578 146.9631525076766 516.7195496417605 146.9631525076766 Q 516.3920163766633 146.9631525076766 516.3920163766633 146.63561924257937 Q 516.3920163766633 146.30808597748214 516.064483111566 145.65301944728765 Q 515.7369498464689 144.9979529170932 515.4094165813716 144.9979529170932 Q 515.0818833162743 144.9979529170932 514.7543500511771 144.34288638689873 Q 514.4268167860798 143.68781985670424 514.0992835209827 143.68781985670424 Q 513.7717502558854 143.68781985670424 513.7717502558854 143.360286591607 Q 513.7717502558854 143.03275332650978 513.4442169907882 142.3776867963153 Q 513.1166837256909 141.72262026612083 512.4616171954965 141.72262026612083 Q 511.806550665302 141.72262026612083 511.806550665302 141.39508700102357 Q 511.806550665302 141.06755373592634 511.4790174002047 140.7400204708291 Q 511.15148413510747 140.41248720573188 511.15148413510747 140.08495394063465 Q 511.15148413510747 139.7574206755374 510.82395087001026 139.42988741044016 Q 510.49641760491306 139.10235414534293 510.1688843398158 138.7748208802457 Q 509.84135107471855 138.44728761514847 509.51381780962134 138.44728761514847 Q 509.18628454452414 138.44728761514847 508.8587512794269 138.1197543500512 Q 508.5312180143296 137.79222108495398 508.20368474923237 137.46468781985675 Q 507.8761514841351 137.13715455475952 507.8761514841351 136.8096212896623 Q 507.8761514841351 136.48208802456503 507.5486182190379 136.1545547594678 Q 507.2210849539407 135.82702149437057 506.5660184237462 135.4994882292733 Q 505.91095189355167 135.17195496417608 505.58341862845447 134.51688843398162 Q 505.25588536335727 133.86182190378716 504.92835209826 133.86182190378716 Q 504.60081883316275 133.86182190378716 504.60081883316275 133.53428863868993 Q 504.60081883316275 133.20675537359267 504.27328556806555 132.87922210849544 Q 503.94575230296834 132.5516888433982 503.6182190378711 132.5516888433982 Q 503.2906857727738 132.5516888433982 502.96315250767657 132.5516888433982 Q 502.6356192425793 132.5516888433982 502.3080859774821 132.22415557830095 Q 501.9805527123849 131.89662231320372 501.9805527123849 131.5690890481065 Q 501.9805527123849 131.24155578300926 501.65301944728765 131.24155578300926 Q 501.3254861821904 131.24155578300926 500.9979529170932 130.91402251791203 Q 500.670419651996 130.58648925281477 500.3428863868987 130.58648925281477 Q 500.01535312180147 130.58648925281477 499.6878198567042 130.25895598771754 Q 499.36028659160695 129.9314227226203 499.03275332650975 129.9314227226203 Q 498.70522006141255 129.9314227226203 498.3776867963153 129.9314227226203 Q 498.05015353121803 129.9314227226203 497.7226202661208 129.9314227226203 Q 497.3950870010236 129.9314227226203 497.06755373592637 129.60388945752305 Q 496.7400204708291 129.27635619242582 496.08495394063465 129.27635619242582 Q 495.4298874104402 129.27635619242582 495.10235414534293 129.27635619242582 Q 494.77482088024567 129.27635619242582 494.44728761514847 129.27635619242582 Q 494.11975435005127 129.27635619242582 494.11975435005127 128.9488229273286 Q 494.11975435005127 128.62128966223136 493.792221084954 128.62128966223136 Q 493.46468781985675 128.62128966223136 493.1371545547595 128.62128966223136 Q 492.80962128966223 128.62128966223136 492.48208802456503 128.62128966223136 Q 492.1545547594678 128.62128966223136 491.82702149437057 128.62128966223136 Q 491.4994882292733 128.62128966223136 490.84442169907885 128.62128966223136 Q 490.1893551688844 128.62128966223136 489.86182190378713 128.62128966223136 Q 489.5342886386899 128.62128966223136 488.8792221084954 128.62128966223136 Q 488.22415557830095 128.62128966223136 487.5690890481065 128.62128966223136 Q 486.91402251791203 128.62128966223136 486.25895598771757 128.62128966223136 Q 485.6038894575231 128.62128966223136 485.27635619242585 128.62128966223136 Q 484.9488229273286 128.62128966223136 484.62128966223133 128.62128966223136 Q 484.2937563971341 128.62128966223136 483.9662231320369 128.62128966223136 Q 483.63868986693967 128.62128966223136 483.3111566018424 128.62128966223136 Q 482.98362333674515 128.62128966223136 482.3285568065507 128.62128966223136 Q 481.67349027635623 128.62128966223136 481.345957011259 128.62128966223136 Q 481.0184237461617 128.62128966223136 480.6908904810645 128.9488229273286 Q 480.3633572159673 129.27635619242582 480.03582395087005 129.27635619242582 Q 479.7082906857728 129.27635619242582 479.3807574206756 129.27635619242582 Q 479.0532241555784 129.27635619242582 478.72569089048113 129.60388945752305 Q 478.3981576253839 129.9314227226203 477.7430910951894 130.25895598771754 Q 477.08802456499495 130.58648925281477 476.43295803480044 130.58648925281477 Q 475.7778915046059 130.58648925281477 475.4503582395087 130.91402251791203 Q 475.1228249744115 131.24155578300926 474.79529170931426 131.5690890481065 Q 474.467758444217 131.89662231320372 474.1402251791198 131.89662231320372 Q 473.8126919140226 131.89662231320372 473.48515864892534 132.22415557830095 Q 473.1576253838281 132.5516888433982 472.5025588536336 132.87922210849544 Q 471.84749232343916 133.20675537359267 471.1924257932447 133.86182190378713 Q 470.53735926305023 134.51688843398162 470.209825997953 134.84442169907885 Q 469.8822927328557 135.17195496417608 469.55475946775846 135.17195496417608 Q 469.2272262026612 135.17195496417608 468.899692937564 135.4994882292733 Q 468.5721596724668 135.82702149437057 468.24462640736954 136.1545547594678 Q 467.9170931422723 136.48208802456503 467.5895598771751 136.8096212896623 Q 467.2620266120779 137.13715455475952 466.60696008188336 137.13715455475952 Q 465.9518935516889 137.13715455475952 465.62436028659164 137.46468781985675 Q 465.2968270214944 137.79222108495398 465.2968270214944 138.1197543500512 Q 465.2968270214944 138.44728761514847 464.9692937563972 138.44728761514847 Q 464.6417604912999 138.44728761514847 464.31422722620266 138.7748208802457 Q 463.98669396110546 139.10235414534293 463.98669396110546 139.42988741044016 Q 463.98669396110546 139.7574206755374 463.331627430911 140.08495394063465 Q 462.67656090071654 140.41248720573188 462.3490276356193 140.7400204708291 Q 462.021494370522 141.06755373592634 461.6939611054248 141.06755373592634 Q 461.36642784032756 141.06755373592634 461.0388945752303 141.72262026612083 Q 460.7113613101331 142.3776867963153 460.3838280450359 142.70522006141255 Q 460.05629477993864 143.03275332650978 459.7287615148414 143.03275332650978 Q 459.4012282497441 143.03275332650978 459.07369498464686 143.360286591607 Q 458.74616171954966 143.68781985670424 458.41862845445246 144.01535312180147 Q 458.0910951893552 144.3428863868987 457.76356192425794 144.3428863868987 Q 457.43602865916074 144.3428863868987 457.10849539406354 144.67041965199593 Q 456.7809621289663 144.9979529170932 456.453428863869 145.32548618219042 Q 456.12589559877176 145.65301944728765 455.4708290685773 145.65301944728765 Q 454.81576253838284 145.65301944728765 454.4882292732856 145.9805527123849 Q 454.1606960081884 146.30808597748214 453.5056294779939 146.63561924257937 Q 452.8505629477994 146.9631525076766 452.52302968270214 146.9631525076766 Q 452.19549641760494 146.9631525076766 451.86796315250774 147.29068577277383 Q 451.5404298874105 147.61821903787109 451.2128966223132 147.94575230296832 Q 450.885363357216 148.27328556806555 450.23029682702156 148.27328556806555 Q 449.57523029682704 148.27328556806555 449.57523029682704 148.6008188331628 Q 449.57523029682704 148.92835209826004 449.2476970317298 148.92835209826004 Q 448.9201637666326 148.92835209826004 448.5926305015354 149.25588536335727 Q 448.2650972364381 149.5834186284545 447.6100307062436 149.5834186284545 Q 446.95496417604915 149.5834186284545 446.62743091095194 149.91095189355173 Q 446.2998976458547 150.23848515864896 445.9723643807574 150.5660184237462 Q 445.6448311156602 150.89355168884344 445.317297850563 150.89355168884344 Q 444.98976458546576 150.89355168884344 444.33469805527125 150.89355168884344 Q 443.6796315250768 150.89355168884344 443.3520982599796 150.89355168884344 Q 443.0245649948823 150.89355168884344 442.36949846468787 150.89355168884344 Q 441.7144319344934 150.89355168884344 440.7318321392017 151.22108495394068 Q 439.74923234390997 151.5486182190379 438.76663254861825 151.5486182190379 Q 437.7840327533265 151.5486182190379 437.45649948822927 151.5486182190379 Q 437.12896622313207 151.5486182190379 436.80143295803487 151.5486182190379 Q 436.4738996929376 151.5486182190379 436.14636642784035 151.5486182190379 Q 435.81883316274315 151.5486182190379 435.4912998976459 151.5486182190379 Q 435.16376663254863 151.5486182190379 435.16376663254863 151.22108495394068 Q 435.16376663254863 150.89355168884344 434.8362333674514 150.5660184237462 Q 434.50870010235417 150.23848515864896 434.1811668372569 149.91095189355173 Q 433.8536335721597 149.5834186284545 433.5261003070625 149.5834186284545 Q 433.19856704196525 149.5834186284545 432.871033776868 149.25588536335727 Q 432.54350051177073 148.92835209826004 432.2159672466735 148.92835209826004 Q 431.88843398157627 148.92835209826004 431.88843398157627 148.6008188331628 Q 431.88843398157627 148.27328556806555 431.56090071647907 147.94575230296832 Q 431.2333674513818 147.61821903787109 430.90583418628455 147.61821903787109 Q 430.57830092118735 147.61821903787109 429.9232343909929 147.29068577277383 Q 429.26816786079837 146.9631525076766 428.9406345957011 146.3080859774821 Q 428.6131013306039 145.65301944728765 428.2855680655067 145.65301944728765 Q 427.95803480040945 145.65301944728765 427.95803480040945 145.32548618219042 Q 427.95803480040945 144.9979529170932 427.6305015353122 144.67041965199593 Q 427.302968270215 144.3428863868987 426.9754350051178 144.01535312180147 Q 426.64790174002053 143.68781985670424 426.64790174002053 143.360286591607 Q 426.64790174002053 143.03275332650978 426.32036847492327 143.03275332650978 Q 425.992835209826 143.03275332650978 425.992835209826 142.70522006141255 Q 425.992835209826 142.3776867963153 425.66530194472875 142.05015353121806 Q 425.33776867963155 141.72262026612083 425.33776867963155 141.39508700102357 Q 425.33776867963155 141.06755373592634 425.01023541453435 141.06755373592634 Q 424.6827021494371 141.06755373592634 424.35516888433983 140.7400204708291 Q 424.02763561924263 140.41248720573188 424.02763561924263 140.08495394063465 Q 424.02763561924263 139.7574206755374 423.7001023541454 139.42988741044016 Q 423.3725690890481 139.10235414534293 423.0450358239509 138.7748208802457 Q 422.71750255885365 138.44728761514847 422.3899692937564 138.1197543500512 Q 422.0624360286592 137.79222108495398 421.734902763562 137.46468781985675 Q 421.40736949846473 137.13715455475952 421.0798362333675 136.8096212896623 Q 420.75230296827027 136.48208802456503 420.424769703173 136.1545547594678 Q 420.09723643807575 135.82702149437057 419.76970317297855 135.4994882292733 Q 419.4421699078813 135.17195496417608 418.4595701125896 134.1893551688844 Q 417.47697031729786 133.20675537359267 417.1494370522006 132.87922210849544 Q 416.8219037871034 132.5516888433982 416.4943705220062 132.22415557830095 Q 416.16683725690893 131.89662231320372 415.8393039918117 131.24155578300923 Q 415.5117707267145 130.58648925281477 414.85670419652 130.25895598771754 Q 414.2016376663255 129.9314227226203 413.87410440122824 129.27635619242585 Q 413.54657113613104 128.62128966223136 413.21903787103383 128.62128966223136 Q 412.8915046059366 128.62128966223136 412.8915046059366 128.29375639713413 Q 412.8915046059366 127.9662231320369 412.5639713408393 127.9662231320369 Q 412.2364380757421 127.9662231320369 411.90890481064486 127.63868986693966 Q 411.5813715455476 127.31115660184241 411.2538382804504 127.31115660184241 Q 410.92630501535314 127.31115660184241 410.5987717502559 126.98362333674518 Q 410.2712384851587 126.65609007164795 409.6161719549642 126.32855680655071 Q 408.96110542476976 126.00102354145346 408.6335721596725 126.00102354145346 Q 408.30603889457524 126.00102354145346 408.30603889457524 125.67349027635623 Q 408.30603889457524 125.345957011259 407.97850562947804 125.345957011259 Q 407.6509723643808 125.345957011259 406.9959058341863 125.01842374616176 Q 406.34083930399186 124.69089048106451 406.0133060388946 124.69089048106451 Q 405.68577277379734 124.69089048106451 404.7031729785057 124.36335721596728 Q 403.72057318321396 124.03582395087005 403.39303991811676 123.70829068577281 Q 403.0655066530195 123.38075742067556 402.73797338792224 123.38075742067556 Q 402.410440122825 123.38075742067556 402.0829068577277 123.38075742067556 Q 401.7553735926305 123.38075742067556 401.4278403275333 123.38075742067556 Q 401.10030706243606 123.38075742067556 400.7727737973388 123.38075742067556 Q 400.4452405322416 123.38075742067556 400.1177072671444 123.38075742067556 Q 399.79017400204714 123.38075742067556 399.1351074718526 123.05322415557833 Q 398.48004094165816 122.7256908904811 398.15250767656096 122.7256908904811 Q 397.8249744114637 122.7256908904811 397.49744114636644 122.7256908904811 Q 397.16990788126924 122.7256908904811 396.842374616172 122.7256908904811 Q 396.5148413510747 122.7256908904811 396.1873080859775 122.7256908904811 Q 395.85977482088026 122.7256908904811 395.532241555783 122.7256908904811 Q 395.2047082906858 122.7256908904811 394.8771750255886 122.7256908904811 Q 394.54964176049134 122.7256908904811 394.2221084953941 122.7256908904811 Q 393.8945752302969 122.7256908904811 393.2395087001024 122.7256908904811 Q 392.5844421699079 122.7256908904811 391.92937563971344 122.7256908904811 Q 391.274309109519 122.7256908904811 390.61924257932446 122.7256908904811 Q 389.96417604913 122.7256908904811 389.6366427840328 122.7256908904811 Q 389.30910951893554 122.7256908904811 388.9815762538383 122.7256908904811 Q 388.6540429887411 122.7256908904811 387.67144319344936 122.7256908904811 Q 386.68884339815764 122.7256908904811 385.05117707267146 122.7256908904811 Q 383.4135107471853 122.7256908904811 382.1033776867963 122.7256908904811 Q 380.7932446264074 122.7256908904811 379.48311156601847 123.05322415557833 Q 378.1729785056295 123.38075742067556 377.8454452405323 123.38075742067556 Q 377.517911975435 123.38075742067556 377.517911975435 123.70829068577281 Q 377.517911975435 124.03582395087005 377.19037871033777 124.03582395087005 Q 376.86284544524057 124.03582395087005 376.2077789150461 124.36335721596728 Q 375.5527123848516 124.69089048106451 374.8976458546571 125.01842374616176 Q 374.24257932446267 125.345957011259 373.9150460593654 126.00102354145348 Q 373.5875127942682 126.65609007164795 373.259979529171 126.98362333674518 Q 372.93244626407375 127.31115660184241 372.27737973387923 127.63868986693966 Q 371.62231320368477 127.9662231320369 371.29477993858757 128.62128966223136 Q 370.9672466734903 129.27635619242582 370.63971340839305 129.27635619242582 Q 370.31218014329585 129.27635619242582 369.9846468781986 129.60388945752305 Q 369.65711361310133 129.9314227226203 369.65711361310133 130.25895598771754 Q 369.65711361310133 130.58648925281477 369.32958034800413 130.91402251791203 Q 369.00204708290687 131.24155578300926 368.6745138178096 131.5690890481065 Q 368.3469805527124 131.89662231320372 367.69191402251795 132.5516888433982 Q 367.0368474923235 133.20675537359267 366.381780962129 133.86182190378713 Q 365.7267144319345 134.51688843398162 365.07164790174005 135.1719549641761 Q 364.4165813715456 135.82702149437057 363.7615148413511 136.1545547594678 Q 363.1064483111566 136.48208802456503 363.1064483111566 136.8096212896623 Q 363.1064483111566 137.13715455475952 362.7789150460594 137.46468781985675 Q 362.45138178096215 137.79222108495398 362.1238485158649 138.1197543500512 Q 361.7963152507677 138.44728761514847 361.14124872057323 139.10235414534293 Q 360.4861821903787 139.7574206755374 360.15864892528145 140.08495394063465 Q 359.83111566018425 140.41248720573188 359.50358239508705 140.7400204708291 Q 359.1760491299898 141.06755373592634 358.84851586489253 141.06755373592634 Q 358.52098259979533 141.06755373592634 358.52098259979533 141.39508700102357 Q 358.52098259979533 141.72262026612083 358.19344933469813 141.72262026612083 Q 357.86591606960087 141.72262026612083 357.86591606960087 142.05015353121806 Q 357.86591606960087 142.3776867963153 357.5383828045036 142.70522006141255 Q 357.21084953940635 143.03275332650978 356.8833162743091 143.03275332650978 Q 356.5557830092119 143.03275332650978 356.2282497441147 143.360286591607 Q 355.90071647901743 143.68781985670424 355.5731832139202 144.01535312180147 Q 355.245649948823 144.3428863868987 354.9181166837257 144.9979529170932 Q 354.59058341862846 145.65301944728765 354.26305015353125 145.9805527123849 Q 353.935516888434 146.30808597748214 353.28045035823953 146.63561924257937 Q 352.6253838280451 146.9631525076766 352.2978505629478 147.29068577277383 Q 351.9703172978506 147.61821903787109 351.9703172978506 147.94575230296832 Q 351.9703172978506 148.27328556806555 351.64278403275335 148.6008188331628 Q 351.3152507676561 148.92835209826004 350.9877175025589 149.25588536335727 Q 350.66018423746164 149.5834186284545 350.66018423746164 149.91095189355173 Q 350.66018423746164 150.23848515864896 350.3326509723644 150.23848515864896 Q 350.0051177072672 150.23848515864896 349.67758444217 150.5660184237462 Q 349.3500511770727 150.89355168884344 349.3500511770727 151.22108495394068 Q 349.3500511770727 151.5486182190379 349.02251791197546 151.5486182190379 Q 348.6949846468782 151.5486182190379 348.6949846468782 151.87615148413516 Q 348.6949846468782 152.2036847492324 348.6949846468782 152.53121801432962 Q 348.6949846468782 152.85875127942685 348.36745138178094 153.51381780962134 Q 348.03991811668374 154.1688843398158 347.71238485158653 154.82395087001026 Q 347.3848515864893 155.47901740020475 347.057318321392 156.13408393039924 Q 346.7297850562948 156.7891504605937 346.7297850562948 157.11668372569093 Q 346.7297850562948 157.44421699078816 346.4022517911976 158.09928352098262 Q 346.07471852610036 158.7543500511771 346.07471852610036 159.08188331627434 Q 346.07471852610036 159.4094165813716 346.07471852610036 159.73694984646883 Q 346.07471852610036 160.06448311156606 346.07471852610036 160.3920163766633 Q 346.07471852610036 160.71954964176052 346.07471852610036 161.04708290685778 Q 346.07471852610036 161.374616171955 346.07471852610036 161.70214943705224 Q 346.07471852610036 162.02968270214947 346.07471852610036 162.3572159672467 Q 346.07471852610036 162.68474923234396 346.4022517911976 162.68474923234396 Q 346.7297850562948 162.68474923234396 346.7297850562948 163.0122824974412 Q 346.7297850562948 163.33981576253842 347.057318321392 163.99488229273288 L 347.39485158648927 164.65994882292736" stroke-linecap="round" />
</g>
</svg>